<ttFont>
    <TTGlyph name="a.tam" xMin="24" yMin="-9" xMax="829" yMax="511">
      <contour>
        <pt x="391" y="511" on="1"/>
        <pt x="443" y="511" on="0"/>
        <pt x="536" y="469" on="0"/>
        <pt x="605" y="400" on="0"/>
        <pt x="646" y="310" on="0"/>
        <pt x="646" y="262" on="1"/>
        <pt x="760" y="262" on="1"/>
        <pt x="760" y="506" on="1"/>
        <pt x="829" y="506" on="1"/>
        <pt x="829" y="0" on="1"/>
        <pt x="760" y="0" on="1"/>
        <pt x="760" y="213" on="1"/>
        <pt x="642" y="213" on="1"/>
        <pt x="635" y="164" on="0"/>
        <pt x="590" y="82" on="0"/>
        <pt x="514" y="24" on="0"/>
        <pt x="409" y="-9" on="0"/>
        <pt x="342" y="-9" on="1"/>
        <pt x="267" y="-9" on="0"/>
        <pt x="148" y="25" on="0"/>
        <pt x="67" y="78" on="0"/>
        <pt x="24" y="143" on="0"/>
        <pt x="24" y="174" on="1"/>
        <pt x="24" y="219" on="0"/>
        <pt x="87" y="262" on="0"/>
        <pt x="138" y="262" on="1"/>
        <pt x="214" y="262" on="1"/>
        <pt x="179" y="295" on="0"/>
        <pt x="179" y="348" on="1"/>
        <pt x="179" y="386" on="0"/>
        <pt x="216" y="447" on="0"/>
        <pt x="276" y="489" on="0"/>
        <pt x="352" y="511" on="0"/>
      </contour>
      <contour>
        <pt x="342" y="51" on="1"/>
        <pt x="437" y="51" on="0"/>
        <pt x="565" y="135" on="0"/>
        <pt x="581" y="213" on="1"/>
        <pt x="159" y="213" on="1"/>
        <pt x="131" y="213" on="0"/>
        <pt x="95" y="189" on="0"/>
        <pt x="95" y="163" on="1"/>
        <pt x="95" y="141" on="0"/>
        <pt x="125" y="101" on="0"/>
        <pt x="187" y="70" on="0"/>
        <pt x="280" y="51" on="0"/>
      </contour>
      <contour>
        <pt x="398" y="364" on="1"/>
        <pt x="398" y="386" on="0"/>
        <pt x="390" y="429" on="0"/>
        <pt x="380" y="451" on="1"/>
        <pt x="352" y="449" on="0"/>
        <pt x="302" y="431" on="0"/>
        <pt x="264" y="402" on="0"/>
        <pt x="242" y="363" on="0"/>
        <pt x="242" y="340" on="1"/>
        <pt x="242" y="306" on="0"/>
        <pt x="278" y="264" on="0"/>
        <pt x="307" y="262" on="1"/>
        <pt x="313" y="262" on="1"/>
        <pt x="351" y="262" on="0"/>
        <pt x="398" y="321" on="0"/>
      </contour>
      <contour>
        <pt x="447" y="357" on="1"/>
        <pt x="447" y="325" on="0"/>
        <pt x="427" y="277" on="0"/>
        <pt x="413" y="262" on="1"/>
        <pt x="586" y="262" on="1"/>
        <pt x="586" y="299" on="0"/>
        <pt x="558" y="364" on="0"/>
        <pt x="513" y="413" on="0"/>
        <pt x="453" y="445" on="0"/>
        <pt x="420" y="450" on="1"/>
        <pt x="431" y="429" on="0"/>
        <pt x="447" y="383" on="0"/>
      </contour>
    </TTGlyph>
    <TTGlyph name="aa.tam" xMin="24" yMin="-162" xMax="1114" yMax="511">
      <contour>
        <pt x="391" y="511" on="1"/>
        <pt x="443" y="511" on="0"/>
        <pt x="536" y="469" on="0"/>
        <pt x="605" y="400" on="0"/>
        <pt x="646" y="310" on="0"/>
        <pt x="646" y="262" on="1"/>
        <pt x="760" y="262" on="1"/>
        <pt x="760" y="506" on="1"/>
        <pt x="829" y="506" on="1"/>
        <pt x="829" y="204" on="1"/>
        <pt x="847" y="249" on="0"/>
        <pt x="914" y="293" on="0"/>
        <pt x="957" y="293" on="1"/>
        <pt x="991" y="293" on="0"/>
        <pt x="1048" y="266" on="0"/>
        <pt x="1090" y="217" on="0"/>
        <pt x="1114" y="150" on="0"/>
        <pt x="1114" y="110" on="1"/>
        <pt x="1114" y="47" on="0"/>
        <pt x="1061" y="-54" on="0"/>
        <pt x="966" y="-125" on="0"/>
        <pt x="838" y="-162" on="0"/>
        <pt x="763" y="-162" on="1"/>
        <pt x="718" y="-162" on="0"/>
        <pt x="609" y="-146" on="0"/>
        <pt x="562" y="-128" on="1"/>
        <pt x="562" y="-54" on="1"/>
        <pt x="610" y="-77" on="0"/>
        <pt x="720" y="-99" on="0"/>
        <pt x="763" y="-99" on="1"/>
        <pt x="824" y="-99" on="0"/>
        <pt x="926" y="-69" on="0"/>
        <pt x="999" y="-14" on="0"/>
        <pt x="1040" y="63" on="0"/>
        <pt x="1040" y="110" on="1"/>
        <pt x="1040" y="170" on="0"/>
        <pt x="983" y="232" on="0"/>
        <pt x="945" y="232" on="1"/>
        <pt x="921" y="232" on="0"/>
        <pt x="878" y="208" on="0"/>
        <pt x="847" y="166" on="0"/>
        <pt x="829" y="108" on="0"/>
        <pt x="829" y="74" on="1"/>
        <pt x="829" y="0" on="1"/>
        <pt x="760" y="0" on="1"/>
        <pt x="760" y="213" on="1"/>
        <pt x="642" y="213" on="1"/>
        <pt x="635" y="164" on="0"/>
        <pt x="590" y="82" on="0"/>
        <pt x="514" y="24" on="0"/>
        <pt x="409" y="-9" on="0"/>
        <pt x="342" y="-9" on="1"/>
        <pt x="267" y="-9" on="0"/>
        <pt x="148" y="25" on="0"/>
        <pt x="67" y="78" on="0"/>
        <pt x="24" y="143" on="0"/>
        <pt x="24" y="174" on="1"/>
        <pt x="24" y="219" on="0"/>
        <pt x="87" y="262" on="0"/>
        <pt x="138" y="262" on="1"/>
        <pt x="214" y="262" on="1"/>
        <pt x="179" y="295" on="0"/>
        <pt x="179" y="348" on="1"/>
        <pt x="179" y="386" on="0"/>
        <pt x="216" y="447" on="0"/>
        <pt x="276" y="489" on="0"/>
        <pt x="352" y="511" on="0"/>
      </contour>
      <contour>
        <pt x="342" y="51" on="1"/>
        <pt x="437" y="51" on="0"/>
        <pt x="565" y="135" on="0"/>
        <pt x="581" y="213" on="1"/>
        <pt x="159" y="213" on="1"/>
        <pt x="131" y="213" on="0"/>
        <pt x="95" y="189" on="0"/>
        <pt x="95" y="163" on="1"/>
        <pt x="95" y="141" on="0"/>
        <pt x="125" y="101" on="0"/>
        <pt x="187" y="70" on="0"/>
        <pt x="280" y="51" on="0"/>
      </contour>
      <contour>
        <pt x="398" y="364" on="1"/>
        <pt x="398" y="386" on="0"/>
        <pt x="390" y="429" on="0"/>
        <pt x="380" y="451" on="1"/>
        <pt x="352" y="449" on="0"/>
        <pt x="302" y="431" on="0"/>
        <pt x="264" y="402" on="0"/>
        <pt x="242" y="363" on="0"/>
        <pt x="242" y="340" on="1"/>
        <pt x="242" y="305" on="0"/>
        <pt x="282" y="262" on="0"/>
        <pt x="313" y="262" on="1"/>
        <pt x="317" y="262" on="1"/>
        <pt x="354" y="264" on="0"/>
        <pt x="398" y="322" on="0"/>
      </contour>
      <contour>
        <pt x="447" y="357" on="1"/>
        <pt x="447" y="325" on="0"/>
        <pt x="427" y="277" on="0"/>
        <pt x="413" y="262" on="1"/>
        <pt x="586" y="262" on="1"/>
        <pt x="586" y="299" on="0"/>
        <pt x="559" y="364" on="0"/>
        <pt x="513" y="413" on="0"/>
        <pt x="453" y="445" on="0"/>
        <pt x="420" y="450" on="1"/>
        <pt x="432" y="430" on="0"/>
        <pt x="447" y="383" on="0"/>
      </contour>
    </TTGlyph>
    <TTGlyph name="aamatra.tam" xMin="97" yMin="0" xMax="566" yMax="503">
      <contour>
        <pt x="566" y="503" on="1"/>
        <pt x="566" y="440" on="1"/>
        <pt x="449" y="440" on="1"/>
        <pt x="449" y="0" on="1"/>
        <pt x="379" y="0" on="1"/>
        <pt x="379" y="440" on="1"/>
        <pt x="167" y="440" on="1"/>
        <pt x="167" y="0" on="1"/>
        <pt x="97" y="0" on="1"/>
        <pt x="97" y="503" on="1"/>
      </contour>
    </TTGlyph>
    <TTGlyph name="ai.tam" xMin="65" yMin="-250" xMax="788" yMax="511">
      <contour>
        <pt x="616" y="511" on="1"/>
        <pt x="652" y="511" on="0"/>
        <pt x="714" y="482" on="0"/>
        <pt x="761" y="430" on="0"/>
        <pt x="788" y="359" on="0"/>
        <pt x="788" y="317" on="1"/>
        <pt x="788" y="246" on="0"/>
        <pt x="731" y="144" on="0"/>
        <pt x="635" y="78" on="0"/>
        <pt x="510" y="47" on="0"/>
        <pt x="442" y="47" on="1"/>
        <pt x="261" y="47" on="1"/>
        <pt x="201" y="47" on="0"/>
        <pt x="139" y="-11" on="0"/>
        <pt x="139" y="-59" on="1"/>
        <pt x="139" y="-116" on="0"/>
        <pt x="217" y="-185" on="0"/>
        <pt x="286" y="-185" on="1"/>
        <pt x="315" y="-185" on="0"/>
        <pt x="367" y="-169" on="0"/>
        <pt x="405" y="-135" on="0"/>
        <pt x="427" y="-82" on="0"/>
        <pt x="427" y="-44" on="1"/>
        <pt x="496" y="-44" on="1"/>
        <pt x="496" y="-118" on="0"/>
        <pt x="559" y="-185" on="0"/>
        <pt x="608" y="-185" on="1"/>
        <pt x="655" y="-185" on="0"/>
        <pt x="714" y="-127" on="0"/>
        <pt x="714" y="-79" on="1"/>
        <pt x="714" y="-50" on="0"/>
        <pt x="698" y="1" on="0"/>
        <pt x="680" y="30" on="1"/>
        <pt x="743" y="58" on="1"/>
        <pt x="788" y="-17" on="0"/>
        <pt x="788" y="-85" on="1"/>
        <pt x="788" y="-121" on="0"/>
        <pt x="764" y="-182" on="0"/>
        <pt x="720" y="-226" on="0"/>
        <pt x="658" y="-250" on="0"/>
        <pt x="620" y="-250" on="1"/>
        <pt x="571" y="-250" on="0"/>
        <pt x="495" y="-200" on="0"/>
        <pt x="476" y="-144" on="1"/>
        <pt x="452" y="-195" on="0"/>
        <pt x="356" y="-250" on="0"/>
        <pt x="286" y="-250" on="1"/>
        <pt x="239" y="-250" on="0"/>
        <pt x="158" y="-221" on="0"/>
        <pt x="99" y="-169" on="0"/>
        <pt x="65" y="-97" on="0"/>
        <pt x="65" y="-54" on="1"/>
        <pt x="65" y="21" on="0"/>
        <pt x="164" y="110" on="0"/>
        <pt x="260" y="110" on="1"/>
        <pt x="437" y="110" on="1"/>
        <pt x="497" y="110" on="0"/>
        <pt x="599" y="134" on="0"/>
        <pt x="673" y="185" on="0"/>
        <pt x="714" y="264" on="0"/>
        <pt x="714" y="320" on="1"/>
        <pt x="714" y="383" on="0"/>
        <pt x="659" y="451" on="0"/>
        <pt x="615" y="451" on="1"/>
        <pt x="567" y="451" on="0"/>
        <pt x="503" y="372" on="0"/>
        <pt x="503" y="288" on="1"/>
        <pt x="503" y="220" on="1"/>
        <pt x="434" y="220" on="1"/>
        <pt x="434" y="276" on="1"/>
        <pt x="433" y="307" on="0"/>
        <pt x="416" y="366" on="0"/>
        <pt x="384" y="412" on="0"/>
        <pt x="335" y="442" on="0"/>
        <pt x="303" y="445" on="1"/>
        <pt x="290" y="449" on="0"/>
        <pt x="255" y="449" on="0"/>
        <pt x="242" y="447" on="1"/>
        <pt x="290" y="421" on="0"/>
        <pt x="339" y="339" on="0"/>
        <pt x="339" y="297" on="1"/>
        <pt x="339" y="247" on="0"/>
        <pt x="271" y="183" on="0"/>
        <pt x="208" y="183" on="1"/>
        <pt x="179" y="183" on="0"/>
        <pt x="128" y="201" on="0"/>
        <pt x="88" y="238" on="0"/>
        <pt x="65" y="292" on="0"/>
        <pt x="65" y="328" on="1"/>
        <pt x="65" y="366" on="0"/>
        <pt x="97" y="433" on="0"/>
        <pt x="153" y="482" on="0"/>
        <pt x="226" y="511" on="0"/>
        <pt x="268" y="511" on="1"/>
        <pt x="330" y="511" on="0"/>
        <pt x="425" y="448" on="0"/>
        <pt x="449" y="387" on="1"/>
        <pt x="469" y="445" on="0"/>
        <pt x="554" y="511" on="0"/>
      </contour>
      <contour>
        <pt x="287" y="319" on="1"/>
        <pt x="287" y="352" on="0"/>
        <pt x="246" y="413" on="0"/>
        <pt x="207" y="434" on="1"/>
        <pt x="175" y="417" on="0"/>
        <pt x="135" y="360" on="0"/>
        <pt x="135" y="320" on="1"/>
        <pt x="135" y="278" on="0"/>
        <pt x="179" y="238" on="0"/>
        <pt x="208" y="238" on="1"/>
        <pt x="244" y="238" on="0"/>
        <pt x="287" y="283" on="0"/>
      </contour>
    </TTGlyph>
    <TTGlyph name="aimatra.tam" xMin="53" yMin="-9" xMax="1115" yMax="511">
      <contour>
        <pt x="433" y="511" on="1"/>
        <pt x="503" y="511" on="0"/>
        <pt x="630" y="473" on="0"/>
        <pt x="683" y="439" on="1"/>
        <pt x="723" y="472" on="0"/>
        <pt x="820" y="511" on="0"/>
        <pt x="876" y="511" on="1"/>
        <pt x="928" y="511" on="0"/>
        <pt x="1016" y="472" on="0"/>
        <pt x="1080" y="403" on="0"/>
        <pt x="1115" y="308" on="0"/>
        <pt x="1115" y="252" on="1"/>
        <pt x="1115" y="186" on="0"/>
        <pt x="1060" y="48" on="0"/>
        <pt x="1000" y="-9" on="1"/>
        <pt x="938" y="16" on="1"/>
        <pt x="998" y="78" on="0"/>
        <pt x="1044" y="195" on="0"/>
        <pt x="1044" y="253" on="1"/>
        <pt x="1044" y="294" on="0"/>
        <pt x="1020" y="366" on="0"/>
        <pt x="976" y="420" on="0"/>
        <pt x="914" y="451" on="0"/>
        <pt x="877" y="451" on="1"/>
        <pt x="838" y="451" on="0"/>
        <pt x="766" y="423" on="0"/>
        <pt x="734" y="400" on="1"/>
        <pt x="788" y="352" on="0"/>
        <pt x="851" y="230" on="0"/>
        <pt x="851" y="161" on="1"/>
        <pt x="851" y="123" on="0"/>
        <pt x="829" y="61" on="0"/>
        <pt x="789" y="16" on="0"/>
        <pt x="734" y="-9" on="0"/>
        <pt x="701" y="-9" on="1"/>
        <pt x="668" y="-9" on="0"/>
        <pt x="613" y="16" on="0"/>
        <pt x="573" y="61" on="0"/>
        <pt x="551" y="123" on="0"/>
        <pt x="551" y="161" on="1"/>
        <pt x="551" y="224" on="0"/>
        <pt x="597" y="345" on="0"/>
        <pt x="639" y="395" on="1"/>
        <pt x="595" y="421" on="0"/>
        <pt x="490" y="449" on="0"/>
        <pt x="433" y="449" on="1"/>
        <pt x="369" y="449" on="0"/>
        <pt x="256" y="412" on="0"/>
        <pt x="172" y="348" on="0"/>
        <pt x="123" y="260" on="0"/>
        <pt x="123" y="208" on="1"/>
        <pt x="123" y="142" on="0"/>
        <pt x="179" y="69" on="0"/>
        <pt x="222" y="56" on="1"/>
        <pt x="203" y="91" on="0"/>
        <pt x="203" y="131" on="1"/>
        <pt x="203" y="165" on="0"/>
        <pt x="223" y="225" on="0"/>
        <pt x="261" y="268" on="0"/>
        <pt x="312" y="293" on="0"/>
        <pt x="344" y="293" on="1"/>
        <pt x="372" y="293" on="0"/>
        <pt x="419" y="272" on="0"/>
        <pt x="453" y="236" on="0"/>
        <pt x="471" y="187" on="0"/>
        <pt x="471" y="158" on="1"/>
        <pt x="471" y="123" on="0"/>
        <pt x="444" y="62" on="0"/>
        <pt x="395" y="17" on="0"/>
        <pt x="327" y="-9" on="0"/>
        <pt x="285" y="-9" on="1"/>
        <pt x="239" y="-9" on="0"/>
        <pt x="155" y="24" on="0"/>
        <pt x="91" y="83" on="0"/>
        <pt x="53" y="166" on="0"/>
        <pt x="53" y="216" on="1"/>
        <pt x="53" y="279" on="0"/>
        <pt x="108" y="386" on="0"/>
        <pt x="208" y="466" on="0"/>
        <pt x="348" y="511" on="0"/>
      </contour>
      <contour>
        <pt x="785" y="161" on="1"/>
        <pt x="785" y="219" on="0"/>
        <pt x="735" y="320" on="0"/>
        <pt x="690" y="358" on="1"/>
        <pt x="656" y="318" on="0"/>
        <pt x="616" y="216" on="0"/>
        <pt x="616" y="161" on="1"/>
        <pt x="616" y="110" on="0"/>
        <pt x="665" y="52" on="0"/>
        <pt x="700" y="52" on="1"/>
        <pt x="735" y="52" on="0"/>
        <pt x="785" y="110" on="0"/>
      </contour>
      <contour>
        <pt x="341" y="232" on="1"/>
        <pt x="319" y="232" on="0"/>
        <pt x="285" y="212" on="0"/>
        <pt x="262" y="179" on="0"/>
        <pt x="250" y="138" on="0"/>
        <pt x="250" y="116" on="1"/>
        <pt x="250" y="98" on="0"/>
        <pt x="256" y="64" on="0"/>
        <pt x="264" y="50" on="1"/>
        <pt x="269" y="48" on="0"/>
        <pt x="282" y="47" on="0"/>
        <pt x="287" y="47" on="1"/>
        <pt x="306" y="47" on="0"/>
        <pt x="348" y="62" on="0"/>
        <pt x="384" y="90" on="0"/>
        <pt x="407" y="131" on="0"/>
        <pt x="407" y="158" on="1"/>
        <pt x="407" y="190" on="0"/>
        <pt x="375" y="232" on="0"/>
      </contour>
    </TTGlyph>
    <TTGlyph name="aimatrahalf.tam" xMin="53" yMin="-9" xMax="502" yMax="802">
      <contour>
        <pt x="281" y="802" on="1"/>
        <pt x="327" y="802" on="0"/>
        <pt x="406" y="770" on="0"/>
        <pt x="463" y="716" on="0"/>
        <pt x="495" y="645" on="0"/>
        <pt x="495" y="606" on="1"/>
        <pt x="495" y="536" on="0"/>
        <pt x="431" y="437" on="0"/>
        <pt x="378" y="397" on="1"/>
        <pt x="187" y="249" on="1"/>
        <pt x="157" y="225" on="0"/>
        <pt x="127" y="179" on="0"/>
        <pt x="127" y="150" on="1"/>
        <pt x="127" y="108" on="0"/>
        <pt x="183" y="54" on="0"/>
        <pt x="229" y="54" on="1"/>
        <pt x="268" y="54" on="0"/>
        <pt x="340" y="88" on="0"/>
        <pt x="402" y="150" on="0"/>
        <pt x="452" y="236" on="0"/>
        <pt x="470" y="289" on="1"/>
        <pt x="502" y="278" on="1"/>
        <pt x="488" y="213" on="0"/>
        <pt x="439" y="107" on="0"/>
        <pt x="370" y="32" on="0"/>
        <pt x="282" y="-9" on="0"/>
        <pt x="229" y="-9" on="1"/>
        <pt x="190" y="-9" on="0"/>
        <pt x="125" y="16" on="0"/>
        <pt x="79" y="60" on="0"/>
        <pt x="53" y="119" on="0"/>
        <pt x="53" y="152" on="1"/>
        <pt x="53" y="202" on="0"/>
        <pt x="105" y="275" on="0"/>
        <pt x="152" y="311" on="1"/>
        <pt x="325" y="447" on="1"/>
        <pt x="372" y="482" on="0"/>
        <pt x="423" y="557" on="0"/>
        <pt x="423" y="608" on="1"/>
        <pt x="423" y="636" on="0"/>
        <pt x="404" y="684" on="0"/>
        <pt x="371" y="720" on="0"/>
        <pt x="324" y="742" on="0"/>
        <pt x="297" y="745" on="1"/>
        <pt x="314" y="724" on="0"/>
        <pt x="334" y="670" on="0"/>
        <pt x="334" y="642" on="1"/>
        <pt x="334" y="613" on="0"/>
        <pt x="316" y="563" on="0"/>
        <pt x="282" y="525" on="0"/>
        <pt x="233" y="503" on="0"/>
        <pt x="201" y="503" on="1"/>
        <pt x="171" y="503" on="0"/>
        <pt x="120" y="523" on="0"/>
        <pt x="81" y="558" on="0"/>
        <pt x="59" y="607" on="0"/>
        <pt x="59" y="636" on="1"/>
        <pt x="59" y="673" on="0"/>
        <pt x="95" y="734" on="0"/>
        <pt x="155" y="778" on="0"/>
        <pt x="236" y="802" on="0"/>
      </contour>
      <contour>
        <pt x="261" y="748" on="1"/>
        <pt x="236" y="746" on="0"/>
        <pt x="189" y="728" on="0"/>
        <pt x="152" y="699" on="0"/>
        <pt x="129" y="660" on="0"/>
        <pt x="129" y="637" on="1"/>
        <pt x="129" y="602" on="0"/>
        <pt x="167" y="558" on="0"/>
        <pt x="203" y="558" on="1"/>
        <pt x="240" y="558" on="0"/>
        <pt x="285" y="613" on="0"/>
        <pt x="285" y="653" on="1"/>
        <pt x="285" y="701" on="0"/>
      </contour>
    </TTGlyph>
    <TTGlyph name="ampersand" xMin="77" yMin="-9" xMax="827" yMax="636">
      <contour>
        <pt x="827" y="138" on="1"/>
        <pt x="822" y="68" on="0"/>
        <pt x="759" y="-9" on="0"/>
        <pt x="697" y="-9" on="1"/>
        <pt x="659" y="-9" on="0"/>
        <pt x="595" y="21" on="0"/>
        <pt x="558" y="56" on="1"/>
        <pt x="529" y="82" on="1"/>
        <pt x="484" y="39" on="0"/>
        <pt x="376" y="-9" on="0"/>
        <pt x="307" y="-9" on="1"/>
        <pt x="257" y="-9" on="0"/>
        <pt x="173" y="18" on="0"/>
        <pt x="111" y="66" on="0"/>
        <pt x="77" y="131" on="0"/>
        <pt x="77" y="169" on="1"/>
        <pt x="77" y="235" on="0"/>
        <pt x="165" y="312" on="0"/>
        <pt x="254" y="327" on="1"/>
        <pt x="211" y="367" on="0"/>
        <pt x="169" y="444" on="0"/>
        <pt x="169" y="489" on="1"/>
        <pt x="169" y="520" on="0"/>
        <pt x="195" y="574" on="0"/>
        <pt x="244" y="614" on="0"/>
        <pt x="312" y="636" on="0"/>
        <pt x="354" y="636" on="1"/>
        <pt x="391" y="636" on="0"/>
        <pt x="454" y="613" on="0"/>
        <pt x="500" y="573" on="0"/>
        <pt x="526" y="519" on="0"/>
        <pt x="526" y="489" on="1"/>
        <pt x="526" y="435" on="0"/>
        <pt x="457" y="348" on="0"/>
        <pt x="371" y="309" on="1"/>
        <pt x="525" y="171" on="1"/>
        <pt x="557" y="212" on="0"/>
        <pt x="611" y="313" on="0"/>
        <pt x="633" y="371" on="1"/>
        <pt x="686" y="342" on="1"/>
        <pt x="662" y="281" on="0"/>
        <pt x="606" y="174" on="0"/>
        <pt x="572" y="129" on="1"/>
        <pt x="617" y="89" on="1"/>
        <pt x="640" y="69" on="0"/>
        <pt x="671" y="53" on="0"/>
        <pt x="693" y="53" on="1"/>
        <pt x="719" y="53" on="0"/>
        <pt x="757" y="93" on="0"/>
        <pt x="760" y="138" on="1"/>
      </contour>
      <contour>
        <pt x="149" y="169" on="1"/>
        <pt x="149" y="120" on="0"/>
        <pt x="228" y="51" on="0"/>
        <pt x="304" y="51" on="1"/>
        <pt x="355" y="51" on="0"/>
        <pt x="443" y="89" on="0"/>
        <pt x="481" y="124" on="1"/>
        <pt x="302" y="285" on="1"/>
        <pt x="222" y="274" on="0"/>
        <pt x="149" y="216" on="0"/>
      </contour>
      <contour>
        <pt x="453" y="489" on="1"/>
        <pt x="453" y="527" on="0"/>
        <pt x="399" y="577" on="0"/>
        <pt x="354" y="577" on="1"/>
        <pt x="327" y="577" on="0"/>
        <pt x="286" y="561" on="0"/>
        <pt x="258" y="535" on="0"/>
        <pt x="244" y="500" on="0"/>
        <pt x="244" y="481" on="1"/>
        <pt x="244" y="452" on="0"/>
        <pt x="271" y="399" on="0"/>
        <pt x="300" y="373" on="1"/>
        <pt x="328" y="348" on="1"/>
        <pt x="366" y="366" on="0"/>
        <pt x="414" y="400" on="0"/>
        <pt x="442" y="435" on="0"/>
        <pt x="453" y="470" on="0"/>
      </contour>
    </TTGlyph>
    <TTGlyph name="anusvara.tam" xMin="37" yMin="582" xMax="274" yMax="806">
      <contour>
        <pt x="155" y="806" on="1"/>
        <pt x="179" y="806" on="0"/>
        <pt x="222" y="791" on="0"/>
        <pt x="255" y="762" on="0"/>
        <pt x="274" y="721" on="0"/>
        <pt x="274" y="694" on="1"/>
        <pt x="274" y="667" on="0"/>
        <pt x="255" y="625" on="0"/>
        <pt x="222" y="597" on="0"/>
        <pt x="179" y="582" on="0"/>
        <pt x="155" y="582" on="1"/>
        <pt x="107" y="582" on="0"/>
        <pt x="37" y="640" on="0"/>
        <pt x="37" y="694" on="1"/>
        <pt x="37" y="721" on="0"/>
        <pt x="56" y="762" on="0"/>
        <pt x="88" y="791" on="0"/>
        <pt x="131" y="806" on="0"/>
      </contour>
      <contour>
        <pt x="155" y="754" on="1"/>
        <pt x="129" y="754" on="0"/>
        <pt x="103" y="721" on="0"/>
        <pt x="103" y="694" on="1"/>
        <pt x="103" y="666" on="0"/>
        <pt x="129" y="634" on="0"/>
        <pt x="155" y="634" on="1"/>
        <pt x="181" y="634" on="0"/>
        <pt x="208" y="666" on="0"/>
        <pt x="208" y="694" on="1"/>
        <pt x="208" y="721" on="0"/>
        <pt x="181" y="754" on="0"/>
      </contour>
    </TTGlyph>
    <TTGlyph name="apostrophe" xMin="36" yMin="421" xMax="181" yMax="624">
      <contour>
        <pt x="58" y="574" on="1"/>
        <pt x="58" y="594" on="0"/>
        <pt x="88" y="624" on="0"/>
        <pt x="113" y="624" on="1"/>
        <pt x="143" y="624" on="0"/>
        <pt x="181" y="580" on="0"/>
        <pt x="181" y="548" on="1"/>
        <pt x="181" y="513" on="0"/>
        <pt x="137" y="443" on="0"/>
        <pt x="94" y="421" on="1"/>
        <pt x="36" y="450" on="1"/>
        <pt x="65" y="464" on="0"/>
        <pt x="103" y="499" on="0"/>
        <pt x="110" y="524" on="1"/>
        <pt x="87" y="526" on="0"/>
        <pt x="58" y="552" on="0"/>
      </contour>
    </TTGlyph>
    <TTGlyph name="asciicircum" xMin="21" yMin="246" xMax="429" yMax="585">
      <contour>
        <pt x="21" y="246" on="1"/>
        <pt x="195" y="585" on="1"/>
        <pt x="255" y="585" on="1"/>
        <pt x="429" y="246" on="1"/>
        <pt x="344" y="246" on="1"/>
        <pt x="225" y="493" on="1"/>
        <pt x="107" y="246" on="1"/>
      </contour>
    </TTGlyph>
    <TTGlyph name="asciitilde" xMin="53" yMin="224" xMax="459" yMax="358">
      <contour>
        <pt x="95" y="224" on="1"/>
        <pt x="53" y="246" on="1"/>
        <pt x="69" y="300" on="0"/>
        <pt x="122" y="356" on="0"/>
        <pt x="159" y="356" on="1"/>
        <pt x="176" y="356" on="0"/>
        <pt x="221" y="344" on="0"/>
        <pt x="259" y="328" on="1"/>
        <pt x="300" y="311" on="0"/>
        <pt x="338" y="301" on="0"/>
        <pt x="352" y="301" on="1"/>
        <pt x="371" y="301" on="0"/>
        <pt x="405" y="329" on="0"/>
        <pt x="417" y="358" on="1"/>
        <pt x="459" y="331" on="1"/>
        <pt x="441" y="277" on="0"/>
        <pt x="384" y="227" on="0"/>
        <pt x="347" y="227" on="1"/>
        <pt x="332" y="227" on="0"/>
        <pt x="286" y="241" on="0"/>
        <pt x="248" y="255" on="1"/>
        <pt x="228" y="263" on="0"/>
        <pt x="200" y="274" on="0"/>
        <pt x="179" y="280" on="0"/>
        <pt x="164" y="283" on="0"/>
        <pt x="157" y="283" on="1"/>
        <pt x="140" y="283" on="0"/>
        <pt x="109" y="256" on="0"/>
      </contour>
    </TTGlyph>
    <TTGlyph name="asterisk" xMin="57" yMin="387" xMax="357" yMax="683">
      <contour>
        <pt x="174" y="515" on="1"/>
        <pt x="57" y="555" on="1"/>
        <pt x="80" y="608" on="1"/>
        <pt x="187" y="554" on="1"/>
        <pt x="177" y="683" on="1"/>
        <pt x="237" y="683" on="1"/>
        <pt x="227" y="554" on="1"/>
        <pt x="334" y="609" on="1"/>
        <pt x="357" y="556" on="1"/>
        <pt x="241" y="515" on="1"/>
        <pt x="332" y="426" on="1"/>
        <pt x="288" y="387" on="1"/>
        <pt x="208" y="492" on="1"/>
        <pt x="127" y="387" on="1"/>
        <pt x="84" y="426" on="1"/>
      </contour>
    </TTGlyph>
    <TTGlyph name="at" xMin="49" yMin="-215" xMax="844" yMax="567">
      <contour>
        <pt x="535" y="237" on="1"/>
        <pt x="535" y="274" on="0"/>
        <pt x="510" y="314" on="0"/>
        <pt x="478" y="314" on="1"/>
        <pt x="455" y="314" on="0"/>
        <pt x="406" y="292" on="0"/>
        <pt x="366" y="250" on="0"/>
        <pt x="339" y="191" on="0"/>
        <pt x="339" y="155" on="1"/>
        <pt x="339" y="105" on="0"/>
        <pt x="391" y="47" on="0"/>
        <pt x="430" y="47" on="1"/>
        <pt x="468" y="47" on="0"/>
        <pt x="515" y="95" on="0"/>
        <pt x="535" y="137" on="1"/>
      </contour>
      <contour>
        <pt x="484" y="567" on="1"/>
        <pt x="562" y="567" on="0"/>
        <pt x="694" y="518" on="0"/>
        <pt x="790" y="431" on="0"/>
        <pt x="844" y="312" on="0"/>
        <pt x="844" y="243" on="1"/>
        <pt x="844" y="186" on="0"/>
        <pt x="811" y="93" on="0"/>
        <pt x="755" y="27" on="0"/>
        <pt x="681" y="-9" on="0"/>
        <pt x="640" y="-9" on="1"/>
        <pt x="598" y="-9" on="0"/>
        <pt x="546" y="30" on="0"/>
        <pt x="538" y="70" on="1"/>
        <pt x="520" y="35" on="0"/>
        <pt x="465" y="-9" on="0"/>
        <pt x="418" y="-9" on="1"/>
        <pt x="389" y="-9" on="0"/>
        <pt x="335" y="15" on="0"/>
        <pt x="291" y="58" on="0"/>
        <pt x="265" y="118" on="0"/>
        <pt x="265" y="154" on="1"/>
        <pt x="265" y="201" on="0"/>
        <pt x="301" y="282" on="0"/>
        <pt x="361" y="341" on="0"/>
        <pt x="438" y="375" on="0"/>
        <pt x="479" y="375" on="1"/>
        <pt x="535" y="375" on="0"/>
        <pt x="605" y="306" on="0"/>
        <pt x="605" y="238" on="1"/>
        <pt x="605" y="97" on="1"/>
        <pt x="605" y="47" on="0"/>
        <pt x="645" y="47" on="1"/>
        <pt x="666" y="47" on="0"/>
        <pt x="710" y="73" on="0"/>
        <pt x="746" y="122" on="0"/>
        <pt x="770" y="194" on="0"/>
        <pt x="770" y="240" on="1"/>
        <pt x="770" y="298" on="0"/>
        <pt x="730" y="395" on="0"/>
        <pt x="655" y="465" on="0"/>
        <pt x="550" y="504" on="0"/>
        <pt x="484" y="504" on="1"/>
        <pt x="410" y="504" on="0"/>
        <pt x="279" y="454" on="0"/>
        <pt x="181" y="365" on="0"/>
        <pt x="124" y="243" on="0"/>
        <pt x="124" y="170" on="1"/>
        <pt x="124" y="92" on="0"/>
        <pt x="181" y="-30" on="0"/>
        <pt x="287" y="-112" on="0"/>
        <pt x="436" y="-155" on="0"/>
        <pt x="528" y="-155" on="1"/>
        <pt x="528" y="-215" on="1"/>
        <pt x="424" y="-215" on="0"/>
        <pt x="248" y="-162" on="0"/>
        <pt x="121" y="-61" on="0"/>
        <pt x="49" y="86" on="0"/>
        <pt x="49" y="181" on="1"/>
        <pt x="49" y="265" on="0"/>
        <pt x="117" y="407" on="0"/>
        <pt x="234" y="509" on="0"/>
        <pt x="393" y="567" on="0"/>
      </contour>
    </TTGlyph>
    <TTGlyph name="au.tam" xMin="53" yMin="-349" xMax="2124" yMax="511">
      <contour>
        <pt x="816" y="-186" on="1"/>
        <pt x="742" y="-186" on="0"/>
        <pt x="688" y="-165" on="1"/>
        <pt x="657" y="-214" on="0"/>
        <pt x="597" y="-284" on="0"/>
        <pt x="534" y="-328" on="0"/>
        <pt x="466" y="-349" on="0"/>
        <pt x="427" y="-349" on="1"/>
        <pt x="391" y="-349" on="0"/>
        <pt x="328" y="-328" on="0"/>
        <pt x="280" y="-291" on="0"/>
        <pt x="253" y="-240" on="0"/>
        <pt x="253" y="-210" on="1"/>
        <pt x="253" y="-183" on="0"/>
        <pt x="274" y="-140" on="0"/>
        <pt x="310" y="-110" on="0"/>
        <pt x="356" y="-94" on="0"/>
        <pt x="382" y="-94" on="1"/>
        <pt x="418" y="-94" on="0"/>
        <pt x="468" y="-122" on="0"/>
        <pt x="500" y="-170" on="0"/>
        <pt x="516" y="-231" on="0"/>
        <pt x="517" y="-264" on="1"/>
        <pt x="555" y="-238" on="0"/>
        <pt x="608" y="-173" on="0"/>
        <pt x="631" y="-136" on="1"/>
        <pt x="589" y="-107" on="0"/>
        <pt x="546" y="-22" on="0"/>
        <pt x="546" y="32" on="1"/>
        <pt x="546" y="113" on="0"/>
        <pt x="642" y="243" on="0"/>
        <pt x="723" y="290" on="1"/>
        <pt x="798" y="264" on="1"/>
        <pt x="780" y="229" on="0"/>
        <pt x="764" y="173" on="0"/>
        <pt x="764" y="138" on="1"/>
        <pt x="764" y="98" on="0"/>
        <pt x="811" y="54" on="0"/>
        <pt x="848" y="54" on="1"/>
        <pt x="889" y="54" on="0"/>
        <pt x="946" y="127" on="0"/>
        <pt x="946" y="186" on="1"/>
        <pt x="946" y="243" on="0"/>
        <pt x="882" y="339" on="0"/>
        <pt x="773" y="410" on="0"/>
        <pt x="626" y="449" on="0"/>
        <pt x="543" y="449" on="1"/>
        <pt x="447" y="449" on="0"/>
        <pt x="293" y="415" on="0"/>
        <pt x="185" y="350" on="0"/>
        <pt x="127" y="257" on="0"/>
        <pt x="127" y="198" on="1"/>
        <pt x="127" y="139" on="0"/>
        <pt x="184" y="69" on="0"/>
        <pt x="226" y="56" on="1"/>
        <pt x="206" y="106" on="0"/>
        <pt x="212" y="158" on="1"/>
        <pt x="218" y="215" on="0"/>
        <pt x="290" y="293" on="0"/>
        <pt x="352" y="293" on="1"/>
        <pt x="415" y="293" on="0"/>
        <pt x="485" y="216" on="0"/>
        <pt x="485" y="158" on="1"/>
        <pt x="485" y="122" on="0"/>
        <pt x="455" y="61" on="0"/>
        <pt x="402" y="16" on="0"/>
        <pt x="331" y="-9" on="0"/>
        <pt x="289" y="-9" on="1"/>
        <pt x="242" y="-9" on="0"/>
        <pt x="156" y="24" on="0"/>
        <pt x="91" y="82" on="0"/>
        <pt x="53" y="163" on="0"/>
        <pt x="53" y="211" on="1"/>
        <pt x="53" y="279" on="0"/>
        <pt x="116" y="390" on="0"/>
        <pt x="240" y="468" on="0"/>
        <pt x="423" y="511" on="0"/>
        <pt x="543" y="511" on="1"/>
        <pt x="650" y="511" on="0"/>
        <pt x="826" y="458" on="0"/>
        <pt x="951" y="368" on="0"/>
        <pt x="1020" y="250" on="0"/>
        <pt x="1020" y="186" on="1"/>
        <pt x="1020" y="141" on="0"/>
        <pt x="995" y="69" on="0"/>
        <pt x="949" y="18" on="0"/>
        <pt x="886" y="-9" on="0"/>
        <pt x="849" y="-9" on="1"/>
        <pt x="817" y="-9" on="0"/>
        <pt x="763" y="10" on="0"/>
        <pt x="723" y="45" on="0"/>
        <pt x="700" y="94" on="0"/>
        <pt x="700" y="124" on="1"/>
        <pt x="700" y="166" on="0"/>
        <pt x="723" y="215" on="1"/>
        <pt x="673" y="183" on="0"/>
        <pt x="617" y="85" on="0"/>
        <pt x="617" y="32" on="1"/>
        <pt x="617" y="-46" on="0"/>
        <pt x="719" y="-123" on="0"/>
        <pt x="812" y="-123" on="1"/>
        <pt x="883" y="-123" on="1"/>
        <pt x="883" y="-186" on="1"/>
      </contour>
      <contour>
        <pt x="1414" y="511" on="1"/>
        <pt x="1461" y="511" on="0"/>
        <pt x="1539" y="484" on="0"/>
        <pt x="1600" y="437" on="0"/>
        <pt x="1643" y="372" on="0"/>
        <pt x="1656" y="334" on="1"/>
        <pt x="1656" y="503" on="1"/>
        <pt x="2124" y="503" on="1"/>
        <pt x="2124" y="440" on="1"/>
        <pt x="2005" y="440" on="1"/>
        <pt x="2005" y="0" on="1"/>
        <pt x="1936" y="0" on="1"/>
        <pt x="1936" y="440" on="1"/>
        <pt x="1720" y="440" on="1"/>
        <pt x="1720" y="0" on="1"/>
        <pt x="1656" y="0" on="1"/>
        <pt x="1656" y="170" on="1"/>
        <pt x="1656" y="234" on="0"/>
        <pt x="1622" y="337" on="0"/>
        <pt x="1560" y="410" on="0"/>
        <pt x="1474" y="449" on="0"/>
        <pt x="1423" y="449" on="1"/>
        <pt x="1372" y="449" on="0"/>
        <pt x="1284" y="411" on="0"/>
        <pt x="1220" y="345" on="0"/>
        <pt x="1183" y="257" on="0"/>
        <pt x="1183" y="208" on="1"/>
        <pt x="1183" y="142" on="0"/>
        <pt x="1239" y="69" on="0"/>
        <pt x="1282" y="56" on="1"/>
        <pt x="1262" y="106" on="0"/>
        <pt x="1268" y="158" on="1"/>
        <pt x="1274" y="215" on="0"/>
        <pt x="1346" y="293" on="0"/>
        <pt x="1408" y="293" on="1"/>
        <pt x="1471" y="293" on="0"/>
        <pt x="1541" y="216" on="0"/>
        <pt x="1541" y="158" on="1"/>
        <pt x="1541" y="123" on="0"/>
        <pt x="1512" y="62" on="0"/>
        <pt x="1460" y="17" on="0"/>
        <pt x="1388" y="-9" on="0"/>
        <pt x="1345" y="-9" on="1"/>
        <pt x="1299" y="-9" on="0"/>
        <pt x="1214" y="24" on="0"/>
        <pt x="1148" y="83" on="0"/>
        <pt x="1109" y="167" on="0"/>
        <pt x="1109" y="218" on="1"/>
        <pt x="1109" y="282" on="0"/>
        <pt x="1158" y="390" on="0"/>
        <pt x="1241" y="468" on="0"/>
        <pt x="1352" y="511" on="0"/>
      </contour>
      <contour>
        <pt x="1400" y="232" on="1"/>
        <pt x="1380" y="232" on="0"/>
        <pt x="1348" y="215" on="0"/>
        <pt x="1326" y="186" on="0"/>
        <pt x="1313" y="149" on="0"/>
        <pt x="1312" y="129" on="1"/>
        <pt x="1311" y="108" on="0"/>
        <pt x="1316" y="67" on="0"/>
        <pt x="1324" y="50" on="1"/>
        <pt x="1329" y="48" on="0"/>
        <pt x="1342" y="47" on="0"/>
        <pt x="1347" y="47" on="1"/>
        <pt x="1365" y="47" on="0"/>
        <pt x="1407" y="61" on="0"/>
        <pt x="1444" y="89" on="0"/>
        <pt x="1468" y="130" on="0"/>
        <pt x="1468" y="158" on="1"/>
        <pt x="1468" y="190" on="0"/>
        <pt x="1435" y="232" on="0"/>
      </contour>
      <contour>
        <pt x="344" y="232" on="1"/>
        <pt x="324" y="232" on="0"/>
        <pt x="292" y="215" on="0"/>
        <pt x="270" y="186" on="0"/>
        <pt x="257" y="149" on="0"/>
        <pt x="256" y="129" on="1"/>
        <pt x="255" y="108" on="0"/>
        <pt x="260" y="67" on="0"/>
        <pt x="268" y="50" on="1"/>
        <pt x="278" y="47" on="0"/>
        <pt x="291" y="47" on="1"/>
        <pt x="309" y="47" on="0"/>
        <pt x="351" y="61" on="0"/>
        <pt x="388" y="89" on="0"/>
        <pt x="412" y="130" on="0"/>
        <pt x="412" y="158" on="1"/>
        <pt x="412" y="190" on="0"/>
        <pt x="377" y="232" on="0"/>
      </contour>
      <contour>
        <pt x="392" y="-149" on="1"/>
        <pt x="361" y="-149" on="0"/>
        <pt x="323" y="-187" on="0"/>
        <pt x="323" y="-216" on="1"/>
        <pt x="323" y="-233" on="0"/>
        <pt x="338" y="-261" on="0"/>
        <pt x="364" y="-280" on="0"/>
        <pt x="399" y="-291" on="0"/>
        <pt x="418" y="-291" on="1"/>
        <pt x="435" y="-291" on="0"/>
        <pt x="462" y="-287" on="0"/>
        <pt x="476" y="-282" on="1"/>
        <pt x="475" y="-254" on="0"/>
        <pt x="464" y="-206" on="0"/>
        <pt x="443" y="-170" on="0"/>
        <pt x="412" y="-149" on="0"/>
      </contour>
    </TTGlyph>
    <TTGlyph name="aumatra.tam" xMin="58" yMin="-9" xMax="2316" yMax="785">
      <contour>
        <pt x="875" y="422" on="1"/>
        <pt x="917" y="454" on="0"/>
        <pt x="972" y="462" on="1"/>
        <pt x="980" y="393" on="1"/>
        <pt x="945" y="390" on="0"/>
        <pt x="917" y="368" on="1"/>
      </contour>
      <contour>
        <pt x="798" y="288" on="1"/>
        <pt x="802" y="316" on="0"/>
        <pt x="823" y="366" on="0"/>
        <pt x="839" y="386" on="1"/>
        <pt x="891" y="344" on="1"/>
        <pt x="882" y="330" on="0"/>
        <pt x="868" y="299" on="0"/>
        <pt x="866" y="282" on="1"/>
      </contour>
      <contour>
        <pt x="1023" y="461" on="1"/>
        <pt x="1080" y="453" on="0"/>
        <pt x="1120" y="421" on="1"/>
        <pt x="1079" y="367" on="1"/>
        <pt x="1065" y="378" on="0"/>
        <pt x="1033" y="391" on="0"/>
        <pt x="1016" y="393" on="1"/>
      </contour>
      <contour>
        <pt x="1157" y="385" on="1"/>
        <pt x="1173" y="364" on="0"/>
        <pt x="1194" y="314" on="0"/>
        <pt x="1197" y="287" on="1"/>
        <pt x="1130" y="279" on="1"/>
        <pt x="1127" y="298" on="0"/>
        <pt x="1114" y="327" on="0"/>
        <pt x="1103" y="341" on="1"/>
      </contour>
      <contour>
        <pt x="1119" y="102" on="1"/>
        <pt x="1099" y="87" on="0"/>
        <pt x="1048" y="66" on="0"/>
        <pt x="1022" y="63" on="1"/>
        <pt x="1014" y="130" on="1"/>
        <pt x="1050" y="135" on="0"/>
        <pt x="1077" y="156" on="1"/>
      </contour>
      <contour>
        <pt x="1197" y="236" on="1"/>
        <pt x="1194" y="208" on="0"/>
        <pt x="1172" y="159" on="0"/>
        <pt x="1156" y="139" on="1"/>
        <pt x="1102" y="180" on="1"/>
        <pt x="1124" y="209" on="0"/>
        <pt x="1129" y="244" on="1"/>
      </contour>
      <contour>
        <pt x="838" y="140" on="1"/>
        <pt x="806" y="182" on="0"/>
        <pt x="798" y="238" on="1"/>
        <pt x="866" y="246" on="1"/>
        <pt x="870" y="212" on="0"/>
        <pt x="890" y="182" on="1"/>
      </contour>
      <contour>
        <pt x="971" y="63" on="1"/>
        <pt x="943" y="67" on="0"/>
        <pt x="894" y="88" on="0"/>
        <pt x="874" y="104" on="1"/>
        <pt x="915" y="156" on="1"/>
        <pt x="943" y="135" on="0"/>
        <pt x="979" y="131" on="1"/>
      </contour>
      <contour>
        <pt x="475" y="785" on="1"/>
        <pt x="578" y="785" on="0"/>
        <pt x="690" y="662" on="0"/>
        <pt x="690" y="545" on="1"/>
        <pt x="690" y="0" on="1"/>
        <pt x="620" y="0" on="1"/>
        <pt x="620" y="545" on="1"/>
        <pt x="620" y="640" on="0"/>
        <pt x="541" y="719" on="0"/>
        <pt x="475" y="719" on="1"/>
        <pt x="416" y="719" on="0"/>
        <pt x="295" y="654" on="0"/>
        <pt x="195" y="540" on="0"/>
        <pt x="132" y="386" on="0"/>
        <pt x="132" y="298" on="1"/>
        <pt x="132" y="244" on="0"/>
        <pt x="152" y="163" on="0"/>
        <pt x="185" y="104" on="0"/>
        <pt x="227" y="66" on="0"/>
        <pt x="250" y="57" on="1"/>
        <pt x="240" y="81" on="0"/>
        <pt x="234" y="132" on="0"/>
        <pt x="237" y="158" on="1"/>
        <pt x="242" y="215" on="0"/>
        <pt x="315" y="293" on="0"/>
        <pt x="377" y="293" on="1"/>
        <pt x="440" y="293" on="0"/>
        <pt x="510" y="216" on="0"/>
        <pt x="510" y="158" on="1"/>
        <pt x="510" y="122" on="0"/>
        <pt x="481" y="61" on="0"/>
        <pt x="429" y="16" on="0"/>
        <pt x="356" y="-9" on="0"/>
        <pt x="313" y="-9" on="1"/>
        <pt x="266" y="-9" on="0"/>
        <pt x="175" y="31" on="0"/>
        <pt x="103" y="111" on="0"/>
        <pt x="58" y="231" on="0"/>
        <pt x="58" y="311" on="1"/>
        <pt x="58" y="408" on="0"/>
        <pt x="125" y="581" on="0"/>
        <pt x="239" y="710" on="0"/>
        <pt x="391" y="785" on="0"/>
      </contour>
      <contour>
        <pt x="369" y="232" on="1"/>
        <pt x="349" y="232" on="0"/>
        <pt x="317" y="215" on="0"/>
        <pt x="295" y="186" on="0"/>
        <pt x="282" y="149" on="0"/>
        <pt x="281" y="129" on="1"/>
        <pt x="278" y="85" on="0"/>
        <pt x="293" y="50" on="1"/>
        <pt x="303" y="47" on="0"/>
        <pt x="316" y="47" on="1"/>
        <pt x="334" y="47" on="0"/>
        <pt x="376" y="61" on="0"/>
        <pt x="412" y="89" on="0"/>
        <pt x="436" y="130" on="0"/>
        <pt x="436" y="158" on="1"/>
        <pt x="436" y="190" on="0"/>
        <pt x="401" y="232" on="0"/>
      </contour>
      <contour>
        <pt x="1606" y="511" on="1"/>
        <pt x="1653" y="511" on="0"/>
        <pt x="1731" y="484" on="0"/>
        <pt x="1792" y="437" on="0"/>
        <pt x="1835" y="372" on="0"/>
        <pt x="1848" y="334" on="1"/>
        <pt x="1848" y="503" on="1"/>
        <pt x="2316" y="503" on="1"/>
        <pt x="2316" y="440" on="1"/>
        <pt x="2197" y="440" on="1"/>
        <pt x="2197" y="0" on="1"/>
        <pt x="2128" y="0" on="1"/>
        <pt x="2128" y="440" on="1"/>
        <pt x="1912" y="440" on="1"/>
        <pt x="1912" y="0" on="1"/>
        <pt x="1848" y="0" on="1"/>
        <pt x="1848" y="170" on="1"/>
        <pt x="1848" y="234" on="0"/>
        <pt x="1814" y="337" on="0"/>
        <pt x="1752" y="410" on="0"/>
        <pt x="1666" y="449" on="0"/>
        <pt x="1615" y="449" on="1"/>
        <pt x="1564" y="449" on="0"/>
        <pt x="1476" y="411" on="0"/>
        <pt x="1412" y="345" on="0"/>
        <pt x="1375" y="257" on="0"/>
        <pt x="1375" y="208" on="1"/>
        <pt x="1375" y="142" on="0"/>
        <pt x="1431" y="69" on="0"/>
        <pt x="1474" y="56" on="1"/>
        <pt x="1454" y="106" on="0"/>
        <pt x="1460" y="158" on="1"/>
        <pt x="1466" y="215" on="0"/>
        <pt x="1538" y="293" on="0"/>
        <pt x="1600" y="293" on="1"/>
        <pt x="1663" y="293" on="0"/>
        <pt x="1733" y="216" on="0"/>
        <pt x="1733" y="158" on="1"/>
        <pt x="1733" y="123" on="0"/>
        <pt x="1704" y="62" on="0"/>
        <pt x="1652" y="17" on="0"/>
        <pt x="1580" y="-9" on="0"/>
        <pt x="1537" y="-9" on="1"/>
        <pt x="1491" y="-9" on="0"/>
        <pt x="1406" y="24" on="0"/>
        <pt x="1340" y="83" on="0"/>
        <pt x="1301" y="167" on="0"/>
        <pt x="1301" y="218" on="1"/>
        <pt x="1301" y="282" on="0"/>
        <pt x="1350" y="390" on="0"/>
        <pt x="1433" y="468" on="0"/>
        <pt x="1544" y="511" on="0"/>
      </contour>
      <contour>
        <pt x="1592" y="232" on="1"/>
        <pt x="1572" y="232" on="0"/>
        <pt x="1540" y="215" on="0"/>
        <pt x="1518" y="186" on="0"/>
        <pt x="1505" y="149" on="0"/>
        <pt x="1504" y="129" on="1"/>
        <pt x="1503" y="108" on="0"/>
        <pt x="1508" y="67" on="0"/>
        <pt x="1516" y="50" on="1"/>
        <pt x="1521" y="48" on="0"/>
        <pt x="1534" y="47" on="0"/>
        <pt x="1539" y="47" on="1"/>
        <pt x="1557" y="47" on="0"/>
        <pt x="1599" y="61" on="0"/>
        <pt x="1636" y="89" on="0"/>
        <pt x="1660" y="130" on="0"/>
        <pt x="1660" y="158" on="1"/>
        <pt x="1660" y="190" on="0"/>
        <pt x="1627" y="232" on="0"/>
      </contour>
    </TTGlyph>
    <TTGlyph name="aumatrahalf.tam" xMin="53" yMin="-9" xMax="1068" yMax="511">
      <contour>
        <pt x="358" y="511" on="1"/>
        <pt x="405" y="511" on="0"/>
        <pt x="483" y="484" on="0"/>
        <pt x="544" y="437" on="0"/>
        <pt x="587" y="372" on="0"/>
        <pt x="600" y="334" on="1"/>
        <pt x="600" y="503" on="1"/>
        <pt x="1068" y="503" on="1"/>
        <pt x="1068" y="440" on="1"/>
        <pt x="949" y="440" on="1"/>
        <pt x="949" y="0" on="1"/>
        <pt x="880" y="0" on="1"/>
        <pt x="880" y="440" on="1"/>
        <pt x="664" y="440" on="1"/>
        <pt x="664" y="0" on="1"/>
        <pt x="600" y="0" on="1"/>
        <pt x="600" y="170" on="1"/>
        <pt x="600" y="234" on="0"/>
        <pt x="566" y="337" on="0"/>
        <pt x="504" y="410" on="0"/>
        <pt x="418" y="449" on="0"/>
        <pt x="367" y="449" on="1"/>
        <pt x="316" y="449" on="0"/>
        <pt x="228" y="411" on="0"/>
        <pt x="164" y="345" on="0"/>
        <pt x="127" y="257" on="0"/>
        <pt x="127" y="208" on="1"/>
        <pt x="127" y="142" on="0"/>
        <pt x="183" y="69" on="0"/>
        <pt x="226" y="56" on="1"/>
        <pt x="206" y="106" on="0"/>
        <pt x="212" y="158" on="1"/>
        <pt x="218" y="215" on="0"/>
        <pt x="290" y="293" on="0"/>
        <pt x="352" y="293" on="1"/>
        <pt x="415" y="293" on="0"/>
        <pt x="485" y="216" on="0"/>
        <pt x="485" y="158" on="1"/>
        <pt x="485" y="123" on="0"/>
        <pt x="456" y="62" on="0"/>
        <pt x="404" y="17" on="0"/>
        <pt x="332" y="-9" on="0"/>
        <pt x="289" y="-9" on="1"/>
        <pt x="243" y="-9" on="0"/>
        <pt x="158" y="24" on="0"/>
        <pt x="92" y="83" on="0"/>
        <pt x="53" y="167" on="0"/>
        <pt x="53" y="218" on="1"/>
        <pt x="53" y="282" on="0"/>
        <pt x="102" y="390" on="0"/>
        <pt x="185" y="468" on="0"/>
        <pt x="296" y="511" on="0"/>
      </contour>
      <contour>
        <pt x="344" y="232" on="1"/>
        <pt x="324" y="232" on="0"/>
        <pt x="292" y="215" on="0"/>
        <pt x="270" y="186" on="0"/>
        <pt x="257" y="149" on="0"/>
        <pt x="256" y="129" on="1"/>
        <pt x="255" y="108" on="0"/>
        <pt x="260" y="67" on="0"/>
        <pt x="268" y="50" on="1"/>
        <pt x="273" y="48" on="0"/>
        <pt x="286" y="47" on="0"/>
        <pt x="291" y="47" on="1"/>
        <pt x="309" y="47" on="0"/>
        <pt x="351" y="61" on="0"/>
        <pt x="388" y="89" on="0"/>
        <pt x="412" y="130" on="0"/>
        <pt x="412" y="158" on="1"/>
        <pt x="412" y="190" on="0"/>
        <pt x="379" y="232" on="0"/>
      </contour>
    </TTGlyph>
    <TTGlyph name="backslash" xMin="14" yMin="-72" xMax="339" yMax="730">
      <contour>
        <pt x="14" y="730" on="1"/>
        <pt x="88" y="730" on="1"/>
        <pt x="339" y="-72" on="1"/>
        <pt x="264" y="-72" on="1"/>
      </contour>
    </TTGlyph>
    <TTGlyph name="bar" xMin="101" yMin="-122" xMax="171" yMax="749">
      <contour>
        <pt x="101" y="749" on="1"/>
        <pt x="171" y="749" on="1"/>
        <pt x="171" y="-122" on="1"/>
        <pt x="101" y="-122" on="1"/>
      </contour>
    </TTGlyph>
    <TTGlyph name="braceleft" xMin="75" yMin="-137" xMax="332" yMax="745">
      <contour>
        <pt x="332" y="-137" on="1"/>
        <pt x="274" y="-137" on="0"/>
        <pt x="196" y="-102" on="0"/>
        <pt x="148" y="-40" on="0"/>
        <pt x="128" y="45" on="0"/>
        <pt x="128" y="96" on="1"/>
        <pt x="128" y="188" on="1"/>
        <pt x="128" y="231" on="0"/>
        <pt x="111" y="267" on="0"/>
        <pt x="91" y="267" on="1"/>
        <pt x="75" y="267" on="1"/>
        <pt x="75" y="341" on="1"/>
        <pt x="91" y="341" on="1"/>
        <pt x="111" y="341" on="0"/>
        <pt x="128" y="376" on="0"/>
        <pt x="128" y="420" on="1"/>
        <pt x="128" y="511" on="1"/>
        <pt x="128" y="562" on="0"/>
        <pt x="148" y="648" on="0"/>
        <pt x="196" y="710" on="0"/>
        <pt x="274" y="745" on="0"/>
        <pt x="332" y="745" on="1"/>
        <pt x="332" y="684" on="1"/>
        <pt x="258" y="684" on="0"/>
        <pt x="198" y="599" on="0"/>
        <pt x="198" y="517" on="1"/>
        <pt x="198" y="418" on="1"/>
        <pt x="198" y="371" on="0"/>
        <pt x="169" y="318" on="0"/>
        <pt x="146" y="306" on="1"/>
        <pt x="146" y="302" on="1"/>
        <pt x="169" y="291" on="0"/>
        <pt x="198" y="237" on="0"/>
        <pt x="198" y="190" on="1"/>
        <pt x="198" y="91" on="1"/>
        <pt x="198" y="10" on="0"/>
        <pt x="258" y="-77" on="0"/>
        <pt x="332" y="-77" on="1"/>
      </contour>
    </TTGlyph>
    <TTGlyph name="braceright" xMin="14" yMin="-137" xMax="271" yMax="745">
      <contour>
        <pt x="14" y="-77" on="1"/>
        <pt x="88" y="-77" on="0"/>
        <pt x="148" y="10" on="0"/>
        <pt x="148" y="91" on="1"/>
        <pt x="148" y="190" on="1"/>
        <pt x="148" y="237" on="0"/>
        <pt x="177" y="291" on="0"/>
        <pt x="200" y="302" on="1"/>
        <pt x="200" y="306" on="1"/>
        <pt x="177" y="318" on="0"/>
        <pt x="148" y="371" on="0"/>
        <pt x="148" y="418" on="1"/>
        <pt x="148" y="517" on="1"/>
        <pt x="148" y="599" on="0"/>
        <pt x="88" y="684" on="0"/>
        <pt x="14" y="684" on="1"/>
        <pt x="14" y="745" on="1"/>
        <pt x="72" y="745" on="0"/>
        <pt x="150" y="710" on="0"/>
        <pt x="198" y="648" on="0"/>
        <pt x="218" y="562" on="0"/>
        <pt x="218" y="511" on="1"/>
        <pt x="218" y="420" on="1"/>
        <pt x="218" y="376" on="0"/>
        <pt x="235" y="341" on="0"/>
        <pt x="255" y="341" on="1"/>
        <pt x="271" y="341" on="1"/>
        <pt x="271" y="267" on="1"/>
        <pt x="255" y="267" on="1"/>
        <pt x="235" y="267" on="0"/>
        <pt x="218" y="231" on="0"/>
        <pt x="218" y="188" on="1"/>
        <pt x="218" y="96" on="1"/>
        <pt x="218" y="45" on="0"/>
        <pt x="198" y="-40" on="0"/>
        <pt x="150" y="-102" on="0"/>
        <pt x="72" y="-137" on="0"/>
        <pt x="14" y="-137" on="1"/>
      </contour>
    </TTGlyph>
    <TTGlyph name="bracketleft" xMin="101" yMin="-95" xMax="290" yMax="727">
      <contour>
        <pt x="101" y="727" on="1"/>
        <pt x="290" y="727" on="1"/>
        <pt x="290" y="665" on="1"/>
        <pt x="171" y="665" on="1"/>
        <pt x="171" y="-32" on="1"/>
        <pt x="290" y="-32" on="1"/>
        <pt x="290" y="-95" on="1"/>
        <pt x="101" y="-95" on="1"/>
      </contour>
    </TTGlyph>
    <TTGlyph name="bracketright" xMin="-8" yMin="-95" xMax="181" yMax="727">
      <contour>
        <pt x="181" y="-95" on="1"/>
        <pt x="-8" y="-95" on="1"/>
        <pt x="-8" y="-32" on="1"/>
        <pt x="111" y="-32" on="1"/>
        <pt x="111" y="665" on="1"/>
        <pt x="-8" y="665" on="1"/>
        <pt x="-8" y="727" on="1"/>
        <pt x="181" y="727" on="1"/>
      </contour>
    </TTGlyph>
    <TTGlyph name="ca.tam" xMin="45" yMin="-9" xMax="629" yMax="503">
      <contour>
        <pt x="235" y="278" on="1"/>
        <pt x="413" y="278" on="1"/>
        <pt x="413" y="440" on="1"/>
        <pt x="235" y="440" on="1"/>
      </contour>
      <contour>
        <pt x="191" y="229" on="1"/>
        <pt x="153" y="229" on="0"/>
        <pt x="118" y="199" on="0"/>
        <pt x="118" y="172" on="1"/>
        <pt x="118" y="146" on="0"/>
        <pt x="147" y="101" on="0"/>
        <pt x="196" y="69" on="0"/>
        <pt x="262" y="51" on="0"/>
        <pt x="299" y="51" on="1"/>
        <pt x="360" y="51" on="0"/>
        <pt x="413" y="111" on="0"/>
        <pt x="413" y="173" on="1"/>
        <pt x="413" y="229" on="1"/>
      </contour>
      <contour>
        <pt x="629" y="503" on="1"/>
        <pt x="629" y="440" on="1"/>
        <pt x="483" y="440" on="1"/>
        <pt x="483" y="278" on="1"/>
        <pt x="605" y="278" on="1"/>
        <pt x="605" y="229" on="1"/>
        <pt x="483" y="229" on="1"/>
        <pt x="483" y="171" on="1"/>
        <pt x="483" y="82" on="0"/>
        <pt x="395" y="-9" on="0"/>
        <pt x="305" y="-9" on="1"/>
        <pt x="249" y="-9" on="0"/>
        <pt x="154" y="22" on="0"/>
        <pt x="84" y="75" on="0"/>
        <pt x="45" y="143" on="0"/>
        <pt x="45" y="180" on="1"/>
        <pt x="45" y="227" on="0"/>
        <pt x="106" y="278" on="0"/>
        <pt x="157" y="278" on="1"/>
        <pt x="169" y="278" on="1"/>
        <pt x="169" y="503" on="1"/>
      </contour>
    </TTGlyph>
    <TTGlyph name="cansv.tam" xMin="45" yMin="-9" xMax="629" yMax="806">
      <contour>
        <pt x="235" y="278" on="1"/>
        <pt x="413" y="278" on="1"/>
        <pt x="413" y="440" on="1"/>
        <pt x="235" y="440" on="1"/>
      </contour>
      <contour>
        <pt x="191" y="229" on="1"/>
        <pt x="153" y="229" on="0"/>
        <pt x="118" y="199" on="0"/>
        <pt x="118" y="172" on="1"/>
        <pt x="118" y="146" on="0"/>
        <pt x="147" y="101" on="0"/>
        <pt x="196" y="69" on="0"/>
        <pt x="262" y="51" on="0"/>
        <pt x="299" y="51" on="1"/>
        <pt x="360" y="51" on="0"/>
        <pt x="413" y="111" on="0"/>
        <pt x="413" y="173" on="1"/>
        <pt x="413" y="229" on="1"/>
      </contour>
      <contour>
        <pt x="629" y="503" on="1"/>
        <pt x="629" y="440" on="1"/>
        <pt x="483" y="440" on="1"/>
        <pt x="483" y="278" on="1"/>
        <pt x="605" y="278" on="1"/>
        <pt x="605" y="229" on="1"/>
        <pt x="483" y="229" on="1"/>
        <pt x="483" y="171" on="1"/>
        <pt x="483" y="82" on="0"/>
        <pt x="395" y="-9" on="0"/>
        <pt x="305" y="-9" on="1"/>
        <pt x="249" y="-9" on="0"/>
        <pt x="154" y="22" on="0"/>
        <pt x="84" y="75" on="0"/>
        <pt x="45" y="143" on="0"/>
        <pt x="45" y="180" on="1"/>
        <pt x="45" y="227" on="0"/>
        <pt x="106" y="278" on="0"/>
        <pt x="157" y="278" on="1"/>
        <pt x="169" y="278" on="1"/>
        <pt x="169" y="503" on="1"/>
      </contour>
      <contour>
        <pt x="392" y="806" on="1"/>
        <pt x="416" y="806" on="0"/>
        <pt x="459" y="791" on="0"/>
        <pt x="492" y="762" on="0"/>
        <pt x="511" y="721" on="0"/>
        <pt x="511" y="694" on="1"/>
        <pt x="511" y="667" on="0"/>
        <pt x="492" y="625" on="0"/>
        <pt x="459" y="597" on="0"/>
        <pt x="416" y="582" on="0"/>
        <pt x="392" y="582" on="1"/>
        <pt x="344" y="582" on="0"/>
        <pt x="274" y="640" on="0"/>
        <pt x="274" y="694" on="1"/>
        <pt x="274" y="721" on="0"/>
        <pt x="293" y="762" on="0"/>
        <pt x="325" y="791" on="0"/>
        <pt x="368" y="806" on="0"/>
      </contour>
      <contour>
        <pt x="392" y="754" on="1"/>
        <pt x="366" y="754" on="0"/>
        <pt x="340" y="721" on="0"/>
        <pt x="340" y="694" on="1"/>
        <pt x="340" y="666" on="0"/>
        <pt x="366" y="634" on="0"/>
        <pt x="392" y="634" on="1"/>
        <pt x="418" y="634" on="0"/>
        <pt x="445" y="666" on="0"/>
        <pt x="445" y="694" on="1"/>
        <pt x="445" y="721" on="0"/>
        <pt x="418" y="754" on="0"/>
      </contour>
    </TTGlyph>
    <TTGlyph name="ci.tam" xMin="45" yMin="-9" xMax="797" yMax="785">
      <contour>
        <pt x="429" y="503" on="1"/>
        <pt x="402" y="521" on="0"/>
        <pt x="371" y="579" on="0"/>
        <pt x="371" y="614" on="1"/>
        <pt x="371" y="650" on="0"/>
        <pt x="399" y="712" on="0"/>
        <pt x="452" y="758" on="0"/>
        <pt x="526" y="785" on="0"/>
        <pt x="572" y="785" on="1"/>
        <pt x="683" y="785" on="0"/>
        <pt x="797" y="641" on="0"/>
        <pt x="797" y="517" on="1"/>
        <pt x="797" y="0" on="1"/>
        <pt x="728" y="0" on="1"/>
        <pt x="728" y="517" on="1"/>
        <pt x="728" y="611" on="0"/>
        <pt x="657" y="719" on="0"/>
        <pt x="577" y="719" on="1"/>
        <pt x="545" y="719" on="0"/>
        <pt x="496" y="698" on="0"/>
        <pt x="463" y="662" on="0"/>
        <pt x="445" y="615" on="0"/>
        <pt x="445" y="589" on="1"/>
        <pt x="445" y="542" on="0"/>
        <pt x="470" y="503" on="1"/>
        <pt x="629" y="503" on="1"/>
        <pt x="629" y="440" on="1"/>
        <pt x="483" y="440" on="1"/>
        <pt x="483" y="278" on="1"/>
        <pt x="605" y="278" on="1"/>
        <pt x="605" y="229" on="1"/>
        <pt x="483" y="229" on="1"/>
        <pt x="483" y="171" on="1"/>
        <pt x="483" y="82" on="0"/>
        <pt x="395" y="-9" on="0"/>
        <pt x="305" y="-9" on="1"/>
        <pt x="249" y="-9" on="0"/>
        <pt x="154" y="22" on="0"/>
        <pt x="84" y="75" on="0"/>
        <pt x="45" y="143" on="0"/>
        <pt x="45" y="180" on="1"/>
        <pt x="45" y="227" on="0"/>
        <pt x="106" y="278" on="0"/>
        <pt x="157" y="278" on="1"/>
        <pt x="169" y="278" on="1"/>
        <pt x="169" y="503" on="1"/>
      </contour>
      <contour>
        <pt x="191" y="229" on="1"/>
        <pt x="153" y="229" on="0"/>
        <pt x="118" y="199" on="0"/>
        <pt x="118" y="172" on="1"/>
        <pt x="118" y="146" on="0"/>
        <pt x="147" y="101" on="0"/>
        <pt x="196" y="69" on="0"/>
        <pt x="262" y="51" on="0"/>
        <pt x="299" y="51" on="1"/>
        <pt x="360" y="51" on="0"/>
        <pt x="413" y="111" on="0"/>
        <pt x="413" y="173" on="1"/>
        <pt x="413" y="229" on="1"/>
      </contour>
      <contour>
        <pt x="235" y="278" on="1"/>
        <pt x="413" y="278" on="1"/>
        <pt x="413" y="440" on="1"/>
        <pt x="235" y="440" on="1"/>
      </contour>
    </TTGlyph>
    <TTGlyph name="cii.tam" xMin="45" yMin="-9" xMax="699" yMax="813">
      <contour>
        <pt x="522" y="813" on="1"/>
        <pt x="561" y="813" on="0"/>
        <pt x="627" y="790" on="0"/>
        <pt x="673" y="752" on="0"/>
        <pt x="699" y="701" on="0"/>
        <pt x="699" y="674" on="1"/>
        <pt x="699" y="624" on="0"/>
        <pt x="632" y="566" on="0"/>
        <pt x="578" y="566" on="1"/>
        <pt x="526" y="566" on="0"/>
        <pt x="469" y="624" on="0"/>
        <pt x="469" y="663" on="1"/>
        <pt x="469" y="689" on="0"/>
        <pt x="492" y="736" on="0"/>
        <pt x="511" y="756" on="1"/>
        <pt x="487" y="753" on="0"/>
        <pt x="443" y="733" on="0"/>
        <pt x="410" y="700" on="0"/>
        <pt x="391" y="655" on="0"/>
        <pt x="391" y="629" on="1"/>
        <pt x="391" y="588" on="0"/>
        <pt x="433" y="527" on="0"/>
        <pt x="475" y="503" on="1"/>
        <pt x="629" y="503" on="1"/>
        <pt x="629" y="440" on="1"/>
        <pt x="483" y="440" on="1"/>
        <pt x="483" y="278" on="1"/>
        <pt x="605" y="278" on="1"/>
        <pt x="605" y="229" on="1"/>
        <pt x="483" y="229" on="1"/>
        <pt x="483" y="171" on="1"/>
        <pt x="483" y="82" on="0"/>
        <pt x="395" y="-9" on="0"/>
        <pt x="305" y="-9" on="1"/>
        <pt x="249" y="-9" on="0"/>
        <pt x="154" y="22" on="0"/>
        <pt x="84" y="75" on="0"/>
        <pt x="45" y="143" on="0"/>
        <pt x="45" y="180" on="1"/>
        <pt x="45" y="227" on="0"/>
        <pt x="106" y="278" on="0"/>
        <pt x="157" y="278" on="1"/>
        <pt x="169" y="278" on="1"/>
        <pt x="169" y="503" on="1"/>
        <pt x="424" y="503" on="1"/>
        <pt x="378" y="523" on="0"/>
        <pt x="325" y="598" on="0"/>
        <pt x="325" y="646" on="1"/>
        <pt x="325" y="681" on="0"/>
        <pt x="355" y="742" on="0"/>
        <pt x="408" y="787" on="0"/>
        <pt x="480" y="813" on="0"/>
      </contour>
      <contour>
        <pt x="191" y="229" on="1"/>
        <pt x="153" y="229" on="0"/>
        <pt x="118" y="199" on="0"/>
        <pt x="118" y="172" on="1"/>
        <pt x="118" y="146" on="0"/>
        <pt x="147" y="101" on="0"/>
        <pt x="196" y="69" on="0"/>
        <pt x="262" y="51" on="0"/>
        <pt x="299" y="51" on="1"/>
        <pt x="360" y="51" on="0"/>
        <pt x="413" y="111" on="0"/>
        <pt x="413" y="173" on="1"/>
        <pt x="413" y="229" on="1"/>
      </contour>
      <contour>
        <pt x="235" y="278" on="1"/>
        <pt x="413" y="278" on="1"/>
        <pt x="413" y="440" on="1"/>
        <pt x="235" y="440" on="1"/>
      </contour>
      <contour>
        <pt x="547" y="757" on="1"/>
        <pt x="533" y="737" on="0"/>
        <pt x="516" y="697" on="0"/>
        <pt x="516" y="676" on="1"/>
        <pt x="516" y="650" on="0"/>
        <pt x="547" y="618" on="0"/>
        <pt x="573" y="618" on="1"/>
        <pt x="600" y="618" on="0"/>
        <pt x="631" y="653" on="0"/>
        <pt x="631" y="677" on="1"/>
        <pt x="631" y="708" on="0"/>
        <pt x="583" y="750" on="0"/>
      </contour>
    </TTGlyph>
    <TTGlyph name="colon" xMin="53" yMin="-9" xMax="161" yMax="480">
      <contour>
        <pt x="105" y="480" on="1"/>
        <pt x="128" y="480" on="0"/>
        <pt x="161" y="449" on="0"/>
        <pt x="161" y="426" on="1"/>
        <pt x="161" y="403" on="0"/>
        <pt x="128" y="373" on="0"/>
        <pt x="105" y="373" on="1"/>
        <pt x="82" y="373" on="0"/>
        <pt x="53" y="403" on="0"/>
        <pt x="53" y="426" on="1"/>
        <pt x="53" y="449" on="0"/>
        <pt x="82" y="480" on="0"/>
      </contour>
      <contour>
        <pt x="105" y="99" on="1"/>
        <pt x="128" y="99" on="0"/>
        <pt x="161" y="67" on="0"/>
        <pt x="161" y="44" on="1"/>
        <pt x="161" y="21" on="0"/>
        <pt x="128" y="-9" on="0"/>
        <pt x="105" y="-9" on="1"/>
        <pt x="82" y="-9" on="0"/>
        <pt x="53" y="21" on="0"/>
        <pt x="53" y="44" on="1"/>
        <pt x="53" y="67" on="0"/>
        <pt x="82" y="99" on="0"/>
      </contour>
    </TTGlyph>
    <TTGlyph name="comma" xMin="49" yMin="-109" xMax="184" yMax="94">
      <contour>
        <pt x="121" y="94" on="1"/>
        <pt x="150" y="94" on="0"/>
        <pt x="184" y="50" on="0"/>
        <pt x="184" y="17" on="1"/>
        <pt x="184" y="-16" on="0"/>
        <pt x="143" y="-87" on="0"/>
        <pt x="101" y="-109" on="1"/>
        <pt x="49" y="-82" on="1"/>
        <pt x="76" y="-68" on="0"/>
        <pt x="114" y="-31" on="0"/>
        <pt x="119" y="-5" on="1"/>
        <pt x="98" y="-3" on="0"/>
        <pt x="70" y="22" on="0"/>
        <pt x="70" y="43" on="1"/>
        <pt x="70" y="64" on="0"/>
        <pt x="98" y="94" on="0"/>
      </contour>
    </TTGlyph>
    <TTGlyph name="cu.tam" xMin="45" yMin="-9" xMax="783" yMax="503">
      <contour>
        <pt x="629" y="503" on="1"/>
        <pt x="629" y="440" on="1"/>
        <pt x="483" y="440" on="1"/>
        <pt x="483" y="278" on="1"/>
        <pt x="783" y="278" on="1"/>
        <pt x="783" y="229" on="1"/>
        <pt x="690" y="229" on="1"/>
        <pt x="690" y="0" on="1"/>
        <pt x="620" y="0" on="1"/>
        <pt x="620" y="229" on="1"/>
        <pt x="483" y="229" on="1"/>
        <pt x="483" y="171" on="1"/>
        <pt x="483" y="82" on="0"/>
        <pt x="395" y="-9" on="0"/>
        <pt x="305" y="-9" on="1"/>
        <pt x="249" y="-9" on="0"/>
        <pt x="154" y="22" on="0"/>
        <pt x="84" y="75" on="0"/>
        <pt x="45" y="143" on="0"/>
        <pt x="45" y="180" on="1"/>
        <pt x="45" y="227" on="0"/>
        <pt x="106" y="278" on="0"/>
        <pt x="157" y="278" on="1"/>
        <pt x="169" y="278" on="1"/>
        <pt x="169" y="503" on="1"/>
      </contour>
      <contour>
        <pt x="191" y="229" on="1"/>
        <pt x="153" y="229" on="0"/>
        <pt x="118" y="199" on="0"/>
        <pt x="118" y="172" on="1"/>
        <pt x="118" y="146" on="0"/>
        <pt x="147" y="101" on="0"/>
        <pt x="196" y="69" on="0"/>
        <pt x="262" y="51" on="0"/>
        <pt x="299" y="51" on="1"/>
        <pt x="360" y="51" on="0"/>
        <pt x="413" y="111" on="0"/>
        <pt x="413" y="173" on="1"/>
        <pt x="413" y="229" on="1"/>
      </contour>
      <contour>
        <pt x="235" y="278" on="1"/>
        <pt x="413" y="278" on="1"/>
        <pt x="413" y="440" on="1"/>
        <pt x="235" y="440" on="1"/>
      </contour>
    </TTGlyph>
    <TTGlyph name="cuu.tam" xMin="60" yMin="-324" xMax="1175" yMax="511">
      <contour>
        <pt x="844" y="503" on="1"/>
        <pt x="844" y="440" on="1"/>
        <pt x="697" y="440" on="1"/>
        <pt x="697" y="278" on="1"/>
        <pt x="1023" y="278" on="1"/>
        <pt x="1023" y="229" on="1"/>
        <pt x="911" y="229" on="1"/>
        <pt x="911" y="29" on="1"/>
        <pt x="928" y="74" on="0"/>
        <pt x="995" y="118" on="0"/>
        <pt x="1039" y="118" on="1"/>
        <pt x="1070" y="118" on="0"/>
        <pt x="1121" y="94" on="0"/>
        <pt x="1156" y="53" on="0"/>
        <pt x="1175" y="-2" on="0"/>
        <pt x="1175" y="-33" on="1"/>
        <pt x="1175" y="-92" on="0"/>
        <pt x="1124" y="-197" on="0"/>
        <pt x="1016" y="-277" on="0"/>
        <pt x="847" y="-324" on="0"/>
        <pt x="729" y="-324" on="1"/>
        <pt x="591" y="-324" on="0"/>
        <pt x="348" y="-255" on="0"/>
        <pt x="166" y="-126" on="0"/>
        <pt x="60" y="59" on="0"/>
        <pt x="60" y="174" on="1"/>
        <pt x="60" y="217" on="0"/>
        <pt x="70" y="298" on="0"/>
        <pt x="90" y="379" on="0"/>
        <pt x="120" y="464" on="0"/>
        <pt x="140" y="511" on="1"/>
        <pt x="204" y="492" on="1"/>
        <pt x="184" y="445" on="0"/>
        <pt x="156" y="364" on="0"/>
        <pt x="139" y="287" on="0"/>
        <pt x="131" y="213" on="0"/>
        <pt x="131" y="174" on="1"/>
        <pt x="131" y="65" on="0"/>
        <pt x="231" y="-97" on="0"/>
        <pt x="397" y="-205" on="0"/>
        <pt x="613" y="-258" on="0"/>
        <pt x="729" y="-258" on="1"/>
        <pt x="823" y="-258" on="0"/>
        <pt x="964" y="-223" on="0"/>
        <pt x="1057" y="-163" on="0"/>
        <pt x="1103" y="-82" on="0"/>
        <pt x="1103" y="-37" on="1"/>
        <pt x="1103" y="6" on="0"/>
        <pt x="1063" y="57" on="0"/>
        <pt x="1026" y="57" on="1"/>
        <pt x="1003" y="57" on="0"/>
        <pt x="961" y="33" on="0"/>
        <pt x="929" y="-6" on="0"/>
        <pt x="911" y="-59" on="0"/>
        <pt x="911" y="-87" on="1"/>
        <pt x="841" y="-87" on="1"/>
        <pt x="841" y="229" on="1"/>
        <pt x="697" y="229" on="1"/>
        <pt x="697" y="171" on="1"/>
        <pt x="697" y="82" on="0"/>
        <pt x="608" y="-9" on="0"/>
        <pt x="520" y="-9" on="1"/>
        <pt x="467" y="-9" on="0"/>
        <pt x="372" y="23" on="0"/>
        <pt x="301" y="76" on="0"/>
        <pt x="259" y="145" on="0"/>
        <pt x="259" y="183" on="1"/>
        <pt x="259" y="228" on="0"/>
        <pt x="323" y="278" on="0"/>
        <pt x="373" y="278" on="1"/>
        <pt x="385" y="278" on="1"/>
        <pt x="385" y="503" on="1"/>
      </contour>
      <contour>
        <pt x="406" y="229" on="1"/>
        <pt x="366" y="229" on="0"/>
        <pt x="331" y="199" on="0"/>
        <pt x="331" y="172" on="1"/>
        <pt x="331" y="146" on="0"/>
        <pt x="360" y="101" on="0"/>
        <pt x="411" y="69" on="0"/>
        <pt x="477" y="51" on="0"/>
        <pt x="515" y="51" on="1"/>
        <pt x="628" y="51" on="0"/>
        <pt x="628" y="173" on="1"/>
        <pt x="628" y="229" on="1"/>
      </contour>
      <contour>
        <pt x="450" y="278" on="1"/>
        <pt x="628" y="278" on="1"/>
        <pt x="628" y="440" on="1"/>
        <pt x="450" y="440" on="1"/>
      </contour>
    </TTGlyph>
    <TTGlyph name="cvir.tam" xMin="45" yMin="-9" xMax="629" yMax="736">
      <contour>
        <pt x="235" y="278" on="1"/>
        <pt x="413" y="278" on="1"/>
        <pt x="413" y="440" on="1"/>
        <pt x="235" y="440" on="1"/>
      </contour>
      <contour>
        <pt x="191" y="229" on="1"/>
        <pt x="153" y="229" on="0"/>
        <pt x="118" y="199" on="0"/>
        <pt x="118" y="172" on="1"/>
        <pt x="118" y="146" on="0"/>
        <pt x="147" y="101" on="0"/>
        <pt x="196" y="69" on="0"/>
        <pt x="262" y="51" on="0"/>
        <pt x="299" y="51" on="1"/>
        <pt x="360" y="51" on="0"/>
        <pt x="413" y="111" on="0"/>
        <pt x="413" y="173" on="1"/>
        <pt x="413" y="229" on="1"/>
      </contour>
      <contour>
        <pt x="629" y="503" on="1"/>
        <pt x="629" y="440" on="1"/>
        <pt x="483" y="440" on="1"/>
        <pt x="483" y="278" on="1"/>
        <pt x="605" y="278" on="1"/>
        <pt x="605" y="229" on="1"/>
        <pt x="483" y="229" on="1"/>
        <pt x="483" y="171" on="1"/>
        <pt x="483" y="82" on="0"/>
        <pt x="395" y="-9" on="0"/>
        <pt x="305" y="-9" on="1"/>
        <pt x="249" y="-9" on="0"/>
        <pt x="154" y="22" on="0"/>
        <pt x="84" y="75" on="0"/>
        <pt x="45" y="143" on="0"/>
        <pt x="45" y="180" on="1"/>
        <pt x="45" y="227" on="0"/>
        <pt x="106" y="278" on="0"/>
        <pt x="157" y="278" on="1"/>
        <pt x="169" y="278" on="1"/>
        <pt x="169" y="503" on="1"/>
      </contour>
      <contour>
        <pt x="341" y="686" on="1"/>
        <pt x="341" y="707" on="0"/>
        <pt x="369" y="736" on="0"/>
        <pt x="389" y="736" on="1"/>
        <pt x="410" y="736" on="0"/>
        <pt x="439" y="707" on="0"/>
        <pt x="439" y="686" on="1"/>
        <pt x="439" y="666" on="0"/>
        <pt x="410" y="638" on="0"/>
        <pt x="389" y="638" on="1"/>
        <pt x="369" y="638" on="0"/>
        <pt x="341" y="666" on="0"/>
      </contour>
    </TTGlyph>
    <TTGlyph name="dollar" xMin="75" yMin="-104" xMax="555" yMax="726">
      <contour>
        <pt x="401" y="329" on="1"/>
        <pt x="471" y="309" on="0"/>
        <pt x="555" y="232" on="0"/>
        <pt x="555" y="165" on="1"/>
        <pt x="555" y="132" on="0"/>
        <pt x="526" y="73" on="0"/>
        <pt x="471" y="26" on="0"/>
        <pt x="393" y="-4" on="0"/>
        <pt x="344" y="-7" on="1"/>
        <pt x="344" y="-104" on="1"/>
        <pt x="284" y="-104" on="1"/>
        <pt x="284" y="-8" on="1"/>
        <pt x="241" y="-5" on="0"/>
        <pt x="165" y="24" on="0"/>
        <pt x="108" y="73" on="0"/>
        <pt x="75" y="144" on="0"/>
        <pt x="75" y="191" on="1"/>
        <pt x="144" y="191" on="1"/>
        <pt x="146" y="130" on="0"/>
        <pt x="220" y="59" on="0"/>
        <pt x="284" y="51" on="1"/>
        <pt x="284" y="299" on="1"/>
        <pt x="253" y="310" on="1"/>
        <pt x="170" y="336" on="0"/>
        <pt x="92" y="411" on="0"/>
        <pt x="92" y="474" on="1"/>
        <pt x="92" y="508" on="0"/>
        <pt x="120" y="563" on="0"/>
        <pt x="171" y="605" on="0"/>
        <pt x="242" y="630" on="0"/>
        <pt x="284" y="634" on="1"/>
        <pt x="284" y="726" on="1"/>
        <pt x="344" y="726" on="1"/>
        <pt x="344" y="635" on="1"/>
        <pt x="422" y="629" on="0"/>
        <pt x="523" y="548" on="0"/>
        <pt x="532" y="474" on="1"/>
        <pt x="462" y="474" on="1"/>
        <pt x="455" y="519" on="0"/>
        <pt x="396" y="573" on="0"/>
        <pt x="344" y="578" on="1"/>
        <pt x="344" y="346" on="1"/>
      </contour>
      <contour>
        <pt x="480" y="163" on="1"/>
        <pt x="480" y="202" on="0"/>
        <pt x="431" y="254" on="0"/>
        <pt x="385" y="268" on="1"/>
        <pt x="344" y="280" on="1"/>
        <pt x="344" y="51" on="1"/>
        <pt x="410" y="58" on="0"/>
        <pt x="480" y="123" on="0"/>
      </contour>
      <contour>
        <pt x="165" y="472" on="1"/>
        <pt x="165" y="434" on="0"/>
        <pt x="210" y="391" on="0"/>
        <pt x="257" y="376" on="1"/>
        <pt x="284" y="366" on="1"/>
        <pt x="284" y="577" on="1"/>
        <pt x="226" y="569" on="0"/>
        <pt x="165" y="512" on="0"/>
      </contour>
    </TTGlyph>
    <TTGlyph name="e.tam" xMin="53" yMin="-9" xMax="764" yMax="503">
      <contour>
        <pt x="764" y="503" on="1"/>
        <pt x="764" y="440" on="1"/>
        <pt x="647" y="440" on="1"/>
        <pt x="647" y="0" on="1"/>
        <pt x="577" y="0" on="1"/>
        <pt x="577" y="440" on="1"/>
        <pt x="430" y="440" on="1"/>
        <pt x="362" y="440" on="0"/>
        <pt x="251" y="404" on="0"/>
        <pt x="171" y="342" on="0"/>
        <pt x="127" y="257" on="0"/>
        <pt x="127" y="208" on="1"/>
        <pt x="127" y="142" on="0"/>
        <pt x="183" y="69" on="0"/>
        <pt x="226" y="56" on="1"/>
        <pt x="206" y="106" on="0"/>
        <pt x="212" y="158" on="1"/>
        <pt x="218" y="215" on="0"/>
        <pt x="290" y="293" on="0"/>
        <pt x="352" y="293" on="1"/>
        <pt x="415" y="293" on="0"/>
        <pt x="485" y="216" on="0"/>
        <pt x="485" y="158" on="1"/>
        <pt x="485" y="123" on="0"/>
        <pt x="456" y="62" on="0"/>
        <pt x="404" y="17" on="0"/>
        <pt x="332" y="-9" on="0"/>
        <pt x="289" y="-9" on="1"/>
        <pt x="243" y="-9" on="0"/>
        <pt x="158" y="24" on="0"/>
        <pt x="92" y="83" on="0"/>
        <pt x="53" y="166" on="0"/>
        <pt x="53" y="216" on="1"/>
        <pt x="53" y="277" on="0"/>
        <pt x="106" y="382" on="0"/>
        <pt x="204" y="459" on="0"/>
        <pt x="344" y="503" on="0"/>
        <pt x="430" y="503" on="1"/>
      </contour>
      <contour>
        <pt x="344" y="232" on="1"/>
        <pt x="324" y="232" on="0"/>
        <pt x="292" y="215" on="0"/>
        <pt x="270" y="186" on="0"/>
        <pt x="257" y="149" on="0"/>
        <pt x="256" y="129" on="1"/>
        <pt x="255" y="108" on="0"/>
        <pt x="260" y="67" on="0"/>
        <pt x="268" y="50" on="1"/>
        <pt x="280" y="47" on="0"/>
        <pt x="291" y="47" on="1"/>
        <pt x="309" y="47" on="0"/>
        <pt x="351" y="61" on="0"/>
        <pt x="388" y="89" on="0"/>
        <pt x="412" y="130" on="0"/>
        <pt x="412" y="158" on="1"/>
        <pt x="412" y="190" on="0"/>
        <pt x="379" y="232" on="0"/>
      </contour>
    </TTGlyph>
    <TTGlyph name="ee.tam" xMin="53" yMin="-250" xMax="764" yMax="503">
      <contour>
        <pt x="764" y="503" on="1"/>
        <pt x="764" y="440" on="1"/>
        <pt x="647" y="440" on="1"/>
        <pt x="647" y="-55" on="1"/>
        <pt x="409" y="-250" on="1"/>
        <pt x="344" y="-215" on="1"/>
        <pt x="577" y="-21" on="1"/>
        <pt x="577" y="440" on="1"/>
        <pt x="430" y="440" on="1"/>
        <pt x="362" y="440" on="0"/>
        <pt x="251" y="404" on="0"/>
        <pt x="171" y="342" on="0"/>
        <pt x="127" y="257" on="0"/>
        <pt x="127" y="208" on="1"/>
        <pt x="127" y="142" on="0"/>
        <pt x="183" y="69" on="0"/>
        <pt x="226" y="56" on="1"/>
        <pt x="206" y="106" on="0"/>
        <pt x="212" y="158" on="1"/>
        <pt x="218" y="215" on="0"/>
        <pt x="290" y="293" on="0"/>
        <pt x="352" y="293" on="1"/>
        <pt x="415" y="293" on="0"/>
        <pt x="485" y="216" on="0"/>
        <pt x="485" y="158" on="1"/>
        <pt x="485" y="123" on="0"/>
        <pt x="456" y="62" on="0"/>
        <pt x="404" y="17" on="0"/>
        <pt x="332" y="-9" on="0"/>
        <pt x="289" y="-9" on="1"/>
        <pt x="243" y="-9" on="0"/>
        <pt x="158" y="24" on="0"/>
        <pt x="92" y="83" on="0"/>
        <pt x="53" y="166" on="0"/>
        <pt x="53" y="216" on="1"/>
        <pt x="53" y="277" on="0"/>
        <pt x="106" y="382" on="0"/>
        <pt x="204" y="459" on="0"/>
        <pt x="344" y="503" on="0"/>
        <pt x="430" y="503" on="1"/>
      </contour>
      <contour>
        <pt x="344" y="232" on="1"/>
        <pt x="324" y="232" on="0"/>
        <pt x="292" y="215" on="0"/>
        <pt x="270" y="186" on="0"/>
        <pt x="257" y="149" on="0"/>
        <pt x="256" y="129" on="1"/>
        <pt x="255" y="108" on="0"/>
        <pt x="260" y="67" on="0"/>
        <pt x="268" y="50" on="1"/>
        <pt x="280" y="47" on="0"/>
        <pt x="291" y="47" on="1"/>
        <pt x="309" y="47" on="0"/>
        <pt x="351" y="61" on="0"/>
        <pt x="388" y="89" on="0"/>
        <pt x="412" y="130" on="0"/>
        <pt x="412" y="158" on="1"/>
        <pt x="412" y="190" on="0"/>
        <pt x="379" y="232" on="0"/>
      </contour>
    </TTGlyph>
    <TTGlyph name="eematra.tam" xMin="51" yMin="-9" xMax="589" yMax="785">
      <contour>
        <pt x="387" y="785" on="1"/>
        <pt x="432" y="785" on="0"/>
        <pt x="506" y="759" on="0"/>
        <pt x="559" y="715" on="0"/>
        <pt x="589" y="657" on="0"/>
        <pt x="589" y="625" on="1"/>
        <pt x="589" y="596" on="0"/>
        <pt x="568" y="551" on="0"/>
        <pt x="532" y="519" on="0"/>
        <pt x="482" y="502" on="0"/>
        <pt x="453" y="502" on="1"/>
        <pt x="424" y="502" on="0"/>
        <pt x="377" y="520" on="0"/>
        <pt x="343" y="551" on="0"/>
        <pt x="325" y="592" on="0"/>
        <pt x="325" y="616" on="1"/>
        <pt x="325" y="650" on="0"/>
        <pt x="354" y="708" on="0"/>
        <pt x="378" y="732" on="1"/>
        <pt x="335" y="728" on="0"/>
        <pt x="245" y="676" on="0"/>
        <pt x="171" y="586" on="0"/>
        <pt x="124" y="463" on="0"/>
        <pt x="124" y="387" on="1"/>
        <pt x="124" y="310" on="0"/>
        <pt x="161" y="197" on="0"/>
        <pt x="218" y="118" on="0"/>
        <pt x="289" y="70" on="0"/>
        <pt x="324" y="59" on="1"/>
        <pt x="314" y="85" on="0"/>
        <pt x="309" y="137" on="0"/>
        <pt x="312" y="163" on="1"/>
        <pt x="319" y="221" on="0"/>
        <pt x="393" y="296" on="0"/>
        <pt x="456" y="296" on="1"/>
        <pt x="486" y="296" on="0"/>
        <pt x="535" y="275" on="0"/>
        <pt x="570" y="237" on="0"/>
        <pt x="589" y="187" on="0"/>
        <pt x="589" y="158" on="1"/>
        <pt x="589" y="122" on="0"/>
        <pt x="559" y="61" on="0"/>
        <pt x="506" y="16" on="0"/>
        <pt x="434" y="-9" on="0"/>
        <pt x="392" y="-9" on="1"/>
        <pt x="336" y="-9" on="0"/>
        <pt x="215" y="41" on="0"/>
        <pt x="115" y="141" on="0"/>
        <pt x="51" y="289" on="0"/>
        <pt x="51" y="387" on="1"/>
        <pt x="51" y="475" on="0"/>
        <pt x="107" y="621" on="0"/>
        <pt x="201" y="726" on="0"/>
        <pt x="322" y="785" on="0"/>
      </contour>
      <contour>
        <pt x="354" y="132" on="1"/>
        <pt x="351" y="87" on="0"/>
        <pt x="365" y="51" on="1"/>
        <pt x="371" y="49" on="0"/>
        <pt x="387" y="47" on="0"/>
        <pt x="395" y="47" on="1"/>
        <pt x="414" y="47" on="0"/>
        <pt x="457" y="62" on="0"/>
        <pt x="492" y="90" on="0"/>
        <pt x="515" y="131" on="0"/>
        <pt x="515" y="158" on="1"/>
        <pt x="515" y="192" on="0"/>
        <pt x="478" y="235" on="0"/>
        <pt x="446" y="235" on="1"/>
        <pt x="425" y="235" on="0"/>
        <pt x="392" y="217" on="0"/>
        <pt x="369" y="189" on="0"/>
        <pt x="355" y="151" on="0"/>
      </contour>
      <contour>
        <pt x="519" y="626" on="1"/>
        <pt x="519" y="669" on="0"/>
        <pt x="456" y="722" on="0"/>
        <pt x="412" y="729" on="1"/>
        <pt x="394" y="707" on="0"/>
        <pt x="374" y="654" on="0"/>
        <pt x="374" y="630" on="1"/>
        <pt x="374" y="595" on="0"/>
        <pt x="415" y="552" on="0"/>
        <pt x="447" y="552" on="1"/>
        <pt x="478" y="552" on="0"/>
        <pt x="519" y="591" on="0"/>
      </contour>
    </TTGlyph>
    <TTGlyph name="eight" xMin="56" yMin="-11" xMax="555" yMax="636">
      <contour>
        <pt x="304" y="636" on="1"/>
        <pt x="353" y="636" on="0"/>
        <pt x="437" y="610" on="0"/>
        <pt x="497" y="563" on="0"/>
        <pt x="531" y="500" on="0"/>
        <pt x="531" y="463" on="1"/>
        <pt x="531" y="437" on="0"/>
        <pt x="513" y="389" on="0"/>
        <pt x="478" y="350" on="0"/>
        <pt x="426" y="323" on="0"/>
        <pt x="392" y="319" on="1"/>
        <pt x="413" y="311" on="1"/>
        <pt x="482" y="285" on="0"/>
        <pt x="555" y="215" on="0"/>
        <pt x="555" y="155" on="1"/>
        <pt x="555" y="80" on="0"/>
        <pt x="423" y="-11" on="0"/>
        <pt x="304" y="-11" on="1"/>
        <pt x="250" y="-11" on="0"/>
        <pt x="159" y="16" on="0"/>
        <pt x="93" y="63" on="0"/>
        <pt x="56" y="128" on="0"/>
        <pt x="56" y="167" on="1"/>
        <pt x="56" y="229" on="0"/>
        <pt x="136" y="307" on="0"/>
        <pt x="202" y="318" on="1"/>
        <pt x="180" y="327" on="0"/>
        <pt x="135" y="355" on="0"/>
        <pt x="99" y="393" on="0"/>
        <pt x="77" y="441" on="0"/>
        <pt x="77" y="471" on="1"/>
        <pt x="77" y="507" on="0"/>
        <pt x="108" y="568" on="0"/>
        <pt x="166" y="611" on="0"/>
        <pt x="250" y="636" on="0"/>
      </contour>
      <contour>
        <pt x="272" y="291" on="1"/>
        <pt x="208" y="284" on="0"/>
        <pt x="131" y="216" on="0"/>
        <pt x="131" y="173" on="1"/>
        <pt x="131" y="144" on="0"/>
        <pt x="157" y="101" on="0"/>
        <pt x="204" y="71" on="0"/>
        <pt x="267" y="56" on="0"/>
        <pt x="304" y="56" on="1"/>
        <pt x="386" y="56" on="0"/>
        <pt x="479" y="108" on="0"/>
        <pt x="479" y="153" on="1"/>
        <pt x="479" y="187" on="0"/>
        <pt x="428" y="233" on="0"/>
        <pt x="386" y="248" on="1"/>
      </contour>
      <contour>
        <pt x="153" y="469" on="1"/>
        <pt x="153" y="434" on="0"/>
        <pt x="199" y="392" on="0"/>
        <pt x="241" y="377" on="1"/>
        <pt x="316" y="348" on="1"/>
        <pt x="346" y="349" on="0"/>
        <pt x="396" y="366" on="0"/>
        <pt x="434" y="395" on="0"/>
        <pt x="455" y="436" on="0"/>
        <pt x="455" y="460" on="1"/>
        <pt x="455" y="484" on="0"/>
        <pt x="433" y="524" on="0"/>
        <pt x="393" y="554" on="0"/>
        <pt x="338" y="570" on="0"/>
        <pt x="304" y="570" on="1"/>
        <pt x="272" y="570" on="0"/>
        <pt x="216" y="554" on="0"/>
        <pt x="176" y="526" on="0"/>
        <pt x="153" y="490" on="0"/>
      </contour>
    </TTGlyph>
    <TTGlyph name="eighttamil" xMin="32" yMin="-9" xMax="794" yMax="511">
      <contour>
        <pt x="359" y="511" on="1"/>
        <pt x="418" y="511" on="0"/>
        <pt x="510" y="469" on="0"/>
        <pt x="574" y="400" on="0"/>
        <pt x="608" y="312" on="0"/>
        <pt x="609" y="265" on="1"/>
        <pt x="724" y="265" on="1"/>
        <pt x="724" y="506" on="1"/>
        <pt x="794" y="506" on="1"/>
        <pt x="794" y="0" on="1"/>
        <pt x="724" y="0" on="1"/>
        <pt x="724" y="215" on="1"/>
        <pt x="606" y="215" on="1"/>
        <pt x="600" y="169" on="0"/>
        <pt x="560" y="88" on="0"/>
        <pt x="489" y="27" on="0"/>
        <pt x="387" y="-9" on="0"/>
        <pt x="318" y="-9" on="1"/>
        <pt x="252" y="-9" on="0"/>
        <pt x="146" y="22" on="0"/>
        <pt x="72" y="73" on="0"/>
        <pt x="32" y="138" on="0"/>
        <pt x="32" y="173" on="1"/>
        <pt x="32" y="221" on="0"/>
        <pt x="98" y="265" on="0"/>
        <pt x="152" y="265" on="1"/>
        <pt x="237" y="265" on="1"/>
        <pt x="210" y="280" on="0"/>
        <pt x="174" y="333" on="0"/>
        <pt x="174" y="368" on="1"/>
        <pt x="174" y="399" on="0"/>
        <pt x="201" y="452" on="0"/>
        <pt x="251" y="490" on="0"/>
        <pt x="318" y="511" on="0"/>
      </contour>
      <contour>
        <pt x="318" y="54" on="1"/>
        <pt x="415" y="54" on="0"/>
        <pt x="519" y="140" on="0"/>
        <pt x="531" y="215" on="1"/>
        <pt x="168" y="215" on="1"/>
        <pt x="137" y="215" on="0"/>
        <pt x="107" y="188" on="0"/>
        <pt x="107" y="165" on="1"/>
        <pt x="107" y="145" on="0"/>
        <pt x="134" y="105" on="0"/>
        <pt x="188" y="74" on="0"/>
        <pt x="267" y="54" on="0"/>
      </contour>
      <contour>
        <pt x="248" y="355" on="1"/>
        <pt x="248" y="320" on="0"/>
        <pt x="299" y="267" on="0"/>
        <pt x="350" y="265" on="1"/>
        <pt x="535" y="265" on="1"/>
        <pt x="534" y="304" on="0"/>
        <pt x="508" y="371" on="0"/>
        <pt x="463" y="421" on="0"/>
        <pt x="401" y="449" on="0"/>
        <pt x="364" y="449" on="1"/>
        <pt x="310" y="449" on="0"/>
        <pt x="248" y="397" on="0"/>
      </contour>
    </TTGlyph>
    <TTGlyph name="ematra.tam" xMin="58" yMin="-9" xMax="690" yMax="785">
      <contour>
        <pt x="475" y="785" on="1"/>
        <pt x="578" y="785" on="0"/>
        <pt x="690" y="662" on="0"/>
        <pt x="690" y="545" on="1"/>
        <pt x="690" y="0" on="1"/>
        <pt x="620" y="0" on="1"/>
        <pt x="620" y="545" on="1"/>
        <pt x="620" y="640" on="0"/>
        <pt x="541" y="719" on="0"/>
        <pt x="475" y="719" on="1"/>
        <pt x="416" y="719" on="0"/>
        <pt x="295" y="654" on="0"/>
        <pt x="195" y="540" on="0"/>
        <pt x="132" y="386" on="0"/>
        <pt x="132" y="298" on="1"/>
        <pt x="132" y="244" on="0"/>
        <pt x="152" y="163" on="0"/>
        <pt x="185" y="104" on="0"/>
        <pt x="227" y="66" on="0"/>
        <pt x="250" y="57" on="1"/>
        <pt x="240" y="81" on="0"/>
        <pt x="234" y="132" on="0"/>
        <pt x="237" y="158" on="1"/>
        <pt x="242" y="215" on="0"/>
        <pt x="315" y="293" on="0"/>
        <pt x="377" y="293" on="1"/>
        <pt x="440" y="293" on="0"/>
        <pt x="510" y="216" on="0"/>
        <pt x="510" y="158" on="1"/>
        <pt x="510" y="122" on="0"/>
        <pt x="481" y="61" on="0"/>
        <pt x="429" y="16" on="0"/>
        <pt x="356" y="-9" on="0"/>
        <pt x="313" y="-9" on="1"/>
        <pt x="266" y="-9" on="0"/>
        <pt x="175" y="31" on="0"/>
        <pt x="103" y="111" on="0"/>
        <pt x="58" y="231" on="0"/>
        <pt x="58" y="311" on="1"/>
        <pt x="58" y="408" on="0"/>
        <pt x="125" y="581" on="0"/>
        <pt x="239" y="710" on="0"/>
        <pt x="391" y="785" on="0"/>
      </contour>
      <contour>
        <pt x="369" y="232" on="1"/>
        <pt x="349" y="232" on="0"/>
        <pt x="317" y="215" on="0"/>
        <pt x="295" y="186" on="0"/>
        <pt x="282" y="149" on="0"/>
        <pt x="281" y="129" on="1"/>
        <pt x="278" y="85" on="0"/>
        <pt x="293" y="50" on="1"/>
        <pt x="303" y="47" on="0"/>
        <pt x="316" y="47" on="1"/>
        <pt x="334" y="47" on="0"/>
        <pt x="376" y="61" on="0"/>
        <pt x="412" y="89" on="0"/>
        <pt x="436" y="130" on="0"/>
        <pt x="436" y="158" on="1"/>
        <pt x="436" y="190" on="0"/>
        <pt x="401" y="232" on="0"/>
      </contour>
    </TTGlyph>
    <TTGlyph name="emdash" xMin="55" yMin="273" xMax="662" yMax="336">
      <contour>
        <pt x="662" y="336" on="1"/>
        <pt x="662" y="273" on="1"/>
        <pt x="55" y="273" on="1"/>
        <pt x="55" y="336" on="1"/>
      </contour>
    </TTGlyph>
    <TTGlyph name="endash" xMin="55" yMin="273" xMax="407" yMax="336">
      <contour>
        <pt x="407" y="336" on="1"/>
        <pt x="407" y="273" on="1"/>
        <pt x="55" y="273" on="1"/>
        <pt x="55" y="336" on="1"/>
      </contour>
    </TTGlyph>
    <TTGlyph name="equals" xMin="79" yMin="128" xMax="404" yMax="389">
      <contour>
        <pt x="404" y="191" on="1"/>
        <pt x="404" y="128" on="1"/>
        <pt x="79" y="128" on="1"/>
        <pt x="79" y="191" on="1"/>
      </contour>
      <contour>
        <pt x="404" y="389" on="1"/>
        <pt x="404" y="325" on="1"/>
        <pt x="79" y="325" on="1"/>
        <pt x="79" y="389" on="1"/>
      </contour>
    </TTGlyph>
    <TTGlyph name="exclam" xMin="85" yMin="-9" xMax="193" yMax="644">
      <contour>
        <pt x="175" y="644" on="1"/>
        <pt x="167" y="176" on="1"/>
        <pt x="110" y="176" on="1"/>
        <pt x="102" y="644" on="1"/>
      </contour>
      <contour>
        <pt x="138" y="99" on="1"/>
        <pt x="161" y="99" on="0"/>
        <pt x="193" y="67" on="0"/>
        <pt x="193" y="44" on="1"/>
        <pt x="193" y="21" on="0"/>
        <pt x="161" y="-9" on="0"/>
        <pt x="138" y="-9" on="1"/>
        <pt x="115" y="-9" on="0"/>
        <pt x="85" y="21" on="0"/>
        <pt x="85" y="44" on="1"/>
        <pt x="85" y="67" on="0"/>
        <pt x="115" y="99" on="0"/>
      </contour>
    </TTGlyph>
    <TTGlyph name="five" xMin="66" yMin="-113" xMax="501" yMax="540">
      <contour>
        <pt x="472" y="540" on="1"/>
        <pt x="472" y="474" on="1"/>
        <pt x="200" y="474" on="1"/>
        <pt x="183" y="293" on="1"/>
        <pt x="206" y="298" on="0"/>
        <pt x="253" y="303" on="0"/>
        <pt x="277" y="303" on="1"/>
        <pt x="381" y="303" on="0"/>
        <pt x="501" y="197" on="0"/>
        <pt x="501" y="104" on="1"/>
        <pt x="501" y="57" on="0"/>
        <pt x="466" y="-22" on="0"/>
        <pt x="403" y="-80" on="0"/>
        <pt x="317" y="-113" on="0"/>
        <pt x="266" y="-113" on="1"/>
        <pt x="226" y="-113" on="0"/>
        <pt x="154" y="-89" on="0"/>
        <pt x="99" y="-43" on="0"/>
        <pt x="66" y="26" on="0"/>
        <pt x="66" y="71" on="1"/>
        <pt x="137" y="71" on="1"/>
        <pt x="137" y="13" on="0"/>
        <pt x="208" y="-47" on="0"/>
        <pt x="268" y="-47" on="1"/>
        <pt x="303" y="-47" on="0"/>
        <pt x="361" y="-24" on="0"/>
        <pt x="403" y="16" on="0"/>
        <pt x="427" y="72" on="0"/>
        <pt x="427" y="104" on="1"/>
        <pt x="427" y="168" on="0"/>
        <pt x="345" y="243" on="0"/>
        <pt x="264" y="243" on="1"/>
        <pt x="105" y="243" on="1"/>
        <pt x="133" y="540" on="1"/>
      </contour>
    </TTGlyph>
    <TTGlyph name="fivetamil" xMin="60" yMin="-250" xMax="986" yMax="510">
      <contour>
        <pt x="822" y="503" on="1"/>
        <pt x="822" y="440" on="1"/>
        <pt x="702" y="440" on="1"/>
        <pt x="702" y="204" on="1"/>
        <pt x="720" y="249" on="0"/>
        <pt x="788" y="293" on="0"/>
        <pt x="833" y="293" on="1"/>
        <pt x="864" y="293" on="0"/>
        <pt x="920" y="266" on="0"/>
        <pt x="962" y="216" on="0"/>
        <pt x="986" y="145" on="0"/>
        <pt x="986" y="102" on="1"/>
        <pt x="986" y="21" on="0"/>
        <pt x="923" y="-110" on="0"/>
        <pt x="810" y="-201" on="0"/>
        <pt x="654" y="-250" on="0"/>
        <pt x="560" y="-250" on="1"/>
        <pt x="449" y="-250" on="0"/>
        <pt x="265" y="-193" on="0"/>
        <pt x="133" y="-85" on="0"/>
        <pt x="60" y="72" on="0"/>
        <pt x="60" y="173" on="1"/>
        <pt x="60" y="263" on="0"/>
        <pt x="111" y="429" on="0"/>
        <pt x="154" y="510" on="1"/>
        <pt x="220" y="492" on="1"/>
        <pt x="178" y="408" on="0"/>
        <pt x="134" y="255" on="0"/>
        <pt x="134" y="173" on="1"/>
        <pt x="134" y="86" on="0"/>
        <pt x="193" y="-47" on="0"/>
        <pt x="304" y="-137" on="0"/>
        <pt x="461" y="-183" on="0"/>
        <pt x="560" y="-183" on="1"/>
        <pt x="632" y="-183" on="0"/>
        <pt x="760" y="-145" on="0"/>
        <pt x="856" y="-72" on="0"/>
        <pt x="912" y="34" on="0"/>
        <pt x="912" y="102" on="1"/>
        <pt x="912" y="164" on="0"/>
        <pt x="862" y="232" on="0"/>
        <pt x="818" y="232" on="1"/>
        <pt x="794" y="232" on="0"/>
        <pt x="752" y="208" on="0"/>
        <pt x="720" y="166" on="0"/>
        <pt x="702" y="108" on="0"/>
        <pt x="702" y="74" on="1"/>
        <pt x="702" y="0" on="1"/>
        <pt x="633" y="0" on="1"/>
        <pt x="633" y="440" on="1"/>
        <pt x="421" y="440" on="1"/>
        <pt x="421" y="0" on="1"/>
        <pt x="351" y="0" on="1"/>
        <pt x="351" y="503" on="1"/>
      </contour>
    </TTGlyph>
    <TTGlyph name="four" xMin="25" yMin="-104" xMax="529" yMax="541">
      <contour>
        <pt x="421" y="541" on="1"/>
        <pt x="421" y="117" on="1"/>
        <pt x="529" y="117" on="1"/>
        <pt x="529" y="55" on="1"/>
        <pt x="421" y="55" on="1"/>
        <pt x="421" y="-104" on="1"/>
        <pt x="349" y="-104" on="1"/>
        <pt x="349" y="55" on="1"/>
        <pt x="25" y="55" on="1"/>
        <pt x="25" y="111" on="1"/>
        <pt x="354" y="541" on="1"/>
      </contour>
      <contour>
        <pt x="107" y="111" on="1"/>
        <pt x="351" y="111" on="1"/>
        <pt x="351" y="425" on="1"/>
      </contour>
    </TTGlyph>
    <TTGlyph name="fourtamil" xMin="45" yMin="-9" xMax="745" yMax="503">
      <contour>
        <pt x="745" y="503" on="1"/>
        <pt x="745" y="238" on="1"/>
        <pt x="725" y="238" on="1"/>
        <pt x="725" y="229" on="1"/>
        <pt x="483" y="229" on="1"/>
        <pt x="483" y="171" on="1"/>
        <pt x="483" y="82" on="0"/>
        <pt x="396" y="-9" on="0"/>
        <pt x="305" y="-9" on="1"/>
        <pt x="249" y="-9" on="0"/>
        <pt x="154" y="22" on="0"/>
        <pt x="84" y="75" on="0"/>
        <pt x="45" y="143" on="0"/>
        <pt x="45" y="180" on="1"/>
        <pt x="45" y="227" on="0"/>
        <pt x="107" y="278" on="0"/>
        <pt x="158" y="278" on="1"/>
        <pt x="170" y="278" on="1"/>
        <pt x="170" y="503" on="1"/>
        <pt x="572" y="503" on="1"/>
        <pt x="572" y="440" on="1"/>
        <pt x="483" y="440" on="1"/>
        <pt x="483" y="278" on="1"/>
        <pt x="675" y="278" on="1"/>
        <pt x="675" y="503" on="1"/>
      </contour>
      <contour>
        <pt x="192" y="229" on="1"/>
        <pt x="154" y="229" on="0"/>
        <pt x="119" y="199" on="0"/>
        <pt x="119" y="172" on="1"/>
        <pt x="119" y="146" on="0"/>
        <pt x="147" y="101" on="0"/>
        <pt x="197" y="69" on="0"/>
        <pt x="262" y="51" on="0"/>
        <pt x="300" y="51" on="1"/>
        <pt x="360" y="51" on="0"/>
        <pt x="413" y="111" on="0"/>
        <pt x="413" y="173" on="1"/>
        <pt x="413" y="229" on="1"/>
      </contour>
      <contour>
        <pt x="236" y="278" on="1"/>
        <pt x="413" y="278" on="1"/>
        <pt x="413" y="440" on="1"/>
        <pt x="236" y="440" on="1"/>
      </contour>
    </TTGlyph>
    <TTGlyph name="greater" xMin="47" yMin="40" xMax="411" yMax="569">
      <contour>
        <pt x="97" y="569" on="1"/>
        <pt x="411" y="338" on="1"/>
        <pt x="411" y="271" on="1"/>
        <pt x="97" y="40" on="1"/>
        <pt x="47" y="100" on="1"/>
        <pt x="333" y="304" on="1"/>
        <pt x="47" y="511" on="1"/>
      </contour>
    </TTGlyph>
    <TTGlyph name="ha.tam" xMin="54" yMin="-318" xMax="1569" yMax="511">
      <contour>
        <pt x="1075" y="511" on="1"/>
        <pt x="1127" y="511" on="0"/>
        <pt x="1189" y="455" on="0"/>
        <pt x="1202" y="408" on="1"/>
        <pt x="1223" y="462" on="0"/>
        <pt x="1299" y="511" on="0"/>
        <pt x="1355" y="511" on="1"/>
        <pt x="1401" y="511" on="0"/>
        <pt x="1479" y="467" on="0"/>
        <pt x="1536" y="387" on="0"/>
        <pt x="1569" y="278" on="0"/>
        <pt x="1569" y="213" on="1"/>
        <pt x="1569" y="32" on="0"/>
        <pt x="1374" y="-162" on="0"/>
        <pt x="1193" y="-162" on="1"/>
        <pt x="177" y="-162" on="1"/>
        <pt x="152" y="-162" on="0"/>
        <pt x="123" y="-185" on="0"/>
        <pt x="123" y="-208" on="1"/>
        <pt x="123" y="-232" on="0"/>
        <pt x="151" y="-271" on="0"/>
        <pt x="173" y="-288" on="1"/>
        <pt x="124" y="-318" on="1"/>
        <pt x="97" y="-296" on="0"/>
        <pt x="54" y="-234" on="0"/>
        <pt x="54" y="-196" on="1"/>
        <pt x="54" y="-156" on="0"/>
        <pt x="108" y="-99" on="0"/>
        <pt x="167" y="-99" on="1"/>
        <pt x="1193" y="-99" on="1"/>
        <pt x="1274" y="-99" on="0"/>
        <pt x="1388" y="-51" on="0"/>
        <pt x="1461" y="32" on="0"/>
        <pt x="1495" y="146" on="0"/>
        <pt x="1495" y="212" on="1"/>
        <pt x="1495" y="266" on="0"/>
        <pt x="1472" y="354" on="0"/>
        <pt x="1434" y="415" on="0"/>
        <pt x="1383" y="449" on="0"/>
        <pt x="1355" y="449" on="1"/>
        <pt x="1308" y="449" on="0"/>
        <pt x="1254" y="376" on="0"/>
        <pt x="1254" y="306" on="1"/>
        <pt x="1254" y="0" on="1"/>
        <pt x="1185" y="0" on="1"/>
        <pt x="1185" y="305" on="1"/>
        <pt x="1185" y="376" on="0"/>
        <pt x="1133" y="447" on="0"/>
        <pt x="1084" y="449" on="1"/>
        <pt x="1035" y="449" on="0"/>
        <pt x="982" y="376" on="0"/>
        <pt x="982" y="306" on="1"/>
        <pt x="982" y="0" on="1"/>
        <pt x="634" y="0" on="1"/>
        <pt x="577" y="33" on="1"/>
        <pt x="600" y="76" on="0"/>
        <pt x="623" y="173" on="0"/>
        <pt x="623" y="222" on="1"/>
        <pt x="623" y="267" on="0"/>
        <pt x="594" y="349" on="0"/>
        <pt x="535" y="412" on="0"/>
        <pt x="448" y="449" on="0"/>
        <pt x="390" y="449" on="1"/>
        <pt x="337" y="449" on="0"/>
        <pt x="243" y="413" on="0"/>
        <pt x="173" y="349" on="0"/>
        <pt x="133" y="261" on="0"/>
        <pt x="133" y="208" on="1"/>
        <pt x="133" y="143" on="0"/>
        <pt x="190" y="69" on="0"/>
        <pt x="232" y="56" on="1"/>
        <pt x="210" y="106" on="0"/>
        <pt x="218" y="158" on="1"/>
        <pt x="221" y="186" on="0"/>
        <pt x="242" y="236" on="0"/>
        <pt x="278" y="272" on="0"/>
        <pt x="327" y="293" on="0"/>
        <pt x="358" y="293" on="1"/>
        <pt x="420" y="293" on="0"/>
        <pt x="491" y="216" on="0"/>
        <pt x="491" y="158" on="1"/>
        <pt x="491" y="123" on="0"/>
        <pt x="462" y="62" on="0"/>
        <pt x="409" y="17" on="0"/>
        <pt x="337" y="-9" on="0"/>
        <pt x="294" y="-9" on="1"/>
        <pt x="248" y="-9" on="0"/>
        <pt x="163" y="24" on="0"/>
        <pt x="98" y="83" on="0"/>
        <pt x="59" y="166" on="0"/>
        <pt x="59" y="216" on="1"/>
        <pt x="59" y="282" on="0"/>
        <pt x="110" y="391" on="0"/>
        <pt x="200" y="469" on="0"/>
        <pt x="321" y="511" on="0"/>
        <pt x="391" y="511" on="1"/>
        <pt x="465" y="511" on="0"/>
        <pt x="579" y="465" on="0"/>
        <pt x="657" y="387" on="0"/>
        <pt x="698" y="285" on="0"/>
        <pt x="698" y="230" on="1"/>
        <pt x="698" y="182" on="0"/>
        <pt x="681" y="101" on="0"/>
        <pt x="665" y="63" on="1"/>
        <pt x="912" y="63" on="1"/>
        <pt x="912" y="306" on="1"/>
        <pt x="912" y="408" on="0"/>
        <pt x="996" y="511" on="0"/>
      </contour>
      <contour>
        <pt x="350" y="232" on="1"/>
        <pt x="330" y="232" on="0"/>
        <pt x="298" y="215" on="0"/>
        <pt x="276" y="186" on="0"/>
        <pt x="263" y="149" on="0"/>
        <pt x="262" y="129" on="1"/>
        <pt x="259" y="86" on="0"/>
        <pt x="273" y="50" on="1"/>
        <pt x="278" y="48" on="0"/>
        <pt x="292" y="47" on="0"/>
        <pt x="297" y="47" on="1"/>
        <pt x="315" y="47" on="0"/>
        <pt x="357" y="61" on="0"/>
        <pt x="393" y="89" on="0"/>
        <pt x="417" y="130" on="0"/>
        <pt x="417" y="158" on="1"/>
        <pt x="417" y="190" on="0"/>
        <pt x="384" y="232" on="0"/>
      </contour>
    </TTGlyph>
    <TTGlyph name="hansv.tam" xMin="40" yMin="-318" xMax="1555" yMax="812">
      <contour>
        <pt x="1061" y="511" on="1"/>
        <pt x="1113" y="511" on="0"/>
        <pt x="1175" y="455" on="0"/>
        <pt x="1188" y="408" on="1"/>
        <pt x="1209" y="462" on="0"/>
        <pt x="1285" y="511" on="0"/>
        <pt x="1341" y="511" on="1"/>
        <pt x="1387" y="511" on="0"/>
        <pt x="1465" y="467" on="0"/>
        <pt x="1522" y="387" on="0"/>
        <pt x="1555" y="278" on="0"/>
        <pt x="1555" y="213" on="1"/>
        <pt x="1555" y="32" on="0"/>
        <pt x="1360" y="-162" on="0"/>
        <pt x="1179" y="-162" on="1"/>
        <pt x="163" y="-162" on="1"/>
        <pt x="138" y="-162" on="0"/>
        <pt x="109" y="-185" on="0"/>
        <pt x="109" y="-208" on="1"/>
        <pt x="109" y="-232" on="0"/>
        <pt x="137" y="-271" on="0"/>
        <pt x="159" y="-288" on="1"/>
        <pt x="110" y="-318" on="1"/>
        <pt x="83" y="-296" on="0"/>
        <pt x="40" y="-234" on="0"/>
        <pt x="40" y="-196" on="1"/>
        <pt x="40" y="-156" on="0"/>
        <pt x="94" y="-99" on="0"/>
        <pt x="153" y="-99" on="1"/>
        <pt x="1179" y="-99" on="1"/>
        <pt x="1260" y="-99" on="0"/>
        <pt x="1374" y="-51" on="0"/>
        <pt x="1447" y="32" on="0"/>
        <pt x="1481" y="146" on="0"/>
        <pt x="1481" y="212" on="1"/>
        <pt x="1481" y="266" on="0"/>
        <pt x="1458" y="354" on="0"/>
        <pt x="1420" y="415" on="0"/>
        <pt x="1369" y="449" on="0"/>
        <pt x="1341" y="449" on="1"/>
        <pt x="1294" y="449" on="0"/>
        <pt x="1240" y="376" on="0"/>
        <pt x="1240" y="306" on="1"/>
        <pt x="1240" y="0" on="1"/>
        <pt x="1171" y="0" on="1"/>
        <pt x="1171" y="305" on="1"/>
        <pt x="1171" y="376" on="0"/>
        <pt x="1119" y="447" on="0"/>
        <pt x="1070" y="449" on="1"/>
        <pt x="1021" y="449" on="0"/>
        <pt x="968" y="376" on="0"/>
        <pt x="968" y="306" on="1"/>
        <pt x="968" y="0" on="1"/>
        <pt x="620" y="0" on="1"/>
        <pt x="563" y="33" on="1"/>
        <pt x="586" y="76" on="0"/>
        <pt x="609" y="173" on="0"/>
        <pt x="609" y="222" on="1"/>
        <pt x="609" y="267" on="0"/>
        <pt x="580" y="349" on="0"/>
        <pt x="521" y="412" on="0"/>
        <pt x="434" y="449" on="0"/>
        <pt x="376" y="449" on="1"/>
        <pt x="323" y="449" on="0"/>
        <pt x="229" y="413" on="0"/>
        <pt x="159" y="349" on="0"/>
        <pt x="119" y="261" on="0"/>
        <pt x="119" y="208" on="1"/>
        <pt x="119" y="143" on="0"/>
        <pt x="176" y="69" on="0"/>
        <pt x="218" y="56" on="1"/>
        <pt x="196" y="106" on="0"/>
        <pt x="204" y="158" on="1"/>
        <pt x="207" y="186" on="0"/>
        <pt x="228" y="236" on="0"/>
        <pt x="264" y="272" on="0"/>
        <pt x="313" y="293" on="0"/>
        <pt x="344" y="293" on="1"/>
        <pt x="406" y="293" on="0"/>
        <pt x="477" y="216" on="0"/>
        <pt x="477" y="158" on="1"/>
        <pt x="477" y="123" on="0"/>
        <pt x="448" y="62" on="0"/>
        <pt x="395" y="17" on="0"/>
        <pt x="323" y="-9" on="0"/>
        <pt x="280" y="-9" on="1"/>
        <pt x="234" y="-9" on="0"/>
        <pt x="149" y="24" on="0"/>
        <pt x="84" y="83" on="0"/>
        <pt x="45" y="166" on="0"/>
        <pt x="45" y="216" on="1"/>
        <pt x="45" y="282" on="0"/>
        <pt x="96" y="391" on="0"/>
        <pt x="186" y="469" on="0"/>
        <pt x="307" y="511" on="0"/>
        <pt x="377" y="511" on="1"/>
        <pt x="451" y="511" on="0"/>
        <pt x="565" y="465" on="0"/>
        <pt x="643" y="387" on="0"/>
        <pt x="684" y="285" on="0"/>
        <pt x="684" y="230" on="1"/>
        <pt x="684" y="182" on="0"/>
        <pt x="667" y="101" on="0"/>
        <pt x="651" y="63" on="1"/>
        <pt x="898" y="63" on="1"/>
        <pt x="898" y="306" on="1"/>
        <pt x="898" y="408" on="0"/>
        <pt x="982" y="511" on="0"/>
      </contour>
      <contour>
        <pt x="336" y="232" on="1"/>
        <pt x="316" y="232" on="0"/>
        <pt x="284" y="215" on="0"/>
        <pt x="262" y="186" on="0"/>
        <pt x="249" y="149" on="0"/>
        <pt x="248" y="129" on="1"/>
        <pt x="245" y="86" on="0"/>
        <pt x="259" y="50" on="1"/>
        <pt x="264" y="48" on="0"/>
        <pt x="278" y="47" on="0"/>
        <pt x="283" y="47" on="1"/>
        <pt x="301" y="47" on="0"/>
        <pt x="343" y="61" on="0"/>
        <pt x="379" y="89" on="0"/>
        <pt x="403" y="130" on="0"/>
        <pt x="403" y="158" on="1"/>
        <pt x="403" y="190" on="0"/>
        <pt x="370" y="232" on="0"/>
      </contour>
      <contour>
        <pt x="765" y="812" on="1"/>
        <pt x="789" y="812" on="0"/>
        <pt x="832" y="797" on="0"/>
        <pt x="865" y="768" on="0"/>
        <pt x="884" y="727" on="0"/>
        <pt x="884" y="700" on="1"/>
        <pt x="884" y="673" on="0"/>
        <pt x="865" y="631" on="0"/>
        <pt x="832" y="603" on="0"/>
        <pt x="789" y="588" on="0"/>
        <pt x="765" y="588" on="1"/>
        <pt x="717" y="588" on="0"/>
        <pt x="647" y="646" on="0"/>
        <pt x="647" y="700" on="1"/>
        <pt x="647" y="727" on="0"/>
        <pt x="666" y="768" on="0"/>
        <pt x="698" y="797" on="0"/>
        <pt x="741" y="812" on="0"/>
      </contour>
      <contour>
        <pt x="765" y="760" on="1"/>
        <pt x="739" y="760" on="0"/>
        <pt x="713" y="727" on="0"/>
        <pt x="713" y="700" on="1"/>
        <pt x="713" y="672" on="0"/>
        <pt x="739" y="640" on="0"/>
        <pt x="765" y="640" on="1"/>
        <pt x="791" y="640" on="0"/>
        <pt x="818" y="672" on="0"/>
        <pt x="818" y="700" on="1"/>
        <pt x="818" y="727" on="0"/>
        <pt x="791" y="760" on="0"/>
      </contour>
    </TTGlyph>
    <TTGlyph name="hi.tam" xMin="54" yMin="-318" xMax="1782" yMax="785">
      <contour>
        <pt x="1075" y="511" on="1"/>
        <pt x="1127" y="511" on="0"/>
        <pt x="1189" y="455" on="0"/>
        <pt x="1202" y="408" on="1"/>
        <pt x="1223" y="462" on="0"/>
        <pt x="1299" y="511" on="0"/>
        <pt x="1355" y="511" on="1"/>
        <pt x="1371" y="511" on="0"/>
        <pt x="1386" y="508" on="1"/>
        <pt x="1367" y="530" on="0"/>
        <pt x="1346" y="583" on="0"/>
        <pt x="1346" y="612" on="1"/>
        <pt x="1346" y="652" on="0"/>
        <pt x="1376" y="716" on="0"/>
        <pt x="1430" y="761" on="0"/>
        <pt x="1504" y="785" on="0"/>
        <pt x="1549" y="785" on="1"/>
        <pt x="1600" y="785" on="0"/>
        <pt x="1686" y="747" on="0"/>
        <pt x="1747" y="673" on="0"/>
        <pt x="1782" y="566" on="0"/>
        <pt x="1782" y="497" on="1"/>
        <pt x="1782" y="0" on="1"/>
        <pt x="1712" y="0" on="1"/>
        <pt x="1712" y="498" on="1"/>
        <pt x="1712" y="606" on="0"/>
        <pt x="1630" y="719" on="0"/>
        <pt x="1555" y="719" on="1"/>
        <pt x="1525" y="719" on="0"/>
        <pt x="1475" y="698" on="0"/>
        <pt x="1438" y="662" on="0"/>
        <pt x="1418" y="612" on="0"/>
        <pt x="1418" y="583" on="1"/>
        <pt x="1418" y="553" on="0"/>
        <pt x="1436" y="502" on="0"/>
        <pt x="1460" y="475" on="1"/>
        <pt x="1510" y="438" on="0"/>
        <pt x="1569" y="302" on="0"/>
        <pt x="1569" y="213" on="1"/>
        <pt x="1569" y="32" on="0"/>
        <pt x="1374" y="-162" on="0"/>
        <pt x="1193" y="-162" on="1"/>
        <pt x="177" y="-162" on="1"/>
        <pt x="152" y="-162" on="0"/>
        <pt x="123" y="-185" on="0"/>
        <pt x="123" y="-208" on="1"/>
        <pt x="123" y="-232" on="0"/>
        <pt x="151" y="-271" on="0"/>
        <pt x="173" y="-288" on="1"/>
        <pt x="124" y="-318" on="1"/>
        <pt x="97" y="-296" on="0"/>
        <pt x="54" y="-234" on="0"/>
        <pt x="54" y="-196" on="1"/>
        <pt x="54" y="-156" on="0"/>
        <pt x="108" y="-99" on="0"/>
        <pt x="167" y="-99" on="1"/>
        <pt x="1193" y="-99" on="1"/>
        <pt x="1274" y="-99" on="0"/>
        <pt x="1388" y="-51" on="0"/>
        <pt x="1461" y="32" on="0"/>
        <pt x="1495" y="146" on="0"/>
        <pt x="1495" y="212" on="1"/>
        <pt x="1495" y="266" on="0"/>
        <pt x="1472" y="354" on="0"/>
        <pt x="1434" y="415" on="0"/>
        <pt x="1383" y="449" on="0"/>
        <pt x="1355" y="449" on="1"/>
        <pt x="1308" y="449" on="0"/>
        <pt x="1254" y="376" on="0"/>
        <pt x="1254" y="306" on="1"/>
        <pt x="1254" y="0" on="1"/>
        <pt x="1185" y="0" on="1"/>
        <pt x="1185" y="305" on="1"/>
        <pt x="1185" y="376" on="0"/>
        <pt x="1133" y="447" on="0"/>
        <pt x="1084" y="449" on="1"/>
        <pt x="1035" y="449" on="0"/>
        <pt x="982" y="376" on="0"/>
        <pt x="982" y="306" on="1"/>
        <pt x="982" y="0" on="1"/>
        <pt x="634" y="0" on="1"/>
        <pt x="577" y="33" on="1"/>
        <pt x="600" y="76" on="0"/>
        <pt x="623" y="173" on="0"/>
        <pt x="623" y="222" on="1"/>
        <pt x="623" y="267" on="0"/>
        <pt x="594" y="349" on="0"/>
        <pt x="535" y="412" on="0"/>
        <pt x="448" y="449" on="0"/>
        <pt x="390" y="449" on="1"/>
        <pt x="337" y="449" on="0"/>
        <pt x="243" y="413" on="0"/>
        <pt x="173" y="349" on="0"/>
        <pt x="133" y="261" on="0"/>
        <pt x="133" y="208" on="1"/>
        <pt x="133" y="143" on="0"/>
        <pt x="190" y="69" on="0"/>
        <pt x="232" y="56" on="1"/>
        <pt x="210" y="106" on="0"/>
        <pt x="218" y="158" on="1"/>
        <pt x="221" y="186" on="0"/>
        <pt x="242" y="236" on="0"/>
        <pt x="278" y="272" on="0"/>
        <pt x="327" y="293" on="0"/>
        <pt x="358" y="293" on="1"/>
        <pt x="420" y="293" on="0"/>
        <pt x="491" y="216" on="0"/>
        <pt x="491" y="158" on="1"/>
        <pt x="491" y="123" on="0"/>
        <pt x="462" y="62" on="0"/>
        <pt x="409" y="17" on="0"/>
        <pt x="337" y="-9" on="0"/>
        <pt x="294" y="-9" on="1"/>
        <pt x="248" y="-9" on="0"/>
        <pt x="163" y="24" on="0"/>
        <pt x="98" y="83" on="0"/>
        <pt x="59" y="166" on="0"/>
        <pt x="59" y="216" on="1"/>
        <pt x="59" y="282" on="0"/>
        <pt x="110" y="391" on="0"/>
        <pt x="200" y="469" on="0"/>
        <pt x="321" y="511" on="0"/>
        <pt x="391" y="511" on="1"/>
        <pt x="465" y="511" on="0"/>
        <pt x="579" y="465" on="0"/>
        <pt x="657" y="387" on="0"/>
        <pt x="698" y="285" on="0"/>
        <pt x="698" y="230" on="1"/>
        <pt x="698" y="182" on="0"/>
        <pt x="681" y="101" on="0"/>
        <pt x="665" y="63" on="1"/>
        <pt x="912" y="63" on="1"/>
        <pt x="912" y="306" on="1"/>
        <pt x="912" y="408" on="0"/>
        <pt x="996" y="511" on="0"/>
      </contour>
      <contour>
        <pt x="350" y="232" on="1"/>
        <pt x="330" y="232" on="0"/>
        <pt x="298" y="215" on="0"/>
        <pt x="276" y="186" on="0"/>
        <pt x="263" y="149" on="0"/>
        <pt x="262" y="129" on="1"/>
        <pt x="259" y="86" on="0"/>
        <pt x="273" y="50" on="1"/>
        <pt x="278" y="48" on="0"/>
        <pt x="292" y="47" on="0"/>
        <pt x="297" y="47" on="1"/>
        <pt x="315" y="47" on="0"/>
        <pt x="357" y="61" on="0"/>
        <pt x="393" y="89" on="0"/>
        <pt x="417" y="130" on="0"/>
        <pt x="417" y="158" on="1"/>
        <pt x="417" y="190" on="0"/>
        <pt x="384" y="232" on="0"/>
      </contour>
    </TTGlyph>
    <TTGlyph name="hii.tam" xMin="54" yMin="-318" xMax="1594" yMax="813">
      <contour>
        <pt x="1417" y="813" on="1"/>
        <pt x="1456" y="813" on="0"/>
        <pt x="1522" y="790" on="0"/>
        <pt x="1568" y="752" on="0"/>
        <pt x="1594" y="701" on="0"/>
        <pt x="1594" y="674" on="1"/>
        <pt x="1594" y="624" on="0"/>
        <pt x="1528" y="566" on="0"/>
        <pt x="1474" y="566" on="1"/>
        <pt x="1422" y="566" on="0"/>
        <pt x="1365" y="624" on="0"/>
        <pt x="1365" y="663" on="1"/>
        <pt x="1365" y="691" on="0"/>
        <pt x="1387" y="736" on="0"/>
        <pt x="1406" y="756" on="1"/>
        <pt x="1382" y="753" on="0"/>
        <pt x="1338" y="732" on="0"/>
        <pt x="1305" y="699" on="0"/>
        <pt x="1286" y="655" on="0"/>
        <pt x="1286" y="629" on="1"/>
        <pt x="1286" y="587" on="0"/>
        <pt x="1339" y="523" on="0"/>
        <pt x="1390" y="507" on="1"/>
        <pt x="1429" y="499" on="0"/>
        <pt x="1495" y="449" on="0"/>
        <pt x="1542" y="372" on="0"/>
        <pt x="1569" y="271" on="0"/>
        <pt x="1569" y="213" on="1"/>
        <pt x="1569" y="32" on="0"/>
        <pt x="1374" y="-162" on="0"/>
        <pt x="1193" y="-162" on="1"/>
        <pt x="177" y="-162" on="1"/>
        <pt x="152" y="-162" on="0"/>
        <pt x="123" y="-185" on="0"/>
        <pt x="123" y="-208" on="1"/>
        <pt x="123" y="-232" on="0"/>
        <pt x="151" y="-271" on="0"/>
        <pt x="173" y="-288" on="1"/>
        <pt x="124" y="-318" on="1"/>
        <pt x="97" y="-296" on="0"/>
        <pt x="54" y="-234" on="0"/>
        <pt x="54" y="-196" on="1"/>
        <pt x="54" y="-156" on="0"/>
        <pt x="108" y="-99" on="0"/>
        <pt x="167" y="-99" on="1"/>
        <pt x="1193" y="-99" on="1"/>
        <pt x="1274" y="-99" on="0"/>
        <pt x="1388" y="-51" on="0"/>
        <pt x="1461" y="32" on="0"/>
        <pt x="1495" y="146" on="0"/>
        <pt x="1495" y="212" on="1"/>
        <pt x="1495" y="266" on="0"/>
        <pt x="1472" y="354" on="0"/>
        <pt x="1434" y="415" on="0"/>
        <pt x="1383" y="449" on="0"/>
        <pt x="1355" y="449" on="1"/>
        <pt x="1308" y="449" on="0"/>
        <pt x="1254" y="376" on="0"/>
        <pt x="1254" y="306" on="1"/>
        <pt x="1254" y="0" on="1"/>
        <pt x="1185" y="0" on="1"/>
        <pt x="1185" y="305" on="1"/>
        <pt x="1185" y="376" on="0"/>
        <pt x="1133" y="447" on="0"/>
        <pt x="1084" y="449" on="1"/>
        <pt x="1035" y="449" on="0"/>
        <pt x="982" y="376" on="0"/>
        <pt x="982" y="306" on="1"/>
        <pt x="982" y="0" on="1"/>
        <pt x="634" y="0" on="1"/>
        <pt x="577" y="33" on="1"/>
        <pt x="600" y="76" on="0"/>
        <pt x="623" y="173" on="0"/>
        <pt x="623" y="222" on="1"/>
        <pt x="623" y="267" on="0"/>
        <pt x="594" y="349" on="0"/>
        <pt x="535" y="412" on="0"/>
        <pt x="448" y="449" on="0"/>
        <pt x="390" y="449" on="1"/>
        <pt x="337" y="449" on="0"/>
        <pt x="243" y="413" on="0"/>
        <pt x="173" y="349" on="0"/>
        <pt x="133" y="261" on="0"/>
        <pt x="133" y="208" on="1"/>
        <pt x="133" y="143" on="0"/>
        <pt x="190" y="69" on="0"/>
        <pt x="232" y="56" on="1"/>
        <pt x="210" y="106" on="0"/>
        <pt x="218" y="158" on="1"/>
        <pt x="221" y="186" on="0"/>
        <pt x="242" y="236" on="0"/>
        <pt x="278" y="272" on="0"/>
        <pt x="327" y="293" on="0"/>
        <pt x="358" y="293" on="1"/>
        <pt x="420" y="293" on="0"/>
        <pt x="491" y="216" on="0"/>
        <pt x="491" y="158" on="1"/>
        <pt x="491" y="123" on="0"/>
        <pt x="462" y="62" on="0"/>
        <pt x="409" y="17" on="0"/>
        <pt x="337" y="-9" on="0"/>
        <pt x="294" y="-9" on="1"/>
        <pt x="248" y="-9" on="0"/>
        <pt x="163" y="24" on="0"/>
        <pt x="98" y="83" on="0"/>
        <pt x="59" y="166" on="0"/>
        <pt x="59" y="216" on="1"/>
        <pt x="59" y="282" on="0"/>
        <pt x="110" y="391" on="0"/>
        <pt x="200" y="469" on="0"/>
        <pt x="321" y="511" on="0"/>
        <pt x="391" y="511" on="1"/>
        <pt x="465" y="511" on="0"/>
        <pt x="579" y="465" on="0"/>
        <pt x="657" y="387" on="0"/>
        <pt x="698" y="285" on="0"/>
        <pt x="698" y="230" on="1"/>
        <pt x="698" y="182" on="0"/>
        <pt x="681" y="101" on="0"/>
        <pt x="665" y="63" on="1"/>
        <pt x="912" y="63" on="1"/>
        <pt x="912" y="306" on="1"/>
        <pt x="912" y="408" on="0"/>
        <pt x="996" y="511" on="0"/>
        <pt x="1075" y="511" on="1"/>
        <pt x="1127" y="511" on="0"/>
        <pt x="1189" y="455" on="0"/>
        <pt x="1202" y="408" on="1"/>
        <pt x="1233" y="487" on="0"/>
        <pt x="1305" y="505" on="1"/>
        <pt x="1264" y="528" on="0"/>
        <pt x="1221" y="604" on="0"/>
        <pt x="1221" y="646" on="1"/>
        <pt x="1221" y="680" on="0"/>
        <pt x="1250" y="741" on="0"/>
        <pt x="1302" y="787" on="0"/>
        <pt x="1374" y="813" on="0"/>
      </contour>
      <contour>
        <pt x="350" y="232" on="1"/>
        <pt x="330" y="232" on="0"/>
        <pt x="298" y="215" on="0"/>
        <pt x="276" y="186" on="0"/>
        <pt x="263" y="149" on="0"/>
        <pt x="262" y="129" on="1"/>
        <pt x="259" y="86" on="0"/>
        <pt x="273" y="50" on="1"/>
        <pt x="278" y="48" on="0"/>
        <pt x="292" y="47" on="0"/>
        <pt x="297" y="47" on="1"/>
        <pt x="315" y="47" on="0"/>
        <pt x="357" y="61" on="0"/>
        <pt x="393" y="89" on="0"/>
        <pt x="417" y="130" on="0"/>
        <pt x="417" y="158" on="1"/>
        <pt x="417" y="190" on="0"/>
        <pt x="384" y="232" on="0"/>
      </contour>
      <contour>
        <pt x="1442" y="757" on="1"/>
        <pt x="1428" y="737" on="0"/>
        <pt x="1411" y="697" on="0"/>
        <pt x="1411" y="676" on="1"/>
        <pt x="1411" y="650" on="0"/>
        <pt x="1442" y="618" on="0"/>
        <pt x="1468" y="618" on="1"/>
        <pt x="1495" y="618" on="0"/>
        <pt x="1526" y="653" on="0"/>
        <pt x="1526" y="677" on="1"/>
        <pt x="1526" y="708" on="0"/>
        <pt x="1478" y="750" on="0"/>
      </contour>
    </TTGlyph>
    <TTGlyph name="hu.tam" xMin="40" yMin="-318" xMax="1968" yMax="511">
      <contour>
        <pt x="1061" y="511" on="1"/>
        <pt x="1113" y="511" on="0"/>
        <pt x="1175" y="455" on="0"/>
        <pt x="1188" y="408" on="1"/>
        <pt x="1209" y="462" on="0"/>
        <pt x="1285" y="511" on="0"/>
        <pt x="1341" y="511" on="1"/>
        <pt x="1367" y="511" on="0"/>
        <pt x="1393" y="503" on="1"/>
        <pt x="1793" y="503" on="1"/>
        <pt x="1871" y="503" on="0"/>
        <pt x="1968" y="429" on="0"/>
        <pt x="1968" y="362" on="1"/>
        <pt x="1968" y="332" on="0"/>
        <pt x="1948" y="278" on="0"/>
        <pt x="1909" y="239" on="0"/>
        <pt x="1853" y="216" on="0"/>
        <pt x="1818" y="216" on="1"/>
        <pt x="1782" y="216" on="0"/>
        <pt x="1727" y="242" on="0"/>
        <pt x="1690" y="286" on="0"/>
        <pt x="1671" y="342" on="0"/>
        <pt x="1671" y="372" on="1"/>
        <pt x="1671" y="446" on="1"/>
        <pt x="1478" y="446" on="1"/>
        <pt x="1514" y="406" on="0"/>
        <pt x="1555" y="286" on="0"/>
        <pt x="1555" y="213" on="1"/>
        <pt x="1555" y="32" on="0"/>
        <pt x="1360" y="-162" on="0"/>
        <pt x="1179" y="-162" on="1"/>
        <pt x="163" y="-162" on="1"/>
        <pt x="138" y="-162" on="0"/>
        <pt x="109" y="-185" on="0"/>
        <pt x="109" y="-208" on="1"/>
        <pt x="109" y="-232" on="0"/>
        <pt x="137" y="-271" on="0"/>
        <pt x="159" y="-288" on="1"/>
        <pt x="110" y="-318" on="1"/>
        <pt x="83" y="-296" on="0"/>
        <pt x="40" y="-234" on="0"/>
        <pt x="40" y="-196" on="1"/>
        <pt x="40" y="-156" on="0"/>
        <pt x="94" y="-99" on="0"/>
        <pt x="153" y="-99" on="1"/>
        <pt x="1179" y="-99" on="1"/>
        <pt x="1260" y="-99" on="0"/>
        <pt x="1374" y="-51" on="0"/>
        <pt x="1447" y="32" on="0"/>
        <pt x="1481" y="146" on="0"/>
        <pt x="1481" y="212" on="1"/>
        <pt x="1481" y="266" on="0"/>
        <pt x="1458" y="354" on="0"/>
        <pt x="1420" y="415" on="0"/>
        <pt x="1369" y="449" on="0"/>
        <pt x="1341" y="449" on="1"/>
        <pt x="1294" y="449" on="0"/>
        <pt x="1240" y="376" on="0"/>
        <pt x="1240" y="306" on="1"/>
        <pt x="1240" y="0" on="1"/>
        <pt x="1171" y="0" on="1"/>
        <pt x="1171" y="305" on="1"/>
        <pt x="1171" y="376" on="0"/>
        <pt x="1119" y="447" on="0"/>
        <pt x="1070" y="449" on="1"/>
        <pt x="1021" y="449" on="0"/>
        <pt x="968" y="376" on="0"/>
        <pt x="968" y="306" on="1"/>
        <pt x="968" y="0" on="1"/>
        <pt x="620" y="0" on="1"/>
        <pt x="563" y="33" on="1"/>
        <pt x="586" y="76" on="0"/>
        <pt x="609" y="173" on="0"/>
        <pt x="609" y="222" on="1"/>
        <pt x="609" y="267" on="0"/>
        <pt x="580" y="349" on="0"/>
        <pt x="521" y="412" on="0"/>
        <pt x="434" y="449" on="0"/>
        <pt x="376" y="449" on="1"/>
        <pt x="323" y="449" on="0"/>
        <pt x="229" y="413" on="0"/>
        <pt x="159" y="349" on="0"/>
        <pt x="119" y="261" on="0"/>
        <pt x="119" y="208" on="1"/>
        <pt x="119" y="143" on="0"/>
        <pt x="176" y="69" on="0"/>
        <pt x="218" y="56" on="1"/>
        <pt x="196" y="106" on="0"/>
        <pt x="204" y="158" on="1"/>
        <pt x="207" y="186" on="0"/>
        <pt x="228" y="236" on="0"/>
        <pt x="264" y="272" on="0"/>
        <pt x="313" y="293" on="0"/>
        <pt x="344" y="293" on="1"/>
        <pt x="406" y="293" on="0"/>
        <pt x="477" y="216" on="0"/>
        <pt x="477" y="158" on="1"/>
        <pt x="477" y="123" on="0"/>
        <pt x="448" y="62" on="0"/>
        <pt x="395" y="17" on="0"/>
        <pt x="323" y="-9" on="0"/>
        <pt x="280" y="-9" on="1"/>
        <pt x="234" y="-9" on="0"/>
        <pt x="149" y="24" on="0"/>
        <pt x="84" y="83" on="0"/>
        <pt x="45" y="166" on="0"/>
        <pt x="45" y="216" on="1"/>
        <pt x="45" y="282" on="0"/>
        <pt x="96" y="391" on="0"/>
        <pt x="186" y="469" on="0"/>
        <pt x="307" y="511" on="0"/>
        <pt x="377" y="511" on="1"/>
        <pt x="451" y="511" on="0"/>
        <pt x="565" y="465" on="0"/>
        <pt x="643" y="387" on="0"/>
        <pt x="684" y="285" on="0"/>
        <pt x="684" y="230" on="1"/>
        <pt x="684" y="182" on="0"/>
        <pt x="667" y="101" on="0"/>
        <pt x="651" y="63" on="1"/>
        <pt x="898" y="63" on="1"/>
        <pt x="898" y="306" on="1"/>
        <pt x="898" y="408" on="0"/>
        <pt x="982" y="511" on="0"/>
      </contour>
      <contour>
        <pt x="1736" y="446" on="1"/>
        <pt x="1736" y="367" on="1"/>
        <pt x="1736" y="321" on="0"/>
        <pt x="1779" y="272" on="0"/>
        <pt x="1814" y="272" on="1"/>
        <pt x="1850" y="272" on="0"/>
        <pt x="1896" y="324" on="0"/>
        <pt x="1896" y="362" on="1"/>
        <pt x="1896" y="404" on="0"/>
        <pt x="1847" y="446" on="0"/>
        <pt x="1793" y="446" on="1"/>
      </contour>
      <contour>
        <pt x="336" y="232" on="1"/>
        <pt x="316" y="232" on="0"/>
        <pt x="284" y="215" on="0"/>
        <pt x="262" y="186" on="0"/>
        <pt x="249" y="149" on="0"/>
        <pt x="248" y="129" on="1"/>
        <pt x="245" y="86" on="0"/>
        <pt x="259" y="50" on="1"/>
        <pt x="264" y="48" on="0"/>
        <pt x="278" y="47" on="0"/>
        <pt x="283" y="47" on="1"/>
        <pt x="301" y="47" on="0"/>
        <pt x="343" y="61" on="0"/>
        <pt x="379" y="89" on="0"/>
        <pt x="403" y="130" on="0"/>
        <pt x="403" y="158" on="1"/>
        <pt x="403" y="190" on="0"/>
        <pt x="370" y="232" on="0"/>
      </contour>
    </TTGlyph>
    <TTGlyph name="hundredtamil" xMin="91" yMin="0" xMax="865" yMax="511">
      <contour>
        <pt x="865" y="503" on="1"/>
        <pt x="865" y="440" on="1"/>
        <pt x="748" y="440" on="1"/>
        <pt x="748" y="0" on="1"/>
        <pt x="678" y="0" on="1"/>
        <pt x="678" y="440" on="1"/>
        <pt x="466" y="440" on="1"/>
        <pt x="466" y="0" on="1"/>
        <pt x="396" y="0" on="1"/>
        <pt x="396" y="299" on="1"/>
        <pt x="395" y="338" on="0"/>
        <pt x="374" y="394" on="0"/>
        <pt x="340" y="431" on="0"/>
        <pt x="297" y="449" on="0"/>
        <pt x="274" y="449" on="1"/>
        <pt x="224" y="449" on="0"/>
        <pt x="161" y="385" on="0"/>
        <pt x="161" y="319" on="1"/>
        <pt x="161" y="0" on="1"/>
        <pt x="91" y="0" on="1"/>
        <pt x="91" y="333" on="1"/>
        <pt x="91" y="423" on="0"/>
        <pt x="181" y="511" on="0"/>
        <pt x="254" y="511" on="1"/>
        <pt x="304" y="511" on="0"/>
        <pt x="376" y="460" on="0"/>
        <pt x="396" y="414" on="1"/>
        <pt x="396" y="503" on="1"/>
      </contour>
    </TTGlyph>
    <TTGlyph name="huu.tam" xMin="40" yMin="-318" xMax="2277" yMax="658">
      <contour>
        <pt x="1061" y="511" on="1"/>
        <pt x="1113" y="511" on="0"/>
        <pt x="1175" y="455" on="0"/>
        <pt x="1188" y="408" on="1"/>
        <pt x="1209" y="462" on="0"/>
        <pt x="1285" y="511" on="0"/>
        <pt x="1341" y="511" on="1"/>
        <pt x="1367" y="511" on="0"/>
        <pt x="1393" y="503" on="1"/>
        <pt x="1799" y="503" on="1"/>
        <pt x="1818" y="574" on="0"/>
        <pt x="1931" y="658" on="0"/>
        <pt x="2012" y="658" on="1"/>
        <pt x="2066" y="658" on="0"/>
        <pt x="2163" y="616" on="0"/>
        <pt x="2235" y="540" on="0"/>
        <pt x="2277" y="432" on="0"/>
        <pt x="2277" y="366" on="1"/>
        <pt x="2277" y="295" on="0"/>
        <pt x="2236" y="174" on="0"/>
        <pt x="2156" y="86" on="0"/>
        <pt x="2035" y="35" on="0"/>
        <pt x="1956" y="35" on="1"/>
        <pt x="1851" y="35" on="0"/>
        <pt x="1682" y="142" on="0"/>
        <pt x="1634" y="246" on="1"/>
        <pt x="1681" y="281" on="1"/>
        <pt x="1726" y="181" on="0"/>
        <pt x="1863" y="99" on="0"/>
        <pt x="1952" y="99" on="1"/>
        <pt x="2013" y="99" on="0"/>
        <pt x="2108" y="138" on="0"/>
        <pt x="2172" y="208" on="0"/>
        <pt x="2205" y="306" on="0"/>
        <pt x="2205" y="366" on="1"/>
        <pt x="2205" y="420" on="0"/>
        <pt x="2175" y="505" on="0"/>
        <pt x="2122" y="564" on="0"/>
        <pt x="2052" y="595" on="0"/>
        <pt x="2012" y="595" on="1"/>
        <pt x="1960" y="595" on="0"/>
        <pt x="1882" y="545" on="0"/>
        <pt x="1862" y="503" on="1"/>
        <pt x="1917" y="503" on="1"/>
        <pt x="1995" y="503" on="0"/>
        <pt x="2091" y="429" on="0"/>
        <pt x="2091" y="362" on="1"/>
        <pt x="2091" y="332" on="0"/>
        <pt x="2071" y="278" on="0"/>
        <pt x="2033" y="239" on="0"/>
        <pt x="1977" y="216" on="0"/>
        <pt x="1942" y="216" on="1"/>
        <pt x="1905" y="216" on="0"/>
        <pt x="1850" y="242" on="0"/>
        <pt x="1813" y="286" on="0"/>
        <pt x="1794" y="342" on="0"/>
        <pt x="1794" y="372" on="1"/>
        <pt x="1794" y="446" on="1"/>
        <pt x="1478" y="446" on="1"/>
        <pt x="1514" y="406" on="0"/>
        <pt x="1555" y="286" on="0"/>
        <pt x="1555" y="213" on="1"/>
        <pt x="1555" y="32" on="0"/>
        <pt x="1360" y="-162" on="0"/>
        <pt x="1179" y="-162" on="1"/>
        <pt x="163" y="-162" on="1"/>
        <pt x="138" y="-162" on="0"/>
        <pt x="109" y="-185" on="0"/>
        <pt x="109" y="-208" on="1"/>
        <pt x="109" y="-232" on="0"/>
        <pt x="137" y="-271" on="0"/>
        <pt x="159" y="-288" on="1"/>
        <pt x="110" y="-318" on="1"/>
        <pt x="83" y="-296" on="0"/>
        <pt x="40" y="-234" on="0"/>
        <pt x="40" y="-196" on="1"/>
        <pt x="40" y="-156" on="0"/>
        <pt x="94" y="-99" on="0"/>
        <pt x="153" y="-99" on="1"/>
        <pt x="1179" y="-99" on="1"/>
        <pt x="1260" y="-99" on="0"/>
        <pt x="1374" y="-51" on="0"/>
        <pt x="1447" y="32" on="0"/>
        <pt x="1481" y="146" on="0"/>
        <pt x="1481" y="212" on="1"/>
        <pt x="1481" y="266" on="0"/>
        <pt x="1458" y="354" on="0"/>
        <pt x="1420" y="415" on="0"/>
        <pt x="1369" y="449" on="0"/>
        <pt x="1341" y="449" on="1"/>
        <pt x="1294" y="449" on="0"/>
        <pt x="1240" y="376" on="0"/>
        <pt x="1240" y="306" on="1"/>
        <pt x="1240" y="0" on="1"/>
        <pt x="1171" y="0" on="1"/>
        <pt x="1171" y="305" on="1"/>
        <pt x="1171" y="376" on="0"/>
        <pt x="1119" y="447" on="0"/>
        <pt x="1070" y="449" on="1"/>
        <pt x="1021" y="449" on="0"/>
        <pt x="968" y="376" on="0"/>
        <pt x="968" y="306" on="1"/>
        <pt x="968" y="0" on="1"/>
        <pt x="620" y="0" on="1"/>
        <pt x="563" y="33" on="1"/>
        <pt x="586" y="76" on="0"/>
        <pt x="609" y="173" on="0"/>
        <pt x="609" y="222" on="1"/>
        <pt x="609" y="267" on="0"/>
        <pt x="580" y="349" on="0"/>
        <pt x="521" y="412" on="0"/>
        <pt x="434" y="449" on="0"/>
        <pt x="376" y="449" on="1"/>
        <pt x="323" y="449" on="0"/>
        <pt x="229" y="413" on="0"/>
        <pt x="159" y="349" on="0"/>
        <pt x="119" y="261" on="0"/>
        <pt x="119" y="208" on="1"/>
        <pt x="119" y="143" on="0"/>
        <pt x="176" y="69" on="0"/>
        <pt x="218" y="56" on="1"/>
        <pt x="196" y="106" on="0"/>
        <pt x="204" y="158" on="1"/>
        <pt x="207" y="186" on="0"/>
        <pt x="228" y="236" on="0"/>
        <pt x="264" y="272" on="0"/>
        <pt x="313" y="293" on="0"/>
        <pt x="344" y="293" on="1"/>
        <pt x="406" y="293" on="0"/>
        <pt x="477" y="216" on="0"/>
        <pt x="477" y="158" on="1"/>
        <pt x="477" y="123" on="0"/>
        <pt x="448" y="62" on="0"/>
        <pt x="395" y="17" on="0"/>
        <pt x="323" y="-9" on="0"/>
        <pt x="280" y="-9" on="1"/>
        <pt x="234" y="-9" on="0"/>
        <pt x="149" y="24" on="0"/>
        <pt x="84" y="83" on="0"/>
        <pt x="45" y="166" on="0"/>
        <pt x="45" y="216" on="1"/>
        <pt x="45" y="282" on="0"/>
        <pt x="96" y="391" on="0"/>
        <pt x="186" y="469" on="0"/>
        <pt x="307" y="511" on="0"/>
        <pt x="377" y="511" on="1"/>
        <pt x="451" y="511" on="0"/>
        <pt x="565" y="465" on="0"/>
        <pt x="643" y="387" on="0"/>
        <pt x="684" y="285" on="0"/>
        <pt x="684" y="230" on="1"/>
        <pt x="684" y="182" on="0"/>
        <pt x="667" y="101" on="0"/>
        <pt x="651" y="63" on="1"/>
        <pt x="898" y="63" on="1"/>
        <pt x="898" y="306" on="1"/>
        <pt x="898" y="408" on="0"/>
        <pt x="982" y="511" on="0"/>
      </contour>
      <contour>
        <pt x="1860" y="367" on="1"/>
        <pt x="1860" y="321" on="0"/>
        <pt x="1902" y="272" on="0"/>
        <pt x="1938" y="272" on="1"/>
        <pt x="1973" y="272" on="0"/>
        <pt x="2019" y="324" on="0"/>
        <pt x="2019" y="362" on="1"/>
        <pt x="2019" y="404" on="0"/>
        <pt x="1970" y="446" on="0"/>
        <pt x="1917" y="446" on="1"/>
        <pt x="1860" y="446" on="1"/>
      </contour>
      <contour>
        <pt x="336" y="232" on="1"/>
        <pt x="316" y="232" on="0"/>
        <pt x="284" y="215" on="0"/>
        <pt x="262" y="186" on="0"/>
        <pt x="249" y="149" on="0"/>
        <pt x="248" y="129" on="1"/>
        <pt x="245" y="86" on="0"/>
        <pt x="259" y="50" on="1"/>
        <pt x="264" y="48" on="0"/>
        <pt x="278" y="47" on="0"/>
        <pt x="283" y="47" on="1"/>
        <pt x="301" y="47" on="0"/>
        <pt x="343" y="61" on="0"/>
        <pt x="379" y="89" on="0"/>
        <pt x="403" y="130" on="0"/>
        <pt x="403" y="158" on="1"/>
        <pt x="403" y="190" on="0"/>
        <pt x="370" y="232" on="0"/>
      </contour>
    </TTGlyph>
    <TTGlyph name="hvir.tam" xMin="54" yMin="-318" xMax="1569" yMax="736">
      <contour>
        <pt x="1075" y="511" on="1"/>
        <pt x="1127" y="511" on="0"/>
        <pt x="1189" y="455" on="0"/>
        <pt x="1202" y="408" on="1"/>
        <pt x="1223" y="462" on="0"/>
        <pt x="1299" y="511" on="0"/>
        <pt x="1355" y="511" on="1"/>
        <pt x="1401" y="511" on="0"/>
        <pt x="1479" y="467" on="0"/>
        <pt x="1536" y="387" on="0"/>
        <pt x="1569" y="278" on="0"/>
        <pt x="1569" y="213" on="1"/>
        <pt x="1569" y="32" on="0"/>
        <pt x="1374" y="-162" on="0"/>
        <pt x="1193" y="-162" on="1"/>
        <pt x="177" y="-162" on="1"/>
        <pt x="152" y="-162" on="0"/>
        <pt x="123" y="-185" on="0"/>
        <pt x="123" y="-208" on="1"/>
        <pt x="123" y="-232" on="0"/>
        <pt x="151" y="-271" on="0"/>
        <pt x="173" y="-288" on="1"/>
        <pt x="124" y="-318" on="1"/>
        <pt x="97" y="-296" on="0"/>
        <pt x="54" y="-234" on="0"/>
        <pt x="54" y="-196" on="1"/>
        <pt x="54" y="-156" on="0"/>
        <pt x="108" y="-99" on="0"/>
        <pt x="167" y="-99" on="1"/>
        <pt x="1193" y="-99" on="1"/>
        <pt x="1274" y="-99" on="0"/>
        <pt x="1388" y="-51" on="0"/>
        <pt x="1461" y="32" on="0"/>
        <pt x="1495" y="146" on="0"/>
        <pt x="1495" y="212" on="1"/>
        <pt x="1495" y="266" on="0"/>
        <pt x="1472" y="354" on="0"/>
        <pt x="1434" y="415" on="0"/>
        <pt x="1383" y="449" on="0"/>
        <pt x="1355" y="449" on="1"/>
        <pt x="1308" y="449" on="0"/>
        <pt x="1254" y="376" on="0"/>
        <pt x="1254" y="306" on="1"/>
        <pt x="1254" y="0" on="1"/>
        <pt x="1185" y="0" on="1"/>
        <pt x="1185" y="305" on="1"/>
        <pt x="1185" y="376" on="0"/>
        <pt x="1133" y="447" on="0"/>
        <pt x="1084" y="449" on="1"/>
        <pt x="1035" y="449" on="0"/>
        <pt x="982" y="376" on="0"/>
        <pt x="982" y="306" on="1"/>
        <pt x="982" y="0" on="1"/>
        <pt x="634" y="0" on="1"/>
        <pt x="577" y="33" on="1"/>
        <pt x="600" y="76" on="0"/>
        <pt x="623" y="173" on="0"/>
        <pt x="623" y="222" on="1"/>
        <pt x="623" y="267" on="0"/>
        <pt x="594" y="349" on="0"/>
        <pt x="535" y="412" on="0"/>
        <pt x="448" y="449" on="0"/>
        <pt x="390" y="449" on="1"/>
        <pt x="337" y="449" on="0"/>
        <pt x="243" y="413" on="0"/>
        <pt x="173" y="349" on="0"/>
        <pt x="133" y="261" on="0"/>
        <pt x="133" y="208" on="1"/>
        <pt x="133" y="143" on="0"/>
        <pt x="190" y="69" on="0"/>
        <pt x="232" y="56" on="1"/>
        <pt x="210" y="106" on="0"/>
        <pt x="218" y="158" on="1"/>
        <pt x="221" y="186" on="0"/>
        <pt x="242" y="236" on="0"/>
        <pt x="278" y="272" on="0"/>
        <pt x="327" y="293" on="0"/>
        <pt x="358" y="293" on="1"/>
        <pt x="420" y="293" on="0"/>
        <pt x="491" y="216" on="0"/>
        <pt x="491" y="158" on="1"/>
        <pt x="491" y="123" on="0"/>
        <pt x="462" y="62" on="0"/>
        <pt x="409" y="17" on="0"/>
        <pt x="337" y="-9" on="0"/>
        <pt x="294" y="-9" on="1"/>
        <pt x="248" y="-9" on="0"/>
        <pt x="163" y="24" on="0"/>
        <pt x="98" y="83" on="0"/>
        <pt x="59" y="166" on="0"/>
        <pt x="59" y="216" on="1"/>
        <pt x="59" y="282" on="0"/>
        <pt x="110" y="391" on="0"/>
        <pt x="200" y="469" on="0"/>
        <pt x="321" y="511" on="0"/>
        <pt x="391" y="511" on="1"/>
        <pt x="465" y="511" on="0"/>
        <pt x="579" y="465" on="0"/>
        <pt x="657" y="387" on="0"/>
        <pt x="698" y="285" on="0"/>
        <pt x="698" y="230" on="1"/>
        <pt x="698" y="182" on="0"/>
        <pt x="681" y="101" on="0"/>
        <pt x="665" y="63" on="1"/>
        <pt x="912" y="63" on="1"/>
        <pt x="912" y="306" on="1"/>
        <pt x="912" y="408" on="0"/>
        <pt x="996" y="511" on="0"/>
      </contour>
      <contour>
        <pt x="350" y="232" on="1"/>
        <pt x="330" y="232" on="0"/>
        <pt x="298" y="215" on="0"/>
        <pt x="276" y="186" on="0"/>
        <pt x="263" y="149" on="0"/>
        <pt x="262" y="129" on="1"/>
        <pt x="259" y="86" on="0"/>
        <pt x="273" y="50" on="1"/>
        <pt x="278" y="48" on="0"/>
        <pt x="292" y="47" on="0"/>
        <pt x="297" y="47" on="1"/>
        <pt x="315" y="47" on="0"/>
        <pt x="357" y="61" on="0"/>
        <pt x="393" y="89" on="0"/>
        <pt x="417" y="130" on="0"/>
        <pt x="417" y="158" on="1"/>
        <pt x="417" y="190" on="0"/>
        <pt x="384" y="232" on="0"/>
      </contour>
      <contour>
        <pt x="767" y="686" on="1"/>
        <pt x="767" y="707" on="0"/>
        <pt x="795" y="736" on="0"/>
        <pt x="815" y="736" on="1"/>
        <pt x="836" y="736" on="0"/>
        <pt x="865" y="707" on="0"/>
        <pt x="865" y="686" on="1"/>
        <pt x="865" y="666" on="0"/>
        <pt x="836" y="638" on="0"/>
        <pt x="815" y="638" on="1"/>
        <pt x="795" y="638" on="0"/>
        <pt x="767" y="666" on="0"/>
      </contour>
    </TTGlyph>
    <TTGlyph name="hyphen" xMin="55" yMin="273" xMax="324" yMax="336">
      <contour>
        <pt x="324" y="336" on="1"/>
        <pt x="324" y="273" on="1"/>
        <pt x="55" y="273" on="1"/>
        <pt x="55" y="336" on="1"/>
      </contour>
    </TTGlyph>
    <TTGlyph name="i.tam" xMin="50" yMin="-250" xMax="945" yMax="727">
      <contour>
        <pt x="518" y="727" on="1"/>
        <pt x="619" y="727" on="0"/>
        <pt x="774" y="654" on="0"/>
        <pt x="879" y="528" on="0"/>
        <pt x="933" y="361" on="0"/>
        <pt x="933" y="267" on="1"/>
        <pt x="933" y="133" on="1"/>
        <pt x="871" y="133" on="1"/>
        <pt x="871" y="263" on="1"/>
        <pt x="871" y="349" on="0"/>
        <pt x="828" y="496" on="0"/>
        <pt x="740" y="603" on="0"/>
        <pt x="607" y="664" on="0"/>
        <pt x="518" y="664" on="1"/>
        <pt x="432" y="664" on="0"/>
        <pt x="295" y="611" on="0"/>
        <pt x="199" y="518" on="0"/>
        <pt x="148" y="391" on="0"/>
        <pt x="148" y="317" on="1"/>
        <pt x="148" y="247" on="0"/>
        <pt x="196" y="130" on="0"/>
        <pt x="236" y="76" on="1"/>
        <pt x="287" y="97" on="0"/>
        <pt x="413" y="120" on="0"/>
        <pt x="482" y="120" on="1"/>
        <pt x="530" y="120" on="0"/>
        <pt x="617" y="108" on="0"/>
        <pt x="659" y="97" on="1"/>
        <pt x="670" y="128" on="0"/>
        <pt x="684" y="194" on="0"/>
        <pt x="684" y="227" on="1"/>
        <pt x="684" y="268" on="0"/>
        <pt x="661" y="344" on="0"/>
        <pt x="621" y="406" on="0"/>
        <pt x="564" y="449" on="0"/>
        <pt x="531" y="458" on="1"/>
        <pt x="545" y="435" on="0"/>
        <pt x="560" y="379" on="0"/>
        <pt x="560" y="352" on="1"/>
        <pt x="560" y="325" on="0"/>
        <pt x="542" y="276" on="0"/>
        <pt x="507" y="237" on="0"/>
        <pt x="458" y="214" on="0"/>
        <pt x="428" y="214" on="1"/>
        <pt x="401" y="214" on="0"/>
        <pt x="354" y="234" on="0"/>
        <pt x="318" y="269" on="0"/>
        <pt x="298" y="317" on="0"/>
        <pt x="298" y="344" on="1"/>
        <pt x="298" y="384" on="0"/>
        <pt x="334" y="446" on="0"/>
        <pt x="392" y="488" on="0"/>
        <pt x="464" y="510" on="0"/>
        <pt x="501" y="510" on="1"/>
        <pt x="544" y="510" on="0"/>
        <pt x="630" y="472" on="0"/>
        <pt x="699" y="399" on="0"/>
        <pt x="742" y="294" on="0"/>
        <pt x="742" y="227" on="1"/>
        <pt x="742" y="151" on="0"/>
        <pt x="715" y="82" on="1"/>
        <pt x="764" y="64" on="0"/>
        <pt x="849" y="20" on="0"/>
        <pt x="910" y="-33" on="0"/>
        <pt x="945" y="-92" on="0"/>
        <pt x="945" y="-123" on="1"/>
        <pt x="945" y="-182" on="0"/>
        <pt x="851" y="-250" on="0"/>
        <pt x="776" y="-250" on="1"/>
        <pt x="703" y="-250" on="0"/>
        <pt x="569" y="-212" on="0"/>
        <pt x="493" y="-174" on="1"/>
        <pt x="436" y="-207" on="0"/>
        <pt x="303" y="-250" on="0"/>
        <pt x="226" y="-250" on="1"/>
        <pt x="185" y="-250" on="0"/>
        <pt x="120" y="-230" on="0"/>
        <pt x="74" y="-194" on="0"/>
        <pt x="50" y="-146" on="0"/>
        <pt x="50" y="-118" on="1"/>
        <pt x="50" y="-67" on="0"/>
        <pt x="120" y="19" on="0"/>
        <pt x="182" y="53" on="1"/>
        <pt x="136" y="114" on="0"/>
        <pt x="83" y="247" on="0"/>
        <pt x="83" y="319" on="1"/>
        <pt x="83" y="412" on="0"/>
        <pt x="148" y="563" on="0"/>
        <pt x="264" y="669" on="0"/>
        <pt x="424" y="727" on="0"/>
      </contour>
      <contour>
        <pt x="876" y="-119" on="1"/>
        <pt x="876" y="-97" on="0"/>
        <pt x="850" y="-54" on="0"/>
        <pt x="802" y="-14" on="0"/>
        <pt x="736" y="21" on="0"/>
        <pt x="697" y="36" on="1"/>
        <pt x="667" y="-22" on="0"/>
        <pt x="591" y="-109" on="0"/>
        <pt x="537" y="-144" on="1"/>
        <pt x="597" y="-169" on="0"/>
        <pt x="708" y="-196" on="0"/>
        <pt x="764" y="-196" on="1"/>
        <pt x="817" y="-196" on="0"/>
        <pt x="876" y="-153" on="0"/>
      </contour>
      <contour>
        <pt x="482" y="-117" on="1"/>
        <pt x="534" y="-82" on="0"/>
        <pt x="609" y="0" on="0"/>
        <pt x="638" y="52" on="1"/>
        <pt x="564" y="70" on="0"/>
        <pt x="481" y="70" on="1"/>
        <pt x="427" y="70" on="0"/>
        <pt x="319" y="51" on="0"/>
        <pt x="274" y="34" on="1"/>
        <pt x="316" y="-12" on="0"/>
        <pt x="423" y="-85" on="0"/>
      </contour>
      <contour>
        <pt x="228" y="-196" on="1"/>
        <pt x="280" y="-196" on="0"/>
        <pt x="389" y="-169" on="0"/>
        <pt x="437" y="-146" on="1"/>
        <pt x="375" y="-114" on="0"/>
        <pt x="261" y="-35" on="0"/>
        <pt x="220" y="11" on="1"/>
        <pt x="171" y="-15" on="0"/>
        <pt x="117" y="-86" on="0"/>
        <pt x="117" y="-121" on="1"/>
        <pt x="117" y="-156" on="0"/>
        <pt x="171" y="-196" on="0"/>
      </contour>
      <contour>
        <pt x="494" y="452" on="1"/>
        <pt x="466" y="450" on="0"/>
        <pt x="416" y="434" on="0"/>
        <pt x="378" y="405" on="0"/>
        <pt x="356" y="367" on="0"/>
        <pt x="356" y="344" on="1"/>
        <pt x="356" y="309" on="0"/>
        <pt x="396" y="268" on="0"/>
        <pt x="426" y="268" on="1"/>
        <pt x="464" y="268" on="0"/>
        <pt x="511" y="323" on="0"/>
        <pt x="511" y="370" on="1"/>
        <pt x="511" y="414" on="0"/>
      </contour>
    </TTGlyph>
    <TTGlyph name="ii.tam" xMin="97" yMin="0" xMax="651" yMax="503">
      <contour>
        <pt x="651" y="503" on="1"/>
        <pt x="651" y="440" on="1"/>
        <pt x="477" y="440" on="1"/>
        <pt x="477" y="0" on="1"/>
        <pt x="407" y="0" on="1"/>
        <pt x="407" y="440" on="1"/>
        <pt x="167" y="440" on="1"/>
        <pt x="167" y="0" on="1"/>
        <pt x="97" y="0" on="1"/>
        <pt x="97" y="503" on="1"/>
      </contour>
      <contour>
        <pt x="286" y="272" on="1"/>
        <pt x="306" y="272" on="0"/>
        <pt x="333" y="244" on="0"/>
        <pt x="333" y="224" on="1"/>
        <pt x="333" y="204" on="0"/>
        <pt x="306" y="178" on="0"/>
        <pt x="286" y="178" on="1"/>
        <pt x="266" y="178" on="0"/>
        <pt x="240" y="204" on="0"/>
        <pt x="240" y="224" on="1"/>
        <pt x="240" y="244" on="0"/>
        <pt x="266" y="272" on="0"/>
      </contour>
      <contour>
        <pt x="596" y="272" on="1"/>
        <pt x="616" y="272" on="0"/>
        <pt x="643" y="244" on="0"/>
        <pt x="643" y="224" on="1"/>
        <pt x="643" y="204" on="0"/>
        <pt x="616" y="178" on="0"/>
        <pt x="596" y="178" on="1"/>
        <pt x="576" y="178" on="0"/>
        <pt x="550" y="204" on="0"/>
        <pt x="550" y="224" on="1"/>
        <pt x="550" y="244" on="0"/>
        <pt x="576" y="272" on="0"/>
      </contour>
    </TTGlyph>
    <TTGlyph name="iimatra.alt.tam" xMin="5" yMin="484" xMax="378" yMax="813">
      <contour>
        <pt x="201" y="813" on="1"/>
        <pt x="240" y="813" on="0"/>
        <pt x="306" y="790" on="0"/>
        <pt x="352" y="752" on="0"/>
        <pt x="378" y="701" on="0"/>
        <pt x="378" y="674" on="1"/>
        <pt x="378" y="624" on="0"/>
        <pt x="312" y="566" on="0"/>
        <pt x="258" y="566" on="1"/>
        <pt x="206" y="566" on="0"/>
        <pt x="149" y="624" on="0"/>
        <pt x="149" y="663" on="1"/>
        <pt x="149" y="691" on="0"/>
        <pt x="171" y="736" on="0"/>
        <pt x="190" y="756" on="1"/>
        <pt x="166" y="753" on="0"/>
        <pt x="122" y="732" on="0"/>
        <pt x="89" y="699" on="0"/>
        <pt x="70" y="655" on="0"/>
        <pt x="70" y="629" on="1"/>
        <pt x="70" y="584" on="0"/>
        <pt x="133" y="517" on="0"/>
        <pt x="191" y="503" on="1"/>
        <pt x="144" y="484" on="1"/>
        <pt x="111" y="491" on="0"/>
        <pt x="59" y="523" on="0"/>
        <pt x="24" y="567" on="0"/>
        <pt x="5" y="619" on="0"/>
        <pt x="5" y="646" on="1"/>
        <pt x="5" y="680" on="0"/>
        <pt x="34" y="741" on="0"/>
        <pt x="86" y="787" on="0"/>
        <pt x="158" y="813" on="0"/>
      </contour>
      <contour>
        <pt x="226" y="757" on="1"/>
        <pt x="212" y="737" on="0"/>
        <pt x="195" y="697" on="0"/>
        <pt x="195" y="676" on="1"/>
        <pt x="195" y="650" on="0"/>
        <pt x="226" y="618" on="0"/>
        <pt x="252" y="618" on="1"/>
        <pt x="279" y="618" on="0"/>
        <pt x="310" y="653" on="0"/>
        <pt x="310" y="677" on="1"/>
        <pt x="310" y="708" on="0"/>
        <pt x="262" y="750" on="0"/>
      </contour>
    </TTGlyph>
    <TTGlyph name="iimatra.tam" xMin="45" yMin="496" xMax="419" yMax="813">
      <contour>
        <pt x="242" y="813" on="1"/>
        <pt x="281" y="813" on="0"/>
        <pt x="347" y="790" on="0"/>
        <pt x="393" y="752" on="0"/>
        <pt x="419" y="701" on="0"/>
        <pt x="419" y="674" on="1"/>
        <pt x="419" y="624" on="0"/>
        <pt x="352" y="566" on="0"/>
        <pt x="298" y="566" on="1"/>
        <pt x="246" y="566" on="0"/>
        <pt x="189" y="624" on="0"/>
        <pt x="189" y="663" on="1"/>
        <pt x="189" y="689" on="0"/>
        <pt x="212" y="736" on="0"/>
        <pt x="231" y="756" on="1"/>
        <pt x="207" y="753" on="0"/>
        <pt x="163" y="733" on="0"/>
        <pt x="130" y="700" on="0"/>
        <pt x="111" y="655" on="0"/>
        <pt x="111" y="629" on="1"/>
        <pt x="111" y="588" on="0"/>
        <pt x="155" y="526" on="0"/>
        <pt x="197" y="502" on="1"/>
        <pt x="164" y="496" on="1"/>
        <pt x="110" y="513" on="0"/>
        <pt x="45" y="593" on="0"/>
        <pt x="45" y="646" on="1"/>
        <pt x="45" y="681" on="0"/>
        <pt x="75" y="742" on="0"/>
        <pt x="128" y="787" on="0"/>
        <pt x="200" y="813" on="0"/>
      </contour>
      <contour>
        <pt x="267" y="757" on="1"/>
        <pt x="253" y="737" on="0"/>
        <pt x="236" y="697" on="0"/>
        <pt x="236" y="676" on="1"/>
        <pt x="236" y="650" on="0"/>
        <pt x="267" y="618" on="0"/>
        <pt x="293" y="618" on="1"/>
        <pt x="320" y="618" on="0"/>
        <pt x="351" y="653" on="0"/>
        <pt x="351" y="677" on="1"/>
        <pt x="351" y="708" on="0"/>
        <pt x="303" y="750" on="0"/>
      </contour>
    </TTGlyph>
    <TTGlyph name="imatra.alt.tam" xMin="-301" yMin="0" xMax="106" yMax="785">
      <contour>
        <pt x="-118" y="785" on="1"/>
        <pt x="-67" y="785" on="0"/>
        <pt x="16" y="748" on="0"/>
        <pt x="74" y="678" on="0"/>
        <pt x="106" y="577" on="0"/>
        <pt x="106" y="513" on="1"/>
        <pt x="106" y="0" on="1"/>
        <pt x="37" y="0" on="1"/>
        <pt x="37" y="512" on="1"/>
        <pt x="37" y="612" on="0"/>
        <pt x="-40" y="719" on="0"/>
        <pt x="-111" y="719" on="1"/>
        <pt x="-162" y="719" on="0"/>
        <pt x="-228" y="656" on="0"/>
        <pt x="-228" y="607" on="1"/>
        <pt x="-228" y="536" on="0"/>
        <pt x="-169" y="488" on="1"/>
        <pt x="-194" y="488" on="1"/>
        <pt x="-238" y="506" on="0"/>
        <pt x="-301" y="583" on="0"/>
        <pt x="-301" y="633" on="1"/>
        <pt x="-301" y="664" on="0"/>
        <pt x="-276" y="719" on="0"/>
        <pt x="-230" y="761" on="0"/>
        <pt x="-162" y="785" on="0"/>
      </contour>
    </TTGlyph>
    <TTGlyph name="imatra.alt1.tam" xMin="-251" yMin="0" xMax="170" yMax="785">
      <contour>
        <pt x="-55" y="785" on="1"/>
        <pt x="-4" y="785" on="0"/>
        <pt x="79" y="747" on="0"/>
        <pt x="138" y="674" on="0"/>
        <pt x="170" y="569" on="0"/>
        <pt x="170" y="502" on="1"/>
        <pt x="170" y="0" on="1"/>
        <pt x="101" y="0" on="1"/>
        <pt x="101" y="502" on="1"/>
        <pt x="101" y="613" on="0"/>
        <pt x="19" y="721" on="0"/>
        <pt x="-52" y="721" on="1"/>
        <pt x="-79" y="721" on="0"/>
        <pt x="-125" y="703" on="0"/>
        <pt x="-160" y="673" on="0"/>
        <pt x="-179" y="631" on="0"/>
        <pt x="-179" y="607" on="1"/>
        <pt x="-179" y="569" on="0"/>
        <pt x="-129" y="514" on="0"/>
        <pt x="-89" y="503" on="1"/>
        <pt x="-118" y="470" on="1"/>
        <pt x="-144" y="474" on="0"/>
        <pt x="-192" y="499" on="0"/>
        <pt x="-229" y="538" on="0"/>
        <pt x="-251" y="588" on="0"/>
        <pt x="-251" y="618" on="1"/>
        <pt x="-251" y="652" on="0"/>
        <pt x="-224" y="713" on="0"/>
        <pt x="-174" y="759" on="0"/>
        <pt x="-101" y="785" on="0"/>
      </contour>
    </TTGlyph>
    <TTGlyph name="imatra.alt2.tam" xMin="-392" yMin="0" xMax="170" yMax="785">
      <contour>
        <pt x="-145" y="785" on="1"/>
        <pt x="-75" y="785" on="0"/>
        <pt x="41" y="737" on="0"/>
        <pt x="124" y="642" on="0"/>
        <pt x="170" y="501" on="0"/>
        <pt x="170" y="407" on="1"/>
        <pt x="170" y="0" on="1"/>
        <pt x="101" y="0" on="1"/>
        <pt x="101" y="408" on="1"/>
        <pt x="101" y="560" on="0"/>
        <pt x="-23" y="719" on="0"/>
        <pt x="-141" y="719" on="1"/>
        <pt x="-181" y="719" on="0"/>
        <pt x="-247" y="699" on="0"/>
        <pt x="-294" y="663" on="0"/>
        <pt x="-320" y="614" on="0"/>
        <pt x="-320" y="584" on="1"/>
        <pt x="-320" y="560" on="0"/>
        <pt x="-305" y="515" on="0"/>
        <pt x="-291" y="492" on="1"/>
        <pt x="-317" y="492" on="1"/>
        <pt x="-349" y="509" on="0"/>
        <pt x="-392" y="570" on="0"/>
        <pt x="-392" y="611" on="1"/>
        <pt x="-392" y="646" on="0"/>
        <pt x="-360" y="709" on="0"/>
        <pt x="-297" y="757" on="0"/>
        <pt x="-205" y="785" on="0"/>
      </contour>
    </TTGlyph>
    <TTGlyph name="imatra.tam" xMin="-379" yMin="0" xMax="161" yMax="785">
      <contour>
        <pt x="-136" y="785" on="1"/>
        <pt x="5" y="785" on="0"/>
        <pt x="161" y="600" on="0"/>
        <pt x="161" y="420" on="1"/>
        <pt x="161" y="0" on="1"/>
        <pt x="92" y="0" on="1"/>
        <pt x="92" y="420" on="1"/>
        <pt x="92" y="574" on="0"/>
        <pt x="-23" y="719" on="0"/>
        <pt x="-131" y="719" on="1"/>
        <pt x="-170" y="719" on="0"/>
        <pt x="-236" y="699" on="0"/>
        <pt x="-282" y="663" on="0"/>
        <pt x="-308" y="613" on="0"/>
        <pt x="-308" y="584" on="1"/>
        <pt x="-308" y="533" on="0"/>
        <pt x="-276" y="492" on="1"/>
        <pt x="-301" y="492" on="1"/>
        <pt x="-337" y="508" on="0"/>
        <pt x="-379" y="573" on="0"/>
        <pt x="-379" y="613" on="1"/>
        <pt x="-379" y="649" on="0"/>
        <pt x="-346" y="712" on="0"/>
        <pt x="-283" y="758" on="0"/>
        <pt x="-193" y="785" on="0"/>
      </contour>
    </TTGlyph>
    <TTGlyph name="ja.tam" xMin="65" yMin="-254" xMax="791" yMax="511">
      <contour>
        <pt x="268" y="511" on="1"/>
        <pt x="336" y="511" on="0"/>
        <pt x="427" y="442" on="0"/>
        <pt x="448" y="383" on="1"/>
        <pt x="468" y="443" on="0"/>
        <pt x="553" y="511" on="0"/>
        <pt x="616" y="511" on="1"/>
        <pt x="652" y="511" on="0"/>
        <pt x="714" y="482" on="0"/>
        <pt x="761" y="430" on="0"/>
        <pt x="788" y="359" on="0"/>
        <pt x="788" y="317" on="1"/>
        <pt x="788" y="246" on="0"/>
        <pt x="731" y="146" on="0"/>
        <pt x="635" y="82" on="0"/>
        <pt x="510" y="52" on="0"/>
        <pt x="442" y="52" on="1"/>
        <pt x="272" y="52" on="1"/>
        <pt x="244" y="52" on="0"/>
        <pt x="196" y="35" on="0"/>
        <pt x="160" y="4" on="0"/>
        <pt x="139" y="-40" on="0"/>
        <pt x="139" y="-68" on="1"/>
        <pt x="139" y="-95" on="0"/>
        <pt x="160" y="-139" on="0"/>
        <pt x="196" y="-170" on="0"/>
        <pt x="244" y="-187" on="0"/>
        <pt x="271" y="-187" on="1"/>
        <pt x="305" y="-187" on="0"/>
        <pt x="368" y="-159" on="0"/>
        <pt x="429" y="-117" on="0"/>
        <pt x="489" y="-68" on="0"/>
        <pt x="552" y="-26" on="0"/>
        <pt x="619" y="2" on="0"/>
        <pt x="656" y="2" on="1"/>
        <pt x="689" y="2" on="0"/>
        <pt x="739" y="-17" on="0"/>
        <pt x="774" y="-49" on="0"/>
        <pt x="791" y="-92" on="0"/>
        <pt x="791" y="-115" on="1"/>
        <pt x="791" y="-172" on="0"/>
        <pt x="707" y="-244" on="0"/>
        <pt x="623" y="-254" on="1"/>
        <pt x="579" y="-213" on="1"/>
        <pt x="641" y="-206" on="0"/>
        <pt x="718" y="-161" on="0"/>
        <pt x="718" y="-120" on="1"/>
        <pt x="718" y="-94" on="0"/>
        <pt x="681" y="-57" on="0"/>
        <pt x="651" y="-57" on="1"/>
        <pt x="622" y="-57" on="0"/>
        <pt x="565" y="-86" on="0"/>
        <pt x="507" y="-128" on="0"/>
        <pt x="446" y="-179" on="0"/>
        <pt x="381" y="-221" on="0"/>
        <pt x="310" y="-250" on="0"/>
        <pt x="271" y="-250" on="1"/>
        <pt x="226" y="-250" on="0"/>
        <pt x="151" y="-224" on="0"/>
        <pt x="96" y="-176" on="0"/>
        <pt x="65" y="-109" on="0"/>
        <pt x="65" y="-68" on="1"/>
        <pt x="65" y="-25" on="0"/>
        <pt x="96" y="41" on="0"/>
        <pt x="151" y="86" on="0"/>
        <pt x="227" y="110" on="0"/>
        <pt x="272" y="110" on="1"/>
        <pt x="441" y="110" on="1"/>
        <pt x="500" y="110" on="0"/>
        <pt x="600" y="134" on="0"/>
        <pt x="673" y="185" on="0"/>
        <pt x="714" y="264" on="0"/>
        <pt x="714" y="320" on="1"/>
        <pt x="714" y="383" on="0"/>
        <pt x="659" y="451" on="0"/>
        <pt x="615" y="451" on="1"/>
        <pt x="567" y="451" on="0"/>
        <pt x="503" y="371" on="0"/>
        <pt x="503" y="287" on="1"/>
        <pt x="503" y="220" on="1"/>
        <pt x="434" y="220" on="1"/>
        <pt x="434" y="270" on="1"/>
        <pt x="434" y="302" on="0"/>
        <pt x="418" y="363" on="0"/>
        <pt x="385" y="411" on="0"/>
        <pt x="336" y="442" on="0"/>
        <pt x="303" y="445" on="1"/>
        <pt x="290" y="449" on="0"/>
        <pt x="255" y="449" on="0"/>
        <pt x="242" y="447" on="1"/>
        <pt x="290" y="421" on="0"/>
        <pt x="339" y="339" on="0"/>
        <pt x="339" y="297" on="1"/>
        <pt x="339" y="247" on="0"/>
        <pt x="271" y="183" on="0"/>
        <pt x="208" y="183" on="1"/>
        <pt x="179" y="183" on="0"/>
        <pt x="128" y="201" on="0"/>
        <pt x="88" y="238" on="0"/>
        <pt x="65" y="292" on="0"/>
        <pt x="65" y="328" on="1"/>
        <pt x="65" y="366" on="0"/>
        <pt x="97" y="433" on="0"/>
        <pt x="153" y="482" on="0"/>
        <pt x="226" y="511" on="0"/>
      </contour>
      <contour>
        <pt x="207" y="434" on="1"/>
        <pt x="175" y="417" on="0"/>
        <pt x="135" y="360" on="0"/>
        <pt x="135" y="320" on="1"/>
        <pt x="135" y="278" on="0"/>
        <pt x="179" y="238" on="0"/>
        <pt x="208" y="238" on="1"/>
        <pt x="244" y="238" on="0"/>
        <pt x="287" y="283" on="0"/>
        <pt x="287" y="319" on="1"/>
        <pt x="287" y="352" on="0"/>
        <pt x="246" y="413" on="0"/>
      </contour>
    </TTGlyph>
    <TTGlyph name="jansv.tam" xMin="65" yMin="-254" xMax="791" yMax="806">
      <contour>
        <pt x="268" y="511" on="1"/>
        <pt x="336" y="511" on="0"/>
        <pt x="427" y="442" on="0"/>
        <pt x="448" y="383" on="1"/>
        <pt x="468" y="443" on="0"/>
        <pt x="553" y="511" on="0"/>
        <pt x="616" y="511" on="1"/>
        <pt x="652" y="511" on="0"/>
        <pt x="714" y="482" on="0"/>
        <pt x="761" y="430" on="0"/>
        <pt x="788" y="359" on="0"/>
        <pt x="788" y="317" on="1"/>
        <pt x="788" y="246" on="0"/>
        <pt x="731" y="146" on="0"/>
        <pt x="635" y="82" on="0"/>
        <pt x="510" y="52" on="0"/>
        <pt x="442" y="52" on="1"/>
        <pt x="272" y="52" on="1"/>
        <pt x="244" y="52" on="0"/>
        <pt x="196" y="35" on="0"/>
        <pt x="160" y="4" on="0"/>
        <pt x="139" y="-40" on="0"/>
        <pt x="139" y="-68" on="1"/>
        <pt x="139" y="-95" on="0"/>
        <pt x="160" y="-139" on="0"/>
        <pt x="196" y="-170" on="0"/>
        <pt x="244" y="-187" on="0"/>
        <pt x="271" y="-187" on="1"/>
        <pt x="305" y="-187" on="0"/>
        <pt x="368" y="-159" on="0"/>
        <pt x="429" y="-117" on="0"/>
        <pt x="489" y="-68" on="0"/>
        <pt x="552" y="-26" on="0"/>
        <pt x="619" y="2" on="0"/>
        <pt x="656" y="2" on="1"/>
        <pt x="689" y="2" on="0"/>
        <pt x="739" y="-17" on="0"/>
        <pt x="774" y="-49" on="0"/>
        <pt x="791" y="-92" on="0"/>
        <pt x="791" y="-115" on="1"/>
        <pt x="791" y="-172" on="0"/>
        <pt x="707" y="-244" on="0"/>
        <pt x="623" y="-254" on="1"/>
        <pt x="579" y="-213" on="1"/>
        <pt x="641" y="-206" on="0"/>
        <pt x="718" y="-161" on="0"/>
        <pt x="718" y="-120" on="1"/>
        <pt x="718" y="-94" on="0"/>
        <pt x="681" y="-57" on="0"/>
        <pt x="651" y="-57" on="1"/>
        <pt x="622" y="-57" on="0"/>
        <pt x="565" y="-86" on="0"/>
        <pt x="507" y="-128" on="0"/>
        <pt x="446" y="-179" on="0"/>
        <pt x="381" y="-221" on="0"/>
        <pt x="310" y="-250" on="0"/>
        <pt x="271" y="-250" on="1"/>
        <pt x="226" y="-250" on="0"/>
        <pt x="151" y="-224" on="0"/>
        <pt x="96" y="-176" on="0"/>
        <pt x="65" y="-109" on="0"/>
        <pt x="65" y="-68" on="1"/>
        <pt x="65" y="-25" on="0"/>
        <pt x="96" y="41" on="0"/>
        <pt x="151" y="86" on="0"/>
        <pt x="227" y="110" on="0"/>
        <pt x="272" y="110" on="1"/>
        <pt x="441" y="110" on="1"/>
        <pt x="500" y="110" on="0"/>
        <pt x="600" y="134" on="0"/>
        <pt x="673" y="185" on="0"/>
        <pt x="714" y="264" on="0"/>
        <pt x="714" y="320" on="1"/>
        <pt x="714" y="383" on="0"/>
        <pt x="659" y="451" on="0"/>
        <pt x="615" y="451" on="1"/>
        <pt x="567" y="451" on="0"/>
        <pt x="503" y="371" on="0"/>
        <pt x="503" y="287" on="1"/>
        <pt x="503" y="220" on="1"/>
        <pt x="434" y="220" on="1"/>
        <pt x="434" y="270" on="1"/>
        <pt x="434" y="302" on="0"/>
        <pt x="418" y="363" on="0"/>
        <pt x="385" y="411" on="0"/>
        <pt x="336" y="442" on="0"/>
        <pt x="303" y="445" on="1"/>
        <pt x="290" y="449" on="0"/>
        <pt x="255" y="449" on="0"/>
        <pt x="242" y="447" on="1"/>
        <pt x="290" y="421" on="0"/>
        <pt x="339" y="339" on="0"/>
        <pt x="339" y="297" on="1"/>
        <pt x="339" y="247" on="0"/>
        <pt x="271" y="183" on="0"/>
        <pt x="208" y="183" on="1"/>
        <pt x="179" y="183" on="0"/>
        <pt x="128" y="201" on="0"/>
        <pt x="88" y="238" on="0"/>
        <pt x="65" y="292" on="0"/>
        <pt x="65" y="328" on="1"/>
        <pt x="65" y="366" on="0"/>
        <pt x="97" y="433" on="0"/>
        <pt x="153" y="482" on="0"/>
        <pt x="226" y="511" on="0"/>
      </contour>
      <contour>
        <pt x="207" y="434" on="1"/>
        <pt x="175" y="417" on="0"/>
        <pt x="135" y="360" on="0"/>
        <pt x="135" y="320" on="1"/>
        <pt x="135" y="278" on="0"/>
        <pt x="179" y="238" on="0"/>
        <pt x="208" y="238" on="1"/>
        <pt x="244" y="238" on="0"/>
        <pt x="287" y="283" on="0"/>
        <pt x="287" y="319" on="1"/>
        <pt x="287" y="352" on="0"/>
        <pt x="246" y="413" on="0"/>
      </contour>
      <contour>
        <pt x="448" y="806" on="1"/>
        <pt x="472" y="806" on="0"/>
        <pt x="515" y="791" on="0"/>
        <pt x="548" y="762" on="0"/>
        <pt x="567" y="721" on="0"/>
        <pt x="567" y="694" on="1"/>
        <pt x="567" y="667" on="0"/>
        <pt x="548" y="625" on="0"/>
        <pt x="515" y="597" on="0"/>
        <pt x="472" y="582" on="0"/>
        <pt x="448" y="582" on="1"/>
        <pt x="400" y="582" on="0"/>
        <pt x="330" y="640" on="0"/>
        <pt x="330" y="694" on="1"/>
        <pt x="330" y="721" on="0"/>
        <pt x="349" y="762" on="0"/>
        <pt x="381" y="791" on="0"/>
        <pt x="424" y="806" on="0"/>
      </contour>
      <contour>
        <pt x="448" y="754" on="1"/>
        <pt x="422" y="754" on="0"/>
        <pt x="396" y="721" on="0"/>
        <pt x="396" y="694" on="1"/>
        <pt x="396" y="666" on="0"/>
        <pt x="422" y="634" on="0"/>
        <pt x="448" y="634" on="1"/>
        <pt x="474" y="634" on="0"/>
        <pt x="501" y="666" on="0"/>
        <pt x="501" y="694" on="1"/>
        <pt x="501" y="721" on="0"/>
        <pt x="474" y="754" on="0"/>
      </contour>
    </TTGlyph>
    <TTGlyph name="ji.tam" xMin="61" yMin="-254" xMax="969" yMax="785">
      <contour>
        <pt x="745" y="785" on="1"/>
        <pt x="796" y="785" on="0"/>
        <pt x="879" y="748" on="0"/>
        <pt x="937" y="678" on="0"/>
        <pt x="969" y="577" on="0"/>
        <pt x="969" y="513" on="1"/>
        <pt x="969" y="0" on="1"/>
        <pt x="900" y="0" on="1"/>
        <pt x="900" y="512" on="1"/>
        <pt x="900" y="612" on="0"/>
        <pt x="823" y="719" on="0"/>
        <pt x="752" y="719" on="1"/>
        <pt x="701" y="719" on="0"/>
        <pt x="635" y="656" on="0"/>
        <pt x="635" y="607" on="1"/>
        <pt x="635" y="537" on="0"/>
        <pt x="693" y="489" on="1"/>
        <pt x="734" y="465" on="0"/>
        <pt x="784" y="375" on="0"/>
        <pt x="784" y="317" on="1"/>
        <pt x="784" y="246" on="0"/>
        <pt x="727" y="146" on="0"/>
        <pt x="631" y="82" on="0"/>
        <pt x="506" y="52" on="0"/>
        <pt x="438" y="52" on="1"/>
        <pt x="268" y="52" on="1"/>
        <pt x="240" y="52" on="0"/>
        <pt x="192" y="35" on="0"/>
        <pt x="156" y="4" on="0"/>
        <pt x="135" y="-40" on="0"/>
        <pt x="135" y="-68" on="1"/>
        <pt x="135" y="-95" on="0"/>
        <pt x="156" y="-139" on="0"/>
        <pt x="192" y="-170" on="0"/>
        <pt x="240" y="-187" on="0"/>
        <pt x="267" y="-187" on="1"/>
        <pt x="301" y="-187" on="0"/>
        <pt x="364" y="-159" on="0"/>
        <pt x="425" y="-117" on="0"/>
        <pt x="485" y="-68" on="0"/>
        <pt x="548" y="-26" on="0"/>
        <pt x="615" y="2" on="0"/>
        <pt x="652" y="2" on="1"/>
        <pt x="685" y="2" on="0"/>
        <pt x="735" y="-17" on="0"/>
        <pt x="770" y="-49" on="0"/>
        <pt x="787" y="-92" on="0"/>
        <pt x="787" y="-115" on="1"/>
        <pt x="787" y="-172" on="0"/>
        <pt x="703" y="-244" on="0"/>
        <pt x="619" y="-254" on="1"/>
        <pt x="575" y="-213" on="1"/>
        <pt x="637" y="-206" on="0"/>
        <pt x="714" y="-161" on="0"/>
        <pt x="714" y="-120" on="1"/>
        <pt x="714" y="-94" on="0"/>
        <pt x="677" y="-57" on="0"/>
        <pt x="647" y="-57" on="1"/>
        <pt x="618" y="-57" on="0"/>
        <pt x="561" y="-86" on="0"/>
        <pt x="503" y="-128" on="0"/>
        <pt x="442" y="-179" on="0"/>
        <pt x="377" y="-221" on="0"/>
        <pt x="306" y="-250" on="0"/>
        <pt x="267" y="-250" on="1"/>
        <pt x="222" y="-250" on="0"/>
        <pt x="147" y="-224" on="0"/>
        <pt x="92" y="-176" on="0"/>
        <pt x="61" y="-109" on="0"/>
        <pt x="61" y="-68" on="1"/>
        <pt x="61" y="-25" on="0"/>
        <pt x="92" y="41" on="0"/>
        <pt x="147" y="86" on="0"/>
        <pt x="223" y="110" on="0"/>
        <pt x="268" y="110" on="1"/>
        <pt x="437" y="110" on="1"/>
        <pt x="496" y="110" on="0"/>
        <pt x="596" y="134" on="0"/>
        <pt x="669" y="185" on="0"/>
        <pt x="710" y="264" on="0"/>
        <pt x="710" y="320" on="1"/>
        <pt x="710" y="383" on="0"/>
        <pt x="655" y="451" on="0"/>
        <pt x="611" y="451" on="1"/>
        <pt x="563" y="451" on="0"/>
        <pt x="499" y="371" on="0"/>
        <pt x="499" y="287" on="1"/>
        <pt x="499" y="220" on="1"/>
        <pt x="430" y="220" on="1"/>
        <pt x="430" y="270" on="1"/>
        <pt x="430" y="302" on="0"/>
        <pt x="414" y="363" on="0"/>
        <pt x="381" y="411" on="0"/>
        <pt x="332" y="442" on="0"/>
        <pt x="299" y="445" on="1"/>
        <pt x="286" y="449" on="0"/>
        <pt x="251" y="449" on="0"/>
        <pt x="238" y="447" on="1"/>
        <pt x="286" y="421" on="0"/>
        <pt x="335" y="339" on="0"/>
        <pt x="335" y="297" on="1"/>
        <pt x="335" y="247" on="0"/>
        <pt x="267" y="183" on="0"/>
        <pt x="204" y="183" on="1"/>
        <pt x="175" y="183" on="0"/>
        <pt x="124" y="201" on="0"/>
        <pt x="84" y="238" on="0"/>
        <pt x="61" y="292" on="0"/>
        <pt x="61" y="328" on="1"/>
        <pt x="61" y="366" on="0"/>
        <pt x="93" y="433" on="0"/>
        <pt x="149" y="482" on="0"/>
        <pt x="222" y="511" on="0"/>
        <pt x="264" y="511" on="1"/>
        <pt x="332" y="511" on="0"/>
        <pt x="423" y="442" on="0"/>
        <pt x="444" y="383" on="1"/>
        <pt x="464" y="443" on="0"/>
        <pt x="549" y="511" on="0"/>
        <pt x="612" y="511" on="1"/>
        <pt x="617" y="511" on="0"/>
        <pt x="624" y="510" on="0"/>
        <pt x="629" y="510" on="1"/>
        <pt x="600" y="531" on="0"/>
        <pt x="562" y="595" on="0"/>
        <pt x="562" y="633" on="1"/>
        <pt x="562" y="664" on="0"/>
        <pt x="587" y="719" on="0"/>
        <pt x="633" y="761" on="0"/>
        <pt x="701" y="785" on="0"/>
      </contour>
      <contour>
        <pt x="203" y="434" on="1"/>
        <pt x="171" y="417" on="0"/>
        <pt x="131" y="360" on="0"/>
        <pt x="131" y="320" on="1"/>
        <pt x="131" y="278" on="0"/>
        <pt x="175" y="238" on="0"/>
        <pt x="204" y="238" on="1"/>
        <pt x="240" y="238" on="0"/>
        <pt x="283" y="283" on="0"/>
        <pt x="283" y="319" on="1"/>
        <pt x="283" y="352" on="0"/>
        <pt x="242" y="413" on="0"/>
      </contour>
    </TTGlyph>
    <TTGlyph name="jii.tam" xMin="65" yMin="-254" xMax="853" yMax="813">
      <contour>
        <pt x="676" y="813" on="1"/>
        <pt x="715" y="813" on="0"/>
        <pt x="781" y="790" on="0"/>
        <pt x="827" y="752" on="0"/>
        <pt x="853" y="701" on="0"/>
        <pt x="853" y="674" on="1"/>
        <pt x="853" y="624" on="0"/>
        <pt x="787" y="566" on="0"/>
        <pt x="733" y="566" on="1"/>
        <pt x="681" y="566" on="0"/>
        <pt x="624" y="624" on="0"/>
        <pt x="624" y="663" on="1"/>
        <pt x="624" y="691" on="0"/>
        <pt x="646" y="736" on="0"/>
        <pt x="665" y="756" on="1"/>
        <pt x="641" y="753" on="0"/>
        <pt x="597" y="732" on="0"/>
        <pt x="564" y="699" on="0"/>
        <pt x="545" y="655" on="0"/>
        <pt x="545" y="629" on="1"/>
        <pt x="545" y="587" on="0"/>
        <pt x="600" y="522" on="0"/>
        <pt x="651" y="507" on="1"/>
        <pt x="659" y="505" on="0"/>
        <pt x="663" y="503" on="1"/>
        <pt x="666" y="503" on="1"/>
        <pt x="665" y="503" on="1"/>
        <pt x="719" y="486" on="0"/>
        <pt x="788" y="386" on="0"/>
        <pt x="788" y="317" on="1"/>
        <pt x="788" y="246" on="0"/>
        <pt x="731" y="146" on="0"/>
        <pt x="635" y="82" on="0"/>
        <pt x="510" y="52" on="0"/>
        <pt x="442" y="52" on="1"/>
        <pt x="272" y="52" on="1"/>
        <pt x="244" y="52" on="0"/>
        <pt x="196" y="35" on="0"/>
        <pt x="160" y="4" on="0"/>
        <pt x="139" y="-40" on="0"/>
        <pt x="139" y="-68" on="1"/>
        <pt x="139" y="-95" on="0"/>
        <pt x="160" y="-139" on="0"/>
        <pt x="196" y="-170" on="0"/>
        <pt x="244" y="-187" on="0"/>
        <pt x="271" y="-187" on="1"/>
        <pt x="305" y="-187" on="0"/>
        <pt x="368" y="-159" on="0"/>
        <pt x="429" y="-117" on="0"/>
        <pt x="489" y="-68" on="0"/>
        <pt x="552" y="-26" on="0"/>
        <pt x="619" y="2" on="0"/>
        <pt x="656" y="2" on="1"/>
        <pt x="689" y="2" on="0"/>
        <pt x="739" y="-17" on="0"/>
        <pt x="774" y="-49" on="0"/>
        <pt x="791" y="-92" on="0"/>
        <pt x="791" y="-115" on="1"/>
        <pt x="791" y="-172" on="0"/>
        <pt x="707" y="-244" on="0"/>
        <pt x="623" y="-254" on="1"/>
        <pt x="579" y="-213" on="1"/>
        <pt x="641" y="-206" on="0"/>
        <pt x="718" y="-161" on="0"/>
        <pt x="718" y="-120" on="1"/>
        <pt x="718" y="-94" on="0"/>
        <pt x="681" y="-57" on="0"/>
        <pt x="651" y="-57" on="1"/>
        <pt x="622" y="-57" on="0"/>
        <pt x="565" y="-86" on="0"/>
        <pt x="507" y="-128" on="0"/>
        <pt x="446" y="-179" on="0"/>
        <pt x="381" y="-221" on="0"/>
        <pt x="310" y="-250" on="0"/>
        <pt x="271" y="-250" on="1"/>
        <pt x="226" y="-250" on="0"/>
        <pt x="151" y="-224" on="0"/>
        <pt x="96" y="-176" on="0"/>
        <pt x="65" y="-109" on="0"/>
        <pt x="65" y="-68" on="1"/>
        <pt x="65" y="-25" on="0"/>
        <pt x="96" y="41" on="0"/>
        <pt x="151" y="86" on="0"/>
        <pt x="227" y="110" on="0"/>
        <pt x="272" y="110" on="1"/>
        <pt x="441" y="110" on="1"/>
        <pt x="500" y="110" on="0"/>
        <pt x="600" y="134" on="0"/>
        <pt x="673" y="185" on="0"/>
        <pt x="714" y="264" on="0"/>
        <pt x="714" y="320" on="1"/>
        <pt x="714" y="383" on="0"/>
        <pt x="659" y="451" on="0"/>
        <pt x="615" y="451" on="1"/>
        <pt x="567" y="451" on="0"/>
        <pt x="503" y="371" on="0"/>
        <pt x="503" y="287" on="1"/>
        <pt x="503" y="220" on="1"/>
        <pt x="434" y="220" on="1"/>
        <pt x="434" y="270" on="1"/>
        <pt x="434" y="302" on="0"/>
        <pt x="418" y="363" on="0"/>
        <pt x="385" y="411" on="0"/>
        <pt x="336" y="442" on="0"/>
        <pt x="303" y="445" on="1"/>
        <pt x="290" y="449" on="0"/>
        <pt x="255" y="449" on="0"/>
        <pt x="242" y="447" on="1"/>
        <pt x="290" y="421" on="0"/>
        <pt x="339" y="339" on="0"/>
        <pt x="339" y="297" on="1"/>
        <pt x="339" y="247" on="0"/>
        <pt x="271" y="183" on="0"/>
        <pt x="208" y="183" on="1"/>
        <pt x="179" y="183" on="0"/>
        <pt x="128" y="201" on="0"/>
        <pt x="88" y="238" on="0"/>
        <pt x="65" y="292" on="0"/>
        <pt x="65" y="328" on="1"/>
        <pt x="65" y="366" on="0"/>
        <pt x="97" y="433" on="0"/>
        <pt x="153" y="482" on="0"/>
        <pt x="226" y="511" on="0"/>
        <pt x="268" y="511" on="1"/>
        <pt x="336" y="511" on="0"/>
        <pt x="427" y="442" on="0"/>
        <pt x="448" y="383" on="1"/>
        <pt x="463" y="430" on="0"/>
        <pt x="522" y="492" on="0"/>
        <pt x="565" y="504" on="1"/>
        <pt x="524" y="527" on="0"/>
        <pt x="480" y="603" on="0"/>
        <pt x="480" y="646" on="1"/>
        <pt x="480" y="680" on="0"/>
        <pt x="509" y="741" on="0"/>
        <pt x="561" y="787" on="0"/>
        <pt x="633" y="813" on="0"/>
      </contour>
      <contour>
        <pt x="207" y="434" on="1"/>
        <pt x="175" y="417" on="0"/>
        <pt x="135" y="360" on="0"/>
        <pt x="135" y="320" on="1"/>
        <pt x="135" y="278" on="0"/>
        <pt x="179" y="238" on="0"/>
        <pt x="208" y="238" on="1"/>
        <pt x="244" y="238" on="0"/>
        <pt x="287" y="283" on="0"/>
        <pt x="287" y="319" on="1"/>
        <pt x="287" y="352" on="0"/>
        <pt x="246" y="413" on="0"/>
      </contour>
      <contour>
        <pt x="701" y="757" on="1"/>
        <pt x="687" y="737" on="0"/>
        <pt x="670" y="697" on="0"/>
        <pt x="670" y="676" on="1"/>
        <pt x="670" y="650" on="0"/>
        <pt x="701" y="618" on="0"/>
        <pt x="727" y="618" on="1"/>
        <pt x="754" y="618" on="0"/>
        <pt x="785" y="653" on="0"/>
        <pt x="785" y="677" on="1"/>
        <pt x="785" y="708" on="0"/>
        <pt x="737" y="750" on="0"/>
      </contour>
    </TTGlyph>
    <TTGlyph name="ju.tam" xMin="65" yMin="-254" xMax="1205" yMax="511">
      <contour>
        <pt x="268" y="511" on="1"/>
        <pt x="336" y="511" on="0"/>
        <pt x="427" y="442" on="0"/>
        <pt x="448" y="383" on="1"/>
        <pt x="468" y="443" on="0"/>
        <pt x="553" y="511" on="0"/>
        <pt x="616" y="511" on="1"/>
        <pt x="641" y="511" on="0"/>
        <pt x="665" y="503" on="1"/>
        <pt x="1031" y="503" on="1"/>
        <pt x="1109" y="503" on="0"/>
        <pt x="1205" y="429" on="0"/>
        <pt x="1205" y="362" on="1"/>
        <pt x="1205" y="332" on="0"/>
        <pt x="1185" y="278" on="0"/>
        <pt x="1146" y="239" on="0"/>
        <pt x="1091" y="216" on="0"/>
        <pt x="1055" y="216" on="1"/>
        <pt x="1019" y="216" on="0"/>
        <pt x="964" y="242" on="0"/>
        <pt x="927" y="286" on="0"/>
        <pt x="908" y="342" on="0"/>
        <pt x="908" y="372" on="1"/>
        <pt x="908" y="446" on="1"/>
        <pt x="745" y="446" on="1"/>
        <pt x="765" y="420" on="0"/>
        <pt x="788" y="355" on="0"/>
        <pt x="788" y="317" on="1"/>
        <pt x="788" y="246" on="0"/>
        <pt x="731" y="146" on="0"/>
        <pt x="635" y="82" on="0"/>
        <pt x="510" y="52" on="0"/>
        <pt x="442" y="52" on="1"/>
        <pt x="272" y="52" on="1"/>
        <pt x="244" y="52" on="0"/>
        <pt x="196" y="35" on="0"/>
        <pt x="160" y="4" on="0"/>
        <pt x="139" y="-40" on="0"/>
        <pt x="139" y="-68" on="1"/>
        <pt x="139" y="-95" on="0"/>
        <pt x="160" y="-139" on="0"/>
        <pt x="196" y="-170" on="0"/>
        <pt x="244" y="-187" on="0"/>
        <pt x="271" y="-187" on="1"/>
        <pt x="305" y="-187" on="0"/>
        <pt x="368" y="-159" on="0"/>
        <pt x="429" y="-117" on="0"/>
        <pt x="489" y="-68" on="0"/>
        <pt x="552" y="-26" on="0"/>
        <pt x="619" y="2" on="0"/>
        <pt x="656" y="2" on="1"/>
        <pt x="689" y="2" on="0"/>
        <pt x="739" y="-17" on="0"/>
        <pt x="774" y="-49" on="0"/>
        <pt x="791" y="-92" on="0"/>
        <pt x="791" y="-115" on="1"/>
        <pt x="791" y="-172" on="0"/>
        <pt x="707" y="-244" on="0"/>
        <pt x="623" y="-254" on="1"/>
        <pt x="579" y="-213" on="1"/>
        <pt x="641" y="-206" on="0"/>
        <pt x="718" y="-161" on="0"/>
        <pt x="718" y="-120" on="1"/>
        <pt x="718" y="-94" on="0"/>
        <pt x="681" y="-57" on="0"/>
        <pt x="651" y="-57" on="1"/>
        <pt x="622" y="-57" on="0"/>
        <pt x="565" y="-86" on="0"/>
        <pt x="507" y="-128" on="0"/>
        <pt x="446" y="-179" on="0"/>
        <pt x="381" y="-221" on="0"/>
        <pt x="310" y="-250" on="0"/>
        <pt x="271" y="-250" on="1"/>
        <pt x="226" y="-250" on="0"/>
        <pt x="151" y="-224" on="0"/>
        <pt x="96" y="-176" on="0"/>
        <pt x="65" y="-109" on="0"/>
        <pt x="65" y="-68" on="1"/>
        <pt x="65" y="-25" on="0"/>
        <pt x="96" y="41" on="0"/>
        <pt x="151" y="86" on="0"/>
        <pt x="227" y="110" on="0"/>
        <pt x="272" y="110" on="1"/>
        <pt x="441" y="110" on="1"/>
        <pt x="500" y="110" on="0"/>
        <pt x="600" y="134" on="0"/>
        <pt x="673" y="185" on="0"/>
        <pt x="714" y="264" on="0"/>
        <pt x="714" y="320" on="1"/>
        <pt x="714" y="383" on="0"/>
        <pt x="659" y="451" on="0"/>
        <pt x="615" y="451" on="1"/>
        <pt x="567" y="451" on="0"/>
        <pt x="503" y="371" on="0"/>
        <pt x="503" y="287" on="1"/>
        <pt x="503" y="220" on="1"/>
        <pt x="434" y="220" on="1"/>
        <pt x="434" y="270" on="1"/>
        <pt x="434" y="302" on="0"/>
        <pt x="418" y="363" on="0"/>
        <pt x="385" y="411" on="0"/>
        <pt x="336" y="442" on="0"/>
        <pt x="303" y="445" on="1"/>
        <pt x="290" y="449" on="0"/>
        <pt x="255" y="449" on="0"/>
        <pt x="242" y="447" on="1"/>
        <pt x="290" y="421" on="0"/>
        <pt x="339" y="339" on="0"/>
        <pt x="339" y="297" on="1"/>
        <pt x="339" y="247" on="0"/>
        <pt x="271" y="183" on="0"/>
        <pt x="208" y="183" on="1"/>
        <pt x="179" y="183" on="0"/>
        <pt x="128" y="201" on="0"/>
        <pt x="88" y="238" on="0"/>
        <pt x="65" y="292" on="0"/>
        <pt x="65" y="328" on="1"/>
        <pt x="65" y="366" on="0"/>
        <pt x="97" y="433" on="0"/>
        <pt x="153" y="482" on="0"/>
        <pt x="226" y="511" on="0"/>
      </contour>
      <contour>
        <pt x="974" y="446" on="1"/>
        <pt x="974" y="367" on="1"/>
        <pt x="974" y="321" on="0"/>
        <pt x="1016" y="272" on="0"/>
        <pt x="1052" y="272" on="1"/>
        <pt x="1087" y="272" on="0"/>
        <pt x="1133" y="324" on="0"/>
        <pt x="1133" y="362" on="1"/>
        <pt x="1133" y="404" on="0"/>
        <pt x="1084" y="446" on="0"/>
        <pt x="1031" y="446" on="1"/>
      </contour>
      <contour>
        <pt x="207" y="434" on="1"/>
        <pt x="175" y="417" on="0"/>
        <pt x="135" y="360" on="0"/>
        <pt x="135" y="320" on="1"/>
        <pt x="135" y="278" on="0"/>
        <pt x="179" y="238" on="0"/>
        <pt x="208" y="238" on="1"/>
        <pt x="244" y="238" on="0"/>
        <pt x="287" y="283" on="0"/>
        <pt x="287" y="319" on="1"/>
        <pt x="287" y="352" on="0"/>
        <pt x="246" y="413" on="0"/>
      </contour>
    </TTGlyph>
    <TTGlyph name="juu.tam" xMin="65" yMin="-254" xMax="1498" yMax="658">
      <contour>
        <pt x="1233" y="658" on="1"/>
        <pt x="1287" y="658" on="0"/>
        <pt x="1384" y="616" on="0"/>
        <pt x="1456" y="540" on="0"/>
        <pt x="1498" y="432" on="0"/>
        <pt x="1498" y="366" on="1"/>
        <pt x="1498" y="295" on="0"/>
        <pt x="1457" y="174" on="0"/>
        <pt x="1377" y="86" on="0"/>
        <pt x="1256" y="35" on="0"/>
        <pt x="1177" y="35" on="1"/>
        <pt x="1072" y="35" on="0"/>
        <pt x="903" y="142" on="0"/>
        <pt x="855" y="246" on="1"/>
        <pt x="902" y="281" on="1"/>
        <pt x="947" y="181" on="0"/>
        <pt x="1084" y="99" on="0"/>
        <pt x="1174" y="99" on="1"/>
        <pt x="1235" y="99" on="0"/>
        <pt x="1329" y="138" on="0"/>
        <pt x="1393" y="208" on="0"/>
        <pt x="1426" y="306" on="0"/>
        <pt x="1426" y="366" on="1"/>
        <pt x="1426" y="420" on="0"/>
        <pt x="1396" y="505" on="0"/>
        <pt x="1343" y="564" on="0"/>
        <pt x="1273" y="595" on="0"/>
        <pt x="1233" y="595" on="1"/>
        <pt x="1181" y="595" on="0"/>
        <pt x="1103" y="545" on="0"/>
        <pt x="1083" y="503" on="1"/>
        <pt x="1140" y="503" on="1"/>
        <pt x="1219" y="503" on="0"/>
        <pt x="1313" y="429" on="0"/>
        <pt x="1313" y="362" on="1"/>
        <pt x="1313" y="332" on="0"/>
        <pt x="1293" y="278" on="0"/>
        <pt x="1254" y="239" on="0"/>
        <pt x="1198" y="216" on="0"/>
        <pt x="1163" y="216" on="1"/>
        <pt x="1126" y="216" on="0"/>
        <pt x="1071" y="242" on="0"/>
        <pt x="1034" y="286" on="0"/>
        <pt x="1015" y="342" on="0"/>
        <pt x="1015" y="372" on="1"/>
        <pt x="1015" y="440" on="1"/>
        <pt x="750" y="440" on="1"/>
        <pt x="768" y="415" on="0"/>
        <pt x="788" y="352" on="0"/>
        <pt x="788" y="317" on="1"/>
        <pt x="788" y="246" on="0"/>
        <pt x="731" y="146" on="0"/>
        <pt x="635" y="82" on="0"/>
        <pt x="510" y="52" on="0"/>
        <pt x="442" y="52" on="1"/>
        <pt x="272" y="52" on="1"/>
        <pt x="244" y="52" on="0"/>
        <pt x="196" y="35" on="0"/>
        <pt x="160" y="4" on="0"/>
        <pt x="139" y="-40" on="0"/>
        <pt x="139" y="-68" on="1"/>
        <pt x="139" y="-95" on="0"/>
        <pt x="160" y="-139" on="0"/>
        <pt x="196" y="-170" on="0"/>
        <pt x="244" y="-187" on="0"/>
        <pt x="271" y="-187" on="1"/>
        <pt x="305" y="-187" on="0"/>
        <pt x="368" y="-159" on="0"/>
        <pt x="429" y="-117" on="0"/>
        <pt x="489" y="-68" on="0"/>
        <pt x="552" y="-26" on="0"/>
        <pt x="619" y="2" on="0"/>
        <pt x="656" y="2" on="1"/>
        <pt x="689" y="2" on="0"/>
        <pt x="739" y="-17" on="0"/>
        <pt x="774" y="-49" on="0"/>
        <pt x="791" y="-92" on="0"/>
        <pt x="791" y="-115" on="1"/>
        <pt x="791" y="-172" on="0"/>
        <pt x="707" y="-244" on="0"/>
        <pt x="623" y="-254" on="1"/>
        <pt x="579" y="-213" on="1"/>
        <pt x="641" y="-206" on="0"/>
        <pt x="718" y="-161" on="0"/>
        <pt x="718" y="-120" on="1"/>
        <pt x="718" y="-94" on="0"/>
        <pt x="681" y="-57" on="0"/>
        <pt x="651" y="-57" on="1"/>
        <pt x="622" y="-57" on="0"/>
        <pt x="565" y="-86" on="0"/>
        <pt x="507" y="-128" on="0"/>
        <pt x="446" y="-179" on="0"/>
        <pt x="381" y="-221" on="0"/>
        <pt x="310" y="-250" on="0"/>
        <pt x="271" y="-250" on="1"/>
        <pt x="226" y="-250" on="0"/>
        <pt x="151" y="-224" on="0"/>
        <pt x="96" y="-176" on="0"/>
        <pt x="65" y="-109" on="0"/>
        <pt x="65" y="-68" on="1"/>
        <pt x="65" y="-25" on="0"/>
        <pt x="96" y="41" on="0"/>
        <pt x="151" y="86" on="0"/>
        <pt x="227" y="110" on="0"/>
        <pt x="272" y="110" on="1"/>
        <pt x="441" y="110" on="1"/>
        <pt x="500" y="110" on="0"/>
        <pt x="600" y="134" on="0"/>
        <pt x="673" y="185" on="0"/>
        <pt x="714" y="264" on="0"/>
        <pt x="714" y="320" on="1"/>
        <pt x="714" y="383" on="0"/>
        <pt x="659" y="451" on="0"/>
        <pt x="615" y="451" on="1"/>
        <pt x="567" y="451" on="0"/>
        <pt x="503" y="371" on="0"/>
        <pt x="503" y="287" on="1"/>
        <pt x="503" y="220" on="1"/>
        <pt x="434" y="220" on="1"/>
        <pt x="434" y="270" on="1"/>
        <pt x="434" y="302" on="0"/>
        <pt x="418" y="363" on="0"/>
        <pt x="385" y="411" on="0"/>
        <pt x="336" y="442" on="0"/>
        <pt x="303" y="445" on="1"/>
        <pt x="290" y="449" on="0"/>
        <pt x="255" y="449" on="0"/>
        <pt x="242" y="447" on="1"/>
        <pt x="290" y="421" on="0"/>
        <pt x="339" y="339" on="0"/>
        <pt x="339" y="297" on="1"/>
        <pt x="339" y="247" on="0"/>
        <pt x="271" y="183" on="0"/>
        <pt x="208" y="183" on="1"/>
        <pt x="179" y="183" on="0"/>
        <pt x="128" y="201" on="0"/>
        <pt x="88" y="238" on="0"/>
        <pt x="65" y="292" on="0"/>
        <pt x="65" y="328" on="1"/>
        <pt x="65" y="366" on="0"/>
        <pt x="97" y="433" on="0"/>
        <pt x="153" y="482" on="0"/>
        <pt x="226" y="511" on="0"/>
        <pt x="268" y="511" on="1"/>
        <pt x="336" y="511" on="0"/>
        <pt x="427" y="442" on="0"/>
        <pt x="448" y="383" on="1"/>
        <pt x="468" y="443" on="0"/>
        <pt x="553" y="511" on="0"/>
        <pt x="616" y="511" on="1"/>
        <pt x="641" y="511" on="0"/>
        <pt x="665" y="503" on="1"/>
        <pt x="1020" y="503" on="1"/>
        <pt x="1039" y="574" on="0"/>
        <pt x="1152" y="658" on="0"/>
      </contour>
      <contour>
        <pt x="1081" y="367" on="1"/>
        <pt x="1081" y="321" on="0"/>
        <pt x="1124" y="272" on="0"/>
        <pt x="1159" y="272" on="1"/>
        <pt x="1194" y="272" on="0"/>
        <pt x="1241" y="324" on="0"/>
        <pt x="1241" y="362" on="1"/>
        <pt x="1241" y="443" on="0"/>
        <pt x="1140" y="443" on="1"/>
        <pt x="1081" y="443" on="1"/>
      </contour>
      <contour>
        <pt x="207" y="434" on="1"/>
        <pt x="175" y="417" on="0"/>
        <pt x="135" y="360" on="0"/>
        <pt x="135" y="320" on="1"/>
        <pt x="135" y="278" on="0"/>
        <pt x="179" y="238" on="0"/>
        <pt x="208" y="238" on="1"/>
        <pt x="244" y="238" on="0"/>
        <pt x="287" y="283" on="0"/>
        <pt x="287" y="319" on="1"/>
        <pt x="287" y="352" on="0"/>
        <pt x="246" y="413" on="0"/>
      </contour>
    </TTGlyph>
    <TTGlyph name="jvir.tam" xMin="65" yMin="-254" xMax="791" yMax="736">
      <contour>
        <pt x="268" y="511" on="1"/>
        <pt x="336" y="511" on="0"/>
        <pt x="427" y="442" on="0"/>
        <pt x="448" y="383" on="1"/>
        <pt x="468" y="443" on="0"/>
        <pt x="553" y="511" on="0"/>
        <pt x="616" y="511" on="1"/>
        <pt x="652" y="511" on="0"/>
        <pt x="714" y="482" on="0"/>
        <pt x="761" y="430" on="0"/>
        <pt x="788" y="359" on="0"/>
        <pt x="788" y="317" on="1"/>
        <pt x="788" y="246" on="0"/>
        <pt x="731" y="146" on="0"/>
        <pt x="635" y="82" on="0"/>
        <pt x="510" y="52" on="0"/>
        <pt x="442" y="52" on="1"/>
        <pt x="272" y="52" on="1"/>
        <pt x="244" y="52" on="0"/>
        <pt x="196" y="35" on="0"/>
        <pt x="160" y="4" on="0"/>
        <pt x="139" y="-40" on="0"/>
        <pt x="139" y="-68" on="1"/>
        <pt x="139" y="-95" on="0"/>
        <pt x="160" y="-139" on="0"/>
        <pt x="196" y="-170" on="0"/>
        <pt x="244" y="-187" on="0"/>
        <pt x="271" y="-187" on="1"/>
        <pt x="305" y="-187" on="0"/>
        <pt x="368" y="-159" on="0"/>
        <pt x="429" y="-117" on="0"/>
        <pt x="489" y="-68" on="0"/>
        <pt x="552" y="-26" on="0"/>
        <pt x="619" y="2" on="0"/>
        <pt x="656" y="2" on="1"/>
        <pt x="689" y="2" on="0"/>
        <pt x="739" y="-17" on="0"/>
        <pt x="774" y="-49" on="0"/>
        <pt x="791" y="-92" on="0"/>
        <pt x="791" y="-115" on="1"/>
        <pt x="791" y="-172" on="0"/>
        <pt x="707" y="-244" on="0"/>
        <pt x="623" y="-254" on="1"/>
        <pt x="579" y="-213" on="1"/>
        <pt x="641" y="-206" on="0"/>
        <pt x="718" y="-161" on="0"/>
        <pt x="718" y="-120" on="1"/>
        <pt x="718" y="-94" on="0"/>
        <pt x="681" y="-57" on="0"/>
        <pt x="651" y="-57" on="1"/>
        <pt x="622" y="-57" on="0"/>
        <pt x="565" y="-86" on="0"/>
        <pt x="507" y="-128" on="0"/>
        <pt x="446" y="-179" on="0"/>
        <pt x="381" y="-221" on="0"/>
        <pt x="310" y="-250" on="0"/>
        <pt x="271" y="-250" on="1"/>
        <pt x="226" y="-250" on="0"/>
        <pt x="151" y="-224" on="0"/>
        <pt x="96" y="-176" on="0"/>
        <pt x="65" y="-109" on="0"/>
        <pt x="65" y="-68" on="1"/>
        <pt x="65" y="-25" on="0"/>
        <pt x="96" y="41" on="0"/>
        <pt x="151" y="86" on="0"/>
        <pt x="227" y="110" on="0"/>
        <pt x="272" y="110" on="1"/>
        <pt x="441" y="110" on="1"/>
        <pt x="500" y="110" on="0"/>
        <pt x="600" y="134" on="0"/>
        <pt x="673" y="185" on="0"/>
        <pt x="714" y="264" on="0"/>
        <pt x="714" y="320" on="1"/>
        <pt x="714" y="383" on="0"/>
        <pt x="659" y="451" on="0"/>
        <pt x="615" y="451" on="1"/>
        <pt x="567" y="451" on="0"/>
        <pt x="503" y="371" on="0"/>
        <pt x="503" y="287" on="1"/>
        <pt x="503" y="220" on="1"/>
        <pt x="434" y="220" on="1"/>
        <pt x="434" y="270" on="1"/>
        <pt x="434" y="302" on="0"/>
        <pt x="418" y="363" on="0"/>
        <pt x="385" y="411" on="0"/>
        <pt x="336" y="442" on="0"/>
        <pt x="303" y="445" on="1"/>
        <pt x="290" y="449" on="0"/>
        <pt x="255" y="449" on="0"/>
        <pt x="242" y="447" on="1"/>
        <pt x="290" y="421" on="0"/>
        <pt x="339" y="339" on="0"/>
        <pt x="339" y="297" on="1"/>
        <pt x="339" y="247" on="0"/>
        <pt x="271" y="183" on="0"/>
        <pt x="208" y="183" on="1"/>
        <pt x="179" y="183" on="0"/>
        <pt x="128" y="201" on="0"/>
        <pt x="88" y="238" on="0"/>
        <pt x="65" y="292" on="0"/>
        <pt x="65" y="328" on="1"/>
        <pt x="65" y="366" on="0"/>
        <pt x="97" y="433" on="0"/>
        <pt x="153" y="482" on="0"/>
        <pt x="226" y="511" on="0"/>
      </contour>
      <contour>
        <pt x="207" y="434" on="1"/>
        <pt x="175" y="417" on="0"/>
        <pt x="135" y="360" on="0"/>
        <pt x="135" y="320" on="1"/>
        <pt x="135" y="278" on="0"/>
        <pt x="179" y="238" on="0"/>
        <pt x="208" y="238" on="1"/>
        <pt x="244" y="238" on="0"/>
        <pt x="287" y="283" on="0"/>
        <pt x="287" y="319" on="1"/>
        <pt x="287" y="352" on="0"/>
        <pt x="246" y="413" on="0"/>
      </contour>
      <contour>
        <pt x="403" y="686" on="1"/>
        <pt x="403" y="707" on="0"/>
        <pt x="431" y="736" on="0"/>
        <pt x="451" y="736" on="1"/>
        <pt x="472" y="736" on="0"/>
        <pt x="501" y="707" on="0"/>
        <pt x="501" y="686" on="1"/>
        <pt x="501" y="666" on="0"/>
        <pt x="472" y="638" on="0"/>
        <pt x="451" y="638" on="1"/>
        <pt x="431" y="638" on="0"/>
        <pt x="403" y="666" on="0"/>
      </contour>
    </TTGlyph>
    <TTGlyph name="ka.tam" xMin="45" yMin="-9" xMax="724" yMax="503">
      <contour>
        <pt x="236" y="278" on="1"/>
        <pt x="413" y="278" on="1"/>
        <pt x="413" y="440" on="1"/>
        <pt x="236" y="440" on="1"/>
      </contour>
      <contour>
        <pt x="192" y="229" on="1"/>
        <pt x="154" y="229" on="0"/>
        <pt x="119" y="199" on="0"/>
        <pt x="119" y="172" on="1"/>
        <pt x="119" y="146" on="0"/>
        <pt x="147" y="101" on="0"/>
        <pt x="197" y="69" on="0"/>
        <pt x="262" y="51" on="0"/>
        <pt x="300" y="51" on="1"/>
        <pt x="360" y="51" on="0"/>
        <pt x="413" y="111" on="0"/>
        <pt x="413" y="173" on="1"/>
        <pt x="413" y="229" on="1"/>
      </contour>
      <contour>
        <pt x="629" y="503" on="1"/>
        <pt x="629" y="440" on="1"/>
        <pt x="483" y="440" on="1"/>
        <pt x="483" y="278" on="1"/>
        <pt x="567" y="278" on="1"/>
        <pt x="640" y="278" on="0"/>
        <pt x="724" y="206" on="0"/>
        <pt x="724" y="150" on="1"/>
        <pt x="724" y="118" on="0"/>
        <pt x="704" y="68" on="0"/>
        <pt x="670" y="29" on="0"/>
        <pt x="625" y="1" on="0"/>
        <pt x="599" y="-9" on="1"/>
        <pt x="552" y="46" on="1"/>
        <pt x="597" y="57" on="0"/>
        <pt x="651" y="110" on="0"/>
        <pt x="651" y="152" on="1"/>
        <pt x="651" y="185" on="0"/>
        <pt x="605" y="229" on="0"/>
        <pt x="561" y="229" on="1"/>
        <pt x="483" y="229" on="1"/>
        <pt x="483" y="171" on="1"/>
        <pt x="483" y="82" on="0"/>
        <pt x="396" y="-9" on="0"/>
        <pt x="305" y="-9" on="1"/>
        <pt x="249" y="-9" on="0"/>
        <pt x="154" y="22" on="0"/>
        <pt x="84" y="75" on="0"/>
        <pt x="45" y="143" on="0"/>
        <pt x="45" y="180" on="1"/>
        <pt x="45" y="227" on="0"/>
        <pt x="107" y="278" on="0"/>
        <pt x="158" y="278" on="1"/>
        <pt x="170" y="278" on="1"/>
        <pt x="170" y="503" on="1"/>
      </contour>
    </TTGlyph>
    <TTGlyph name="kansv.tam" xMin="45" yMin="-9" xMax="724" yMax="806">
      <contour>
        <pt x="236" y="278" on="1"/>
        <pt x="413" y="278" on="1"/>
        <pt x="413" y="440" on="1"/>
        <pt x="236" y="440" on="1"/>
      </contour>
      <contour>
        <pt x="192" y="229" on="1"/>
        <pt x="154" y="229" on="0"/>
        <pt x="119" y="199" on="0"/>
        <pt x="119" y="172" on="1"/>
        <pt x="119" y="146" on="0"/>
        <pt x="147" y="101" on="0"/>
        <pt x="197" y="69" on="0"/>
        <pt x="262" y="51" on="0"/>
        <pt x="300" y="51" on="1"/>
        <pt x="360" y="51" on="0"/>
        <pt x="413" y="111" on="0"/>
        <pt x="413" y="173" on="1"/>
        <pt x="413" y="229" on="1"/>
      </contour>
      <contour>
        <pt x="629" y="503" on="1"/>
        <pt x="629" y="440" on="1"/>
        <pt x="483" y="440" on="1"/>
        <pt x="483" y="278" on="1"/>
        <pt x="567" y="278" on="1"/>
        <pt x="640" y="278" on="0"/>
        <pt x="724" y="206" on="0"/>
        <pt x="724" y="150" on="1"/>
        <pt x="724" y="118" on="0"/>
        <pt x="704" y="68" on="0"/>
        <pt x="670" y="29" on="0"/>
        <pt x="625" y="1" on="0"/>
        <pt x="599" y="-9" on="1"/>
        <pt x="552" y="46" on="1"/>
        <pt x="597" y="57" on="0"/>
        <pt x="651" y="110" on="0"/>
        <pt x="651" y="152" on="1"/>
        <pt x="651" y="185" on="0"/>
        <pt x="605" y="229" on="0"/>
        <pt x="561" y="229" on="1"/>
        <pt x="483" y="229" on="1"/>
        <pt x="483" y="171" on="1"/>
        <pt x="483" y="82" on="0"/>
        <pt x="396" y="-9" on="0"/>
        <pt x="305" y="-9" on="1"/>
        <pt x="249" y="-9" on="0"/>
        <pt x="154" y="22" on="0"/>
        <pt x="84" y="75" on="0"/>
        <pt x="45" y="143" on="0"/>
        <pt x="45" y="180" on="1"/>
        <pt x="45" y="227" on="0"/>
        <pt x="107" y="278" on="0"/>
        <pt x="158" y="278" on="1"/>
        <pt x="170" y="278" on="1"/>
        <pt x="170" y="503" on="1"/>
      </contour>
      <contour>
        <pt x="379" y="806" on="1"/>
        <pt x="403" y="806" on="0"/>
        <pt x="446" y="791" on="0"/>
        <pt x="479" y="762" on="0"/>
        <pt x="498" y="721" on="0"/>
        <pt x="498" y="694" on="1"/>
        <pt x="498" y="667" on="0"/>
        <pt x="479" y="625" on="0"/>
        <pt x="446" y="597" on="0"/>
        <pt x="403" y="582" on="0"/>
        <pt x="379" y="582" on="1"/>
        <pt x="331" y="582" on="0"/>
        <pt x="261" y="640" on="0"/>
        <pt x="261" y="694" on="1"/>
        <pt x="261" y="721" on="0"/>
        <pt x="280" y="762" on="0"/>
        <pt x="312" y="791" on="0"/>
        <pt x="355" y="806" on="0"/>
      </contour>
      <contour>
        <pt x="379" y="754" on="1"/>
        <pt x="353" y="754" on="0"/>
        <pt x="327" y="721" on="0"/>
        <pt x="327" y="694" on="1"/>
        <pt x="327" y="666" on="0"/>
        <pt x="353" y="634" on="0"/>
        <pt x="379" y="634" on="1"/>
        <pt x="405" y="634" on="0"/>
        <pt x="432" y="666" on="0"/>
        <pt x="432" y="694" on="1"/>
        <pt x="432" y="721" on="0"/>
        <pt x="405" y="754" on="0"/>
      </contour>
    </TTGlyph>
</ttFont>
